<?xml version="1.0" standalone="no"?>
<!DOCTYPE svg PUBLIC "-//W3C//DTD SVG 20010904//EN"
 "http://www.w3.org/TR/2001/REC-SVG-20010904/DTD/svg10.dtd">
<svg version="1.0" xmlns="http://www.w3.org/2000/svg"
 width="2480.000000pt" height="3508.000000pt" viewBox="0 0 2480.000000 3508.000000"
 preserveAspectRatio="xMidYMid meet">

<g transform="translate(0.000000,3508.000000) scale(0.100000,-0.100000)"
fill="#000000" stroke="none">
<path d="M12095 22494 c-1046 -56 -2016 -337 -2895 -838 -170 -97 -530 -338
-675 -451 -663 -517 -1184 -1125 -1557 -1820 -595 -1107 -774 -2378 -507
-3595 330 -1501 1326 -2823 2739 -3635 796 -458 1679 -732 2640 -822 259 -24
871 -24 1130 0 1160 108 2203 485 3115 1125 913 641 1627 1535 2018 2527 1029
2614 -163 5514 -2814 6841 -717 359 -1483 574 -2309 649 -166 15 -730 27 -885
19z m780 -834 c1630 -139 3077 -959 3939 -2231 428 -633 681 -1326 762 -2086
23 -216 23 -660 0 -876 -126 -1182 -695 -2252 -1621 -3048 -1623 -1396 -4023
-1686 -5980 -724 -1364 671 -2329 1862 -2640 3258 -70 315 -99 593 -99 952 0
294 9 418 49 677 209 1362 1048 2570 2311 3328 741 445 1602 706 2506 760 168
10 602 4 773 -10z"/>
<path d="M12120 20774 c-502 -43 -887 -124 -1279 -269 -1437 -533 -2442 -1721
-2645 -3125 -29 -202 -39 -379 -33 -615 10 -380 60 -675 172 -1026 401 -1246
1462 -2236 2815 -2625 696 -200 1447 -229 2173 -83 1670 335 2965 1574 3271
3129 49 251 61 383 61 700 0 316 -12 448 -61 700 -226 1156 -1012 2164 -2131
2733 -494 251 -959 389 -1553 463 -119 14 -681 27 -790 18z m334 -1047 c27
-18 42 -55 96 -232 53 -175 90 -295 141 -455 22 -69 57 -179 78 -245 21 -66
55 -173 76 -237 20 -65 37 -121 38 -125 0 -4 11 -39 24 -78 13 -38 32 -102 43
-140 29 -106 79 -233 106 -264 13 -16 20 -31 17 -35 -4 -4 1 -4 11 0 11 4 17
3 14 -2 -4 -5 363 -9 930 -8 516 0 892 -3 837 -6 l-100 -7 119 0 c112 0 120
-1 138 -22 18 -24 22 -50 12 -87 -7 -25 -87 -87 -99 -76 -5 4 -5 2 -2 -5 7
-12 -88 -86 -110 -86 -7 0 -10 -4 -8 -8 3 -4 -8 -15 -23 -25 -15 -10 -60 -44
-101 -76 -40 -32 -78 -55 -85 -51 -6 3 -8 3 -4 -2 8 -9 -31 -42 -44 -37 -5 1
-8 -2 -8 -7 0 -8 -80 -73 -137 -111 -12 -8 -47 -34 -77 -58 -30 -24 -62 -45
-70 -46 -9 -1 -19 -6 -23 -11 -4 -4 -1 -5 7 -1 8 4 6 1 -4 -8 -10 -8 -23 -13
-28 -10 -5 3 -7 1 -6 -4 4 -13 -152 -133 -163 -126 -5 3 -8 1 -7 -5 4 -13 -62
-62 -74 -55 -5 3 -7 1 -6 -4 2 -5 -37 -40 -86 -77 -48 -36 -85 -61 -80 -53 4
7 -5 0 -19 -15 -15 -16 -32 -25 -39 -21 -6 4 -8 3 -5 -3 4 -6 -1 -17 -10 -24
-14 -12 -16 -12 -8 1 5 8 -6 0 -23 -18 -17 -19 -36 -31 -42 -27 -6 4 -9 2 -8
-3 2 -5 -21 -28 -49 -51 -57 -45 -93 -103 -93 -149 0 -16 10 -58 21 -93 12
-35 22 -71 23 -79 1 -9 5 -20 8 -25 9 -15 85 -255 93 -292 3 -18 11 -35 16
-38 5 -4 9 -17 9 -29 0 -13 7 -29 15 -36 8 -7 14 -18 13 -24 -3 -11 22 -99 49
-174 8 -23 16 -48 17 -55 8 -42 19 -83 26 -92 4 -5 19 -50 35 -100 36 -117 69
-220 160 -500 41 -126 75 -239 75 -251 0 -62 -92 -94 -160 -55 -19 10 -34 24
-32 31 1 6 -2 9 -6 6 -5 -3 -21 5 -36 19 -14 13 -26 21 -26 17 -1 -4 -10 4
-20 17 -11 13 -20 20 -20 16 0 -4 -7 -2 -15 5 -8 7 -12 17 -8 23 3 6 1 7 -6 3
-14 -9 -63 28 -53 39 4 5 2 5 -4 2 -13 -8 -80 40 -76 54 1 6 -2 8 -7 5 -12 -8
-223 149 -213 158 4 4 2 6 -4 4 -14 -4 -205 133 -199 142 3 4 -3 7 -13 6 -9 0
-16 4 -15 10 1 6 -4 11 -11 11 -6 0 -75 46 -152 103 -134 99 -176 133 -145
115 10 -5 12 -4 7 4 -4 6 -12 9 -17 5 -12 -7 -110 71 -101 81 4 5 2 5 -4 2 -6
-3 -33 11 -60 31 -27 20 -61 45 -74 55 -14 10 -19 15 -11 11 9 -5 12 -3 7 5
-4 6 -12 9 -17 6 -5 -4 -23 7 -39 24 -17 16 -30 27 -30 25 0 -3 -9 0 -20 6
-11 6 -18 15 -15 20 4 6 -1 7 -11 3 -11 -4 -15 -3 -11 4 5 7 -1 9 -15 5 -15
-4 -19 -2 -13 7 6 10 3 11 -15 1 -12 -6 -28 -9 -36 -6 -10 4 -12 2 -8 -6 5 -8
2 -9 -10 -5 -10 4 -15 3 -11 -3 6 -9 -8 -14 -28 -11 -5 1 -6 -3 -3 -8 8 -13
-21 -34 -35 -25 -7 4 -9 3 -5 -4 7 -11 -27 -36 -37 -26 -3 3 -8 0 -13 -7 -4
-8 -3 -10 4 -5 7 4 12 5 12 2 0 -7 -74 -51 -82 -48 -5 1 -7 -4 -5 -11 1 -7 -6
-11 -16 -9 -9 2 -16 -1 -15 -6 2 -5 -22 -29 -52 -53 -30 -23 -50 -36 -45 -28
6 8 1 5 -10 -7 -33 -36 -107 -84 -118 -77 -5 3 -7 1 -4 -4 7 -11 -41 -49 -55
-45 -5 1 -8 -2 -8 -6 0 -12 -91 -78 -102 -74 -5 1 -7 -1 -4 -6 4 -8 -50 -46
-66 -47 -3 0 -10 -4 -15 -9 -5 -6 -2 -6 7 -1 25 14 8 -1 -57 -48 -33 -25 -64
-43 -67 -40 -3 4 -6 1 -6 -6 0 -7 -5 -9 -12 -5 -7 4 -8 3 -4 -4 7 -12 -32 -38
-49 -33 -5 1 -7 -1 -3 -5 10 -9 -202 -165 -215 -157 -5 3 -7 1 -4 -4 7 -12
-35 -44 -62 -48 -9 -1 -16 -7 -16 -14 0 -15 -56 -51 -68 -44 -6 3 -7 1 -4 -4
6 -9 -35 -45 -53 -47 -2 -1 -15 -11 -28 -23 -14 -13 -29 -20 -35 -16 -5 3 -8
2 -5 -3 3 -5 -6 -18 -20 -28 -16 -12 -23 -14 -18 -5 4 8 -1 4 -11 -8 -16 -21
-39 -26 -85 -21 -10 1 -18 5 -18 10 0 5 -4 7 -9 3 -15 -9 -41 36 -41 70 0 16
32 122 71 235 38 113 72 216 74 230 2 14 16 57 31 95 15 39 29 82 31 98 3 15
10 27 15 27 5 0 7 4 3 9 -3 6 4 36 16 68 11 32 31 94 44 138 13 44 33 109 45
145 12 36 39 115 59 175 20 61 52 153 69 205 18 52 35 104 37 115 3 11 16 53
30 94 28 85 32 143 10 185 -8 15 -12 33 -8 40 3 6 3 8 -2 4 -4 -4 -16 3 -25
15 -10 12 -67 60 -128 107 -61 47 -108 89 -105 94 4 5 1 6 -4 3 -13 -8 -89 51
-85 67 2 6 0 8 -3 4 -11 -11 -47 11 -39 24 4 6 3 8 -3 5 -6 -4 -19 1 -29 9
-10 9 -12 12 -4 8 8 -4 11 -3 7 1 -4 5 -14 10 -22 11 -7 1 -65 41 -127 89
-113 88 -146 116 -119 100 9 -5 12 -4 7 3 -4 6 -13 9 -20 6 -7 -3 -19 3 -27
12 -12 15 -12 17 0 9 10 -5 12 -4 7 4 -4 6 -11 9 -16 6 -4 -3 -50 27 -102 66
-564 429 -563 428 -560 440 1 6 -1 8 -6 5 -12 -7 -79 40 -92 64 -27 50 4 132
45 116 9 -3 13 -2 10 4 -4 7 205 10 607 10 337 0 745 3 907 7 217 5 292 3 287
-5 -5 -8 1 -8 24 -1 17 6 37 9 44 6 8 -3 22 1 33 9 16 12 16 13 1 8 -25 -9
-22 3 7 30 14 13 25 30 25 38 0 8 15 57 34 109 18 52 52 155 75 229 68 214
120 377 157 485 19 55 36 109 39 120 2 11 18 61 35 110 17 50 33 97 35 105 4
20 91 286 121 370 12 36 26 81 29 100 22 106 90 152 159 107z"/>
<path d="M12371 19664 c-12 -15 -21 -32 -21 -38 0 -6 9 4 20 22 23 37 33 39
60 12 11 -11 20 -16 20 -12 0 12 -34 42 -48 42 -6 0 -20 -12 -31 -26z"/>
<path d="M12455 19600 c9 -16 17 -30 19 -30 3 0 -1 14 -7 30 -6 17 -15 30 -19
30 -5 0 -2 -13 7 -30z"/>
<path d="M12336 19593 c-6 -14 -5 -15 5 -6 7 7 10 15 7 18 -3 3 -9 -2 -12 -12z"/>
<path d="M12321 19558 c0 -9 -4 -25 -7 -35 -5 -17 -5 -17 6 0 6 10 9 25 7 35
-4 15 -5 15 -6 0z"/>
<path d="M12275 19410 c-4 -19 -11 -39 -15 -45 -9 -12 -22 -65 -16 -65 8 0 48
120 44 132 -3 7 -8 -3 -13 -22z"/>
<path d="M12541 19354 c0 -11 3 -14 6 -6 3 7 2 16 -1 19 -3 4 -6 -2 -5 -13z"/>
<path d="M12561 19284 c0 -11 3 -14 6 -6 3 7 2 16 -1 19 -3 4 -6 -2 -5 -13z"/>
<path d="M12550 19235 c0 -8 4 -15 10 -15 5 0 7 7 4 15 -4 8 -8 15 -10 15 -2
0 -4 -7 -4 -15z"/>
<path d="M12581 19225 c0 -11 6 -31 14 -45 18 -32 18 -25 0 25 -8 22 -14 31
-14 20z"/>
<path d="M12211 19223 c-1 -6 -4 -20 -7 -30 -5 -17 -5 -17 6 0 6 10 9 23 6 30
-3 9 -5 9 -5 0z"/>
<path d="M12191 19163 c-1 -6 -4 -20 -7 -30 -5 -17 -5 -17 6 0 6 10 9 23 6 30
-3 9 -5 9 -5 0z"/>
<path d="M12618 19088 c-3 -15 -2 -25 2 -23 9 5 24 -45 16 -52 -3 -3 2 -12 10
-20 8 -9 13 -22 10 -29 -3 -8 0 -14 5 -14 6 0 9 8 6 18 -3 9 -14 46 -25 82
-16 55 -20 61 -24 38z"/>
<path d="M12590 19090 c0 -5 5 -10 11 -10 5 0 7 5 4 10 -3 6 -8 10 -11 10 -2
0 -4 -4 -4 -10z"/>
<path d="M12161 19064 c0 -11 3 -14 6 -6 3 7 2 16 -1 19 -3 4 -6 -2 -5 -13z"/>
<path d="M12591 19031 c-1 -14 37 -81 46 -81 2 0 -4 15 -15 33 -11 17 -22 39
-25 47 -4 11 -6 12 -6 1z"/>
<path d="M12136 18994 c-4 -9 -4 -19 -1 -22 2 -3 7 3 11 12 4 9 4 19 1 22 -2
3 -7 -3 -11 -12z"/>
<path d="M12670 18921 c0 -11 4 -22 9 -25 4 -3 6 6 3 19 -5 30 -12 33 -12 6z"/>
<path d="M12106 18904 c-4 -14 -5 -28 -3 -31 3 -2 8 8 11 23 4 14 5 28 3 31
-3 2 -8 -8 -11 -23z"/>
<path d="M12066 18775 c-3 -9 -6 -22 -5 -28 0 -7 5 -1 10 12 5 13 8 26 5 28
-2 2 -6 -3 -10 -12z"/>
<path d="M11795 17969 c-4 -6 -5 -12 -2 -15 2 -3 7 2 10 11 7 17 1 20 -8 4z"/>
<path d="M13233 17893 c59 -2 154 -2 210 0 56 1 8 3 -108 3 -115 0 -161 -2
-102 -3z"/>
<path d="M14708 17893 c7 -3 16 -2 19 1 4 3 -2 6 -13 5 -11 0 -14 -3 -6 -6z"/>
<path d="M10768 17873 c89 -2 235 -2 325 0 89 1 16 3 -163 3 -179 0 -252 -2
-162 -3z"/>
<path d="M11310 17869 c76 -10 380 -11 380 -1 0 4 -98 7 -218 7 -123 1 -193
-2 -162 -6z"/>
<path d="M9981 17863 c-108 -4 -141 -12 -141 -36 0 -5 8 -3 18 6 14 13 41 17
118 18 54 1 131 5 169 9 l70 7 -60 -1 c-33 0 -111 -2 -174 -3z"/>
<path d="M9877 17833 c-4 -3 -7 -13 -7 -22 1 -13 3 -13 11 2 11 19 8 33 -4 20z"/>
<path d="M14535 17790 c-71 -10 -186 -30 -255 -45 -256 -55 -308 -64 -385 -70
-131 -10 -291 -49 -410 -100 -16 -7 -68 -25 -115 -41 -47 -15 -99 -34 -117
-41 -44 -18 -91 -16 -142 7 -88 41 -133 20 -236 -110 -157 -197 -202 -260
-211 -297 -6 -23 -5 -25 12 -19 10 4 87 33 169 63 83 30 177 66 210 79 33 12
130 48 215 79 148 54 710 259 910 332 196 72 259 93 394 132 77 23 142 43 144
46 9 8 -46 4 -183 -15z"/>
<path d="M9840 17792 c0 -16 72 -84 80 -75 3 3 -1 8 -8 10 -6 3 -9 10 -6 15 4
6 2 8 -3 5 -14 -9 -37 19 -27 34 5 8 3 9 -6 4 -7 -4 -16 -2 -21 6 -7 11 -9 11
-9 1z"/>
<path d="M9960 17683 c0 -5 26 -27 58 -49 47 -34 261 -194 297 -222 83 -65
166 -121 163 -110 -2 7 -14 17 -26 23 -25 11 -31 30 -6 21 9 -3 12 -2 9 5 -4
6 -14 8 -22 5 -19 -7 -55 12 -48 25 4 5 3 8 -2 7 -11 -4 -59 30 -56 40 1 4 -5
6 -14 4 -8 -2 -12 1 -8 7 3 6 0 9 -8 5 -9 -3 -21 4 -29 15 -8 12 -18 18 -21
14 -13 -12 -7 13 6 27 10 12 9 12 -5 1 -15 -11 -23 -8 -60 20 -24 18 -47 39
-51 46 -4 7 -15 13 -23 13 -9 0 -12 5 -8 12 5 7 3 8 -5 3 -8 -4 -18 1 -27 14
-8 12 -21 21 -29 21 -8 0 -12 8 -10 19 2 14 -2 17 -20 15 -13 -1 -26 4 -29 12
-6 14 -26 20 -26 7z"/>
<path d="M10155 17580 c-3 -6 1 -7 9 -4 18 7 21 14 7 14 -6 0 -13 -4 -16 -10z"/>
<path d="M10220 17520 c0 -5 5 -10 10 -10 6 0 10 5 10 10 0 6 -4 10 -10 10 -5
0 -10 -4 -10 -10z"/>
<path d="M13168 17493 c12 -2 30 -2 40 0 9 3 -1 5 -23 4 -22 0 -30 -2 -17 -4z"/>
<path d="M10496 17291 c-3 -4 16 -23 42 -43 82 -60 220 -158 224 -158 3 0 20
-13 39 -30 41 -35 326 -263 382 -305 22 -16 67 -56 100 -87 54 -54 67 -64 67
-54 0 9 -120 129 -120 120 0 -5 -5 -1 -11 9 -5 9 -15 17 -21 17 -14 0 -94 72
-90 82 1 5 -5 8 -14 8 -15 0 -165 115 -172 132 -2 5 -10 8 -17 8 -8 0 -18 6
-22 13 -4 8 -25 25 -46 39 -21 14 -35 28 -30 30 4 3 2 3 -4 2 -7 -2 -13 0 -13
5 0 4 -20 21 -45 36 -24 16 -41 33 -38 38 3 6 1 7 -6 3 -6 -4 -25 4 -42 18
-17 14 -34 26 -37 26 -4 0 -25 16 -47 35 -22 19 -44 35 -49 35 -4 0 -4 6 2 13
8 10 6 13 -8 14 -11 1 -22 -2 -24 -6z"/>
<path d="M12271 17059 c-30 -16 -45 -29 -35 -29 10 0 33 -14 51 -32 18 -18 33
-27 33 -21 0 6 -14 23 -30 36 -17 14 -26 29 -20 32 5 3 15 3 20 0 6 -4 9 -1 8
6 -2 7 15 18 37 25 30 9 34 13 15 13 -14 0 -49 -13 -79 -30z"/>
<path d="M12390 17040 c0 -6 4 -9 9 -6 5 4 12 1 14 -4 3 -6 4 -5 3 2 -3 15
-26 23 -26 8z"/>
<path d="M12325 16960 c-4 -6 -4 -14 -1 -17 3 -4 6 -1 6 5 0 7 16 12 38 12 47
0 77 -27 70 -64 -3 -16 0 -27 9 -30 23 -9 35 -7 28 4 -4 6 -10 8 -14 5 -5 -2
-9 7 -10 20 -4 54 -6 62 -16 64 -58 11 -104 11 -110 1z"/>
<path d="M11017 16949 c7 -7 15 -10 18 -7 3 3 -2 9 -12 12 -14 6 -15 5 -6 -5z"/>
<path d="M11060 16886 c0 -2 7 -7 16 -10 8 -3 12 -2 9 4 -6 10 -25 14 -25 6z"/>
<path d="M11350 16650 c0 -5 5 -10 11 -10 5 0 7 5 4 10 -3 6 -8 10 -11 10 -2
0 -4 -4 -4 -10z"/>
<path d="M11341 16574 c0 -11 3 -14 6 -6 3 7 2 16 -1 19 -3 4 -6 -2 -5 -13z"/>
<path d="M11362 16510 c0 -14 2 -19 5 -12 2 6 2 18 0 25 -3 6 -5 1 -5 -13z"/>
<path d="M11361 16434 c0 -11 3 -14 6 -6 3 7 2 16 -1 19 -3 4 -6 -2 -5 -13z"/>
<path d="M11434 16415 c-9 -14 -15 -27 -13 -30 3 -2 12 10 21 26 21 36 15 39
-8 4z"/>
<path d="M11307 16328 c-9 -28 -12 -47 -8 -42 11 12 34 84 29 89 -2 3 -12 -18
-21 -47z"/>
<path d="M11283 16251 c-3 -13 -21 -67 -39 -119 -30 -87 -31 -98 -19 -121 9
-16 14 -20 15 -10 0 8 -5 20 -11 26 -8 8 -7 20 4 44 9 19 23 54 31 79 8 25 15
39 16 32 0 -15 20 -6 20 9 0 6 -4 7 -10 4 -13 -8 -13 7 0 41 6 15 8 29 5 32
-3 4 -9 -4 -12 -17z"/>
<path d="M11291 16144 c0 -11 3 -14 6 -6 3 7 2 16 -1 19 -3 4 -6 -2 -5 -13z"/>
<path d="M11200 16000 c0 -5 5 -10 11 -10 5 0 7 5 4 10 -3 6 -8 10 -11 10 -2
0 -4 -4 -4 -10z"/>
<path d="M11183 15942 c-8 -19 -12 -36 -10 -39 3 -2 10 12 17 33 8 23 15 32
20 24 5 -9 9 -8 13 2 12 32 -26 12 -40 -20z"/>
<path d="M11147 15843 c-8 -27 -17 -57 -20 -68 -3 -11 -8 -29 -12 -40 -4 -13
-1 -12 9 5 8 14 16 36 16 50 0 20 2 22 10 10 8 -11 9 -8 4 13 -5 22 -3 27 12
27 14 0 15 3 6 8 -7 5 -10 16 -6 25 3 9 4 17 1 17 -3 0 -12 -21 -20 -47z"/>
<path d="M11066 15563 c-6 -14 -5 -15 5 -6 7 7 10 15 7 18 -3 3 -9 -2 -12 -12z"/>
<path d="M11044 15505 c-3 -8 -4 -20 -2 -27 3 -7 7 -1 10 15 6 29 1 36 -8 12z"/>
<path d="M13570 15385 c13 -14 26 -25 28 -25 3 0 -5 11 -18 25 -13 14 -26 25
-28 25 -3 0 5 -11 18 -25z"/>
<path d="M10986 15305 c-3 -8 -1 -15 4 -15 6 0 10 7 10 15 0 8 -2 15 -4 15 -2
0 -6 -7 -10 -15z"/>
<path d="M10959 15223 c-5 -14 -8 -30 -6 -36 1 -5 8 7 14 27 13 42 7 49 -8 9z"/>
<path d="M10923 15125 c-3 -9 -3 -18 -1 -21 3 -3 8 4 11 16 6 23 -1 27 -10 5z"/>
<path d="M10891 15024 c-28 -87 -22 -93 8 -8 13 35 21 67 19 70 -3 2 -15 -26
-27 -62z"/>
<path d="M10890 14767 c0 -5 -8 -15 -17 -22 -15 -11 -20 -10 -35 8 -21 24 -24
9 -4 -18 13 -18 15 -18 50 8 41 32 42 34 21 34 -8 0 -15 -5 -15 -10z"/>
</g>
</svg>
