<?xml version="1.0" standalone="no"?>
<!DOCTYPE svg PUBLIC "-//W3C//DTD SVG 20010904//EN"
 "http://www.w3.org/TR/2001/REC-SVG-20010904/DTD/svg10.dtd">
<svg version="1.0" xmlns="http://www.w3.org/2000/svg"
 width="3508.000000pt" height="2480.000000pt" viewBox="0 0 3508.000000 2480.000000"
 preserveAspectRatio="xMidYMid meet">

<g transform="translate(0.000000,2480.000000) scale(0.100000,-0.100000)"
fill="#000000" stroke="none">
<path d="M10868 12712 c-10 -2 -18 -8 -18 -13 0 -5 -5 -8 -12 -6 -6 1 -14 -7
-16 -17 -2 -11 -14 -28 -26 -37 -13 -10 -37 -53 -55 -96 -18 -43 -48 -94 -66
-113 -52 -55 -75 -110 -75 -179 0 -33 4 -62 9 -65 10 -7 51 54 51 76 0 7 20
31 45 53 25 22 66 66 91 98 25 31 52 57 60 57 8 0 14 4 14 9 0 13 82 97 106
110 18 8 20 16 15 48 -6 31 -11 38 -29 37 -12 0 -22 5 -22 13 0 7 -11 13 -24
13 -13 0 -26 4 -28 8 -1 4 -11 6 -20 4z"/>
<path d="M9584 12454 c-25 -11 -104 -93 -104 -108 0 -14 -146 -176 -216 -241
-12 -11 -24 -29 -26 -40 -2 -11 -13 -24 -24 -29 -12 -6 -31 -29 -43 -53 -14
-29 -33 -49 -59 -62 -30 -15 -41 -28 -46 -53 -3 -18 -16 -41 -29 -50 l-22 -17
27 -27 27 -27 43 38 c24 21 46 47 50 57 4 10 12 18 18 18 5 0 21 23 36 51 14
28 34 54 45 56 10 3 19 12 19 19 0 8 11 19 25 24 15 6 25 17 25 30 0 11 6 20
14 20 8 0 24 16 36 35 12 19 29 35 39 35 9 0 45 29 81 65 35 35 66 63 68 60 3
-2 12 5 21 16 9 11 32 24 51 28 31 6 35 11 47 56 7 28 11 56 8 63 -7 19 -88
46 -111 36z"/>
<path d="M15874 12454 c-25 -11 -104 -93 -104 -108 0 -14 -146 -176 -216 -241
-12 -11 -24 -29 -26 -40 -2 -11 -13 -24 -24 -29 -12 -6 -31 -29 -43 -53 -14
-29 -33 -49 -59 -62 -30 -15 -41 -28 -46 -53 -3 -18 -16 -41 -29 -50 l-22 -17
27 -27 27 -27 43 38 c24 21 46 47 50 57 4 10 12 18 18 18 5 0 21 23 36 51 14
28 34 54 45 56 10 3 19 12 19 19 0 8 11 19 25 24 15 6 25 17 25 30 0 11 6 20
14 20 8 0 24 16 36 35 12 19 29 35 39 35 9 0 45 29 81 65 35 35 66 63 68 60 3
-2 12 5 21 16 9 11 32 24 51 28 31 6 35 11 47 56 7 28 11 56 8 63 -7 19 -88
46 -111 36z"/>
<path d="M13773 12278 c-12 -6 -25 -18 -28 -27 -10 -27 -17 -395 -7 -421 15
-42 -5 -557 -24 -607 -11 -31 -13 -51 -6 -75 6 -21 5 -43 -1 -58 -5 -14 -11
-74 -13 -135 -3 -84 -7 -111 -19 -118 -13 -7 -13 -11 0 -37 12 -24 13 -45 5
-121 -7 -75 -6 -97 6 -121 11 -21 12 -38 5 -66 -9 -40 -9 -237 1 -262 4 -8 9
-42 11 -75 6 -68 46 -151 97 -200 28 -27 33 -28 68 -18 77 23 167 58 174 67 3
5 17 11 30 13 13 2 30 12 38 22 8 10 26 22 40 26 14 4 40 21 58 36 18 16 38
29 44 29 6 0 44 30 84 68 40 37 94 85 119 106 39 33 46 44 43 70 -3 29 -5 31
-41 28 -29 -2 -49 -14 -85 -48 -26 -25 -75 -59 -109 -75 -35 -17 -63 -35 -63
-40 0 -6 -4 -8 -9 -5 -5 4 -29 -5 -53 -18 -23 -14 -59 -34 -79 -45 -19 -11
-41 -27 -48 -35 -8 -9 -24 -16 -37 -16 -13 0 -39 -8 -58 -17 -52 -24 -77 -9
-99 60 -17 53 -32 182 -28 242 4 56 3 70 -4 115 -9 59 -8 101 6 176 8 45 8 67
0 82 -7 12 -7 23 -2 26 15 10 24 148 13 190 -7 25 -8 46 -1 63 14 37 39 240
43 351 2 54 7 104 10 113 4 9 0 21 -9 29 -20 17 -19 69 4 129 12 32 15 54 9
65 -6 10 -4 34 6 65 10 34 12 61 6 87 -15 65 -10 251 8 281 10 19 10 23 -5 32
-10 5 -22 24 -28 43 -13 36 -35 44 -72 26z"/>
<path d="M20293 12269 c-19 -6 -35 -18 -39 -32 -10 -28 -6 -135 7 -210 7 -41
7 -81 -1 -133 -9 -60 -9 -87 4 -146 12 -59 31 -269 28 -313 -1 -5 -3 -137 -6
-293 -3 -156 -8 -287 -10 -290 -7 -12 -28 -507 -28 -677 -1 -128 3 -168 16
-202 22 -51 35 -57 76 -32 30 19 32 23 26 60 -4 25 0 65 10 105 9 36 13 72 10
80 -3 8 -1 35 4 58 6 28 6 55 0 77 -8 28 -6 39 15 71 19 28 25 51 25 89 0 37
7 64 25 94 21 37 23 46 12 74 -14 37 -9 50 73 231 29 63 58 129 64 147 16 43
119 157 203 224 37 30 113 77 168 103 55 26 108 52 117 57 10 5 34 9 53 9 20
0 55 10 78 21 74 38 94 40 232 23 72 -8 139 -20 150 -24 11 -5 30 -12 43 -15
12 -4 22 -10 22 -15 0 -5 15 -17 33 -26 17 -9 44 -27 58 -40 24 -23 25 -30 24
-105 -1 -45 -7 -84 -12 -88 -5 -3 -17 -28 -28 -56 -10 -27 -30 -61 -44 -75
-14 -14 -38 -44 -53 -66 -14 -23 -44 -52 -66 -64 -26 -15 -46 -36 -57 -61 -16
-36 -33 -47 -92 -64 -13 -3 -23 -11 -23 -16 0 -5 -20 -9 -45 -9 -34 0 -47 -5
-55 -19 -7 -13 -40 -29 -98 -46 -48 -15 -91 -31 -97 -35 -11 -9 -103 -6 -112
4 -4 3 -17 6 -30 6 -29 0 -97 45 -177 117 -33 29 -63 53 -67 53 -4 0 -13 -25
-20 -55 -12 -55 -12 -58 22 -126 21 -45 43 -76 60 -84 26 -14 131 -128 185
-200 16 -22 41 -50 56 -63 15 -13 44 -50 64 -82 68 -111 411 -400 475 -400 8
0 28 -7 44 -16 45 -25 103 -37 172 -38 52 0 73 6 138 39 50 26 82 50 91 67 8
15 23 33 34 41 11 7 29 34 40 59 11 25 27 52 36 59 23 19 44 71 44 108 0 17 5
42 12 56 8 18 8 29 1 36 -18 18 -51 0 -62 -33 -6 -18 -19 -40 -29 -51 -9 -10
-33 -49 -52 -86 -41 -78 -92 -117 -197 -151 -85 -28 -131 -23 -249 25 -69 27
-101 48 -144 89 -30 29 -63 56 -72 59 -10 4 -18 13 -18 20 0 8 -11 19 -25 25
-14 6 -25 15 -25 20 0 5 -22 23 -50 40 -40 25 -56 44 -82 96 -18 37 -41 69
-54 75 -15 6 -27 26 -35 53 -7 24 -19 52 -26 63 -16 24 -17 67 -2 82 8 8 20 8
41 1 34 -12 66 -4 241 58 82 29 123 49 137 67 11 14 30 29 42 33 12 3 37 21
55 39 19 18 47 38 62 45 16 6 43 31 61 56 19 24 39 44 44 44 26 0 106 169 106
223 0 11 9 35 21 54 14 22 19 43 16 61 -18 90 -28 125 -44 154 -9 18 -16 37
-14 43 1 5 -1 7 -5 3 -4 -4 -36 19 -71 52 -35 33 -76 63 -91 66 -15 4 -38 13
-51 22 -43 26 -275 37 -401 19 -115 -17 -123 -20 -225 -77 -38 -21 -88 -48
-110 -58 -22 -11 -60 -36 -84 -56 -24 -21 -57 -44 -73 -52 -18 -9 -28 -21 -24
-29 3 -8 -3 -16 -13 -20 -23 -7 -113 -145 -157 -241 -44 -95 -85 -202 -82
-212 3 -10 -36 -102 -43 -102 -4 0 -15 8 -26 18 -19 16 -19 27 -10 292 6 151
9 295 9 320 -4 265 -11 459 -17 527 -5 55 -4 97 4 129 11 45 5 242 -7 229 -3
-2 -10 1 -16 9 -8 10 -20 11 -43 5z"/>
<path d="M22628 12172 c-57 -45 -79 -99 -54 -137 9 -13 17 -38 18 -55 2 -23 9
-35 25 -41 12 -4 32 -18 43 -29 20 -20 25 -20 75 -9 127 28 188 192 91 243
-17 8 -42 25 -56 35 -14 11 -41 22 -60 25 -29 5 -42 0 -82 -32z"/>
<path d="M23284 12186 c-3 -9 -10 -16 -16 -16 -5 0 -16 -6 -24 -14 -7 -8 -19
-16 -25 -18 -6 -2 -12 -18 -13 -36 -1 -17 -7 -37 -14 -44 -6 -6 -12 -28 -12
-49 0 -31 7 -42 58 -86 l57 -50 53 17 c29 10 61 25 70 34 9 9 28 24 40 34 18
13 25 30 28 70 3 32 1 52 -6 52 -5 0 -10 6 -10 13 0 24 -74 84 -110 90 -19 3
-43 8 -52 12 -12 5 -20 2 -24 -9z"/>
<path d="M31556 12063 c-10 -13 -25 -48 -32 -76 -13 -49 -13 -53 7 -69 11 -10
18 -22 14 -27 -3 -6 1 -22 10 -35 13 -19 16 -43 13 -100 -2 -54 1 -77 10 -81
17 -6 15 -56 -4 -69 -12 -9 -13 -17 -5 -39 6 -16 11 -69 11 -119 l0 -90 -102
5 c-57 3 -129 7 -160 9 -43 2 -59 -1 -63 -11 -3 -8 -1 -19 5 -25 5 -5 10 -28
10 -51 0 -47 13 -65 48 -65 13 0 37 -9 53 -21 23 -16 38 -20 64 -15 19 4 43 2
53 -3 13 -7 22 -7 29 0 7 7 16 4 27 -12 17 -25 24 -163 8 -173 -8 -4 -7 -94 1
-193 3 -35 1 -56 -8 -63 -15 -12 -14 -116 2 -144 7 -12 8 -30 2 -50 -20 -69
59 -341 119 -410 15 -17 38 -49 52 -69 67 -102 286 -162 389 -108 10 6 25 4
41 -4 20 -10 28 -10 44 0 12 7 48 16 81 20 40 5 71 15 93 31 17 14 37 22 43
19 15 -10 59 35 59 60 0 51 -55 59 -140 19 -39 -18 -64 -24 -87 -19 -19 3 -69
-3 -120 -15 -78 -19 -96 -20 -158 -9 -54 9 -75 17 -92 37 -12 15 -38 31 -57
37 -44 13 -114 96 -122 145 -3 19 -14 55 -24 80 -29 69 -40 259 -32 537 7 220
10 244 27 263 16 18 28 21 63 17 23 -2 45 0 48 5 4 6 28 7 59 3 41 -5 54 -3
58 8 6 17 68 32 113 28 18 -1 36 4 43 13 10 12 26 14 70 10 41 -5 68 -1 101
12 29 12 78 19 140 21 83 3 135 6 177 12 17 2 34 37 27 55 -5 14 -50 16 -390
14 -302 -2 -387 -5 -396 -15 -6 -7 -27 -13 -48 -13 -36 0 -39 2 -54 46 -9 26
-13 51 -9 57 11 19 14 177 3 215 -7 28 -6 41 5 58 12 18 14 48 10 141 -8 197
-3 182 -60 214 l-50 28 -19 -26z"/>
<path d="M4060 11897 c0 -8 -10 -34 -23 -59 -20 -39 -22 -50 -12 -70 7 -12 15
-49 19 -80 7 -67 -7 -108 -34 -101 -28 7 -59 -14 -75 -54 -20 -46 -62 -103
-78 -103 -7 -1 -34 -39 -62 -86 -27 -46 -55 -82 -61 -80 -6 2 -25 -4 -43 -15
-25 -15 -31 -25 -31 -54 0 -28 -4 -35 -19 -35 -10 0 -42 -21 -70 -46 -47 -42
-51 -49 -51 -91 0 -24 -4 -42 -9 -38 -5 3 -18 -6 -29 -20 -11 -14 -29 -25 -40
-25 -20 0 -32 -18 -32 -48 0 -10 -25 -31 -62 -52 -38 -22 -64 -44 -68 -57 -6
-27 -70 -96 -109 -119 -16 -10 -39 -38 -52 -66 -20 -43 -26 -48 -56 -48 -22 0
-33 -5 -33 -14 0 -29 -20 -26 -49 6 -45 49 -186 303 -210 379 -15 45 -32 76
-55 97 -21 18 -37 46 -44 73 -9 33 -32 66 -95 134 -54 58 -88 104 -97 130 -7
22 -23 54 -36 72 -13 17 -24 41 -24 52 0 23 -44 61 -71 61 -24 0 -49 27 -43
45 4 8 2 15 -4 15 -6 0 -13 14 -17 30 -4 17 -15 35 -26 40 -11 7 -19 21 -19
38 0 44 -11 71 -31 77 -10 4 -19 14 -19 24 0 39 -61 69 -93 46 -12 -8 -29 -15
-39 -15 -17 0 -23 -15 -20 -53 1 -10 -4 -30 -12 -44 -12 -24 -11 -32 12 -81
21 -48 24 -63 18 -121 -4 -36 -10 -119 -14 -185 -7 -100 -11 -121 -28 -135
-17 -14 -18 -22 -11 -68 7 -46 4 -67 -27 -170 -20 -64 -43 -127 -51 -140 -9
-13 -15 -46 -15 -80 0 -37 -6 -67 -16 -81 -16 -23 -27 -80 -40 -195 -6 -47
-12 -62 -32 -75 -34 -22 -52 -70 -52 -137 0 -39 -6 -64 -19 -83 -23 -32 -64
-182 -65 -234 0 -37 25 -78 49 -78 6 0 28 18 49 39 37 38 38 39 21 65 -16 25
-16 28 14 100 20 48 31 92 31 122 0 35 9 63 35 110 19 35 57 132 84 216 137
428 130 403 120 449 -10 41 -7 48 42 142 47 91 52 105 58 190 l6 92 38 10 c56
13 81 -5 157 -117 36 -52 84 -119 108 -148 23 -28 42 -56 42 -61 0 -5 17 -28
39 -52 21 -23 55 -76 76 -117 20 -41 45 -84 55 -95 10 -11 23 -37 30 -58 15
-48 70 -130 109 -163 40 -34 94 -144 79 -162 -8 -9 -8 -16 0 -24 7 -7 12 -27
12 -44 0 -36 48 -123 67 -124 7 0 17 19 23 41 8 27 18 43 31 46 12 3 37 36 61
80 30 55 49 79 74 91 23 10 38 27 46 50 10 26 24 40 58 56 34 16 46 27 48 47
2 21 11 29 42 38 33 10 40 17 45 44 5 24 20 42 63 72 77 55 178 161 204 215
12 25 49 79 83 120 34 41 87 111 119 154 31 44 70 88 85 97 16 10 36 27 44 39
12 18 19 20 36 11 33 -18 51 -53 51 -97 0 -23 9 -61 20 -85 13 -29 20 -66 20
-110 0 -36 5 -80 11 -98 8 -24 8 -35 -1 -46 -10 -12 -10 -18 0 -30 9 -11 9
-22 1 -46 -7 -20 -7 -36 -2 -43 6 -6 12 -60 15 -119 4 -68 12 -119 22 -138 13
-26 13 -39 3 -92 -21 -104 -15 -218 14 -279 14 -29 28 -71 32 -93 4 -22 13
-58 22 -79 20 -54 105 -160 157 -195 39 -27 43 -28 69 -14 32 16 31 17 -34 93
-26 30 -56 74 -68 97 -11 23 -25 44 -31 48 -5 3 -10 41 -10 84 0 43 -7 100
-16 127 -10 34 -15 85 -14 167 1 79 -3 124 -11 133 -9 11 -8 23 6 54 16 36 16
40 1 55 -21 21 -20 47 3 85 17 29 17 37 6 99 -8 37 -19 88 -25 112 -12 41 -16
88 -22 234 -2 33 -7 63 -11 66 -4 3 1 16 11 29 16 20 17 26 6 38 -8 7 -14 29
-14 47 0 19 -5 37 -11 41 -6 3 -9 17 -6 30 2 13 0 24 -6 24 -5 0 -4 6 2 14 8
10 9 16 1 21 -6 3 -10 44 -10 94 l0 89 -35 26 c-25 19 -35 35 -35 55 0 22 -7
30 -38 44 -46 20 -82 22 -82 4z"/>
<path d="M15305 11703 c-16 -8 -37 -21 -45 -28 -8 -7 -26 -15 -40 -17 -14 -2
-25 -10 -25 -18 0 -9 -11 -16 -25 -18 -14 -2 -32 -14 -40 -27 -8 -13 -32 -44
-53 -68 -29 -35 -39 -56 -44 -96 -3 -29 -11 -51 -18 -51 -7 0 -12 -21 -13 -57
-1 -39 -10 -74 -27 -107 -14 -27 -25 -63 -25 -79 0 -16 -10 -47 -22 -70 -17
-29 -20 -41 -11 -44 9 -3 6 -17 -12 -47 -14 -24 -25 -52 -25 -64 0 -13 -6 -22
-14 -22 -19 0 -29 -17 -19 -32 4 -7 8 -17 8 -23 1 -5 5 -18 9 -28 11 -23 0
-63 -24 -87 -14 -14 -19 -33 -19 -87 0 -37 -7 -99 -14 -138 -8 -38 -18 -92
-22 -120 -4 -27 -11 -55 -17 -62 -6 -7 -6 -18 0 -30 6 -10 16 -48 24 -84 13
-58 13 -67 0 -76 -13 -7 -13 -15 -3 -46 13 -38 55 -80 106 -104 17 -8 38 -28
47 -44 20 -34 36 -36 69 -11 13 11 35 22 49 25 15 4 50 36 85 78 33 39 85 89
116 110 31 21 59 45 62 53 8 20 99 134 163 205 28 31 61 74 74 96 13 22 28 45
34 50 20 18 66 83 66 93 0 5 6 15 14 21 8 7 18 25 21 41 3 16 14 30 26 33 10
3 19 13 19 22 0 22 49 83 81 100 24 13 28 12 43 -4 18 -20 23 -131 6 -131 -5
0 -10 -11 -10 -24 0 -14 -4 -28 -10 -31 -13 -8 -13 -52 1 -60 6 -5 4 -11 -7
-19 -10 -8 -14 -18 -10 -25 7 -11 17 -197 20 -378 1 -51 6 -87 14 -94 6 -7 12
-31 12 -53 0 -53 40 -106 78 -105 54 2 81 11 87 28 3 10 17 23 31 30 26 11 26
12 9 31 -10 11 -14 20 -9 20 5 0 1 5 -8 11 -10 5 -18 19 -18 30 0 39 -19 59
-56 59 -30 0 -35 4 -40 30 -4 17 -13 30 -21 30 -11 0 -11 5 2 30 19 38 19 87
-1 98 -13 7 -14 15 -3 58 6 27 16 57 21 67 7 13 5 26 -7 43 -14 22 -14 26 0
48 11 16 14 35 9 63 -4 29 -2 47 9 64 9 13 16 33 16 44 0 79 9 183 16 194 4 8
9 62 10 121 1 79 6 113 18 130 12 18 13 27 5 46 -9 19 -8 32 5 58 8 19 19 50
22 69 4 20 15 43 25 52 17 16 17 20 3 68 -8 29 -22 58 -31 65 -9 7 -11 12 -4
12 7 0 12 13 12 30 0 33 -4 33 -92 -10 -50 -24 -48 -24 -48 -5 0 8 -16 19 -39
25 -21 5 -44 17 -51 25 -7 8 -23 15 -35 15 -12 0 -28 7 -35 15 -7 8 -16 12
-21 9 -5 -3 -9 1 -9 8 0 10 -31 20 -96 33 -52 10 -97 22 -100 26 -4 8 -43 14
-144 23 -39 3 -64 0 -85 -11z m270 -153 c3 -4 34 -11 70 -15 62 -6 70 -10 128
-62 33 -30 73 -57 88 -60 20 -4 31 -14 38 -36 17 -48 13 -121 -7 -148 -24 -31
-47 -90 -44 -110 2 -9 -4 -22 -13 -29 -8 -7 -15 -19 -15 -28 0 -9 -10 -26 -22
-39 -21 -22 -25 -38 -27 -99 -1 -15 -9 -24 -26 -28 -14 -4 -43 -30 -65 -59
-22 -28 -46 -59 -53 -67 -34 -41 -67 -92 -67 -105 0 -8 -7 -15 -16 -15 -9 0
-14 -7 -13 -17 4 -21 -21 -63 -37 -63 -6 0 -16 -11 -22 -24 -6 -13 -25 -32
-42 -42 -16 -10 -36 -33 -42 -51 -8 -22 -28 -43 -61 -63 -27 -17 -47 -34 -43
-37 3 -3 -10 -23 -29 -45 -19 -21 -35 -42 -35 -47 0 -5 -9 -11 -20 -14 -11 -3
-24 -16 -29 -30 -7 -17 -20 -27 -41 -32 -21 -5 -30 -11 -26 -21 3 -8 -1 -14
-10 -14 -9 0 -29 -13 -45 -30 -16 -16 -46 -34 -66 -39 -31 -9 -40 -7 -68 15
-18 14 -36 33 -40 42 -12 29 -4 144 11 168 13 20 13 26 -1 59 -11 28 -12 41
-4 51 6 7 8 22 4 33 -4 13 2 25 20 39 20 16 24 24 17 44 -6 14 -4 46 4 83 7
33 13 73 13 89 1 15 12 50 26 78 14 27 25 63 25 79 0 16 4 37 9 47 14 26 44
163 37 170 -4 3 4 17 16 30 14 15 19 26 12 29 -16 5 57 209 93 264 16 23 32
50 38 60 5 11 20 19 32 19 13 0 23 5 23 10 0 6 7 10 15 10 8 0 15 6 15 13 0
26 81 46 188 45 56 -1 105 -4 107 -8z"/>
<path d="M5513 11670 c-12 -5 -28 -18 -35 -30 -7 -11 -21 -20 -30 -20 -10 0
-36 -17 -59 -37 -84 -79 -129 -125 -129 -134 0 -5 -7 -9 -15 -9 -8 0 -15 -7
-15 -16 0 -10 -16 -41 -36 -71 -19 -29 -45 -77 -56 -106 -12 -28 -27 -59 -35
-68 -7 -8 -13 -25 -13 -36 0 -12 -7 -24 -16 -27 -25 -10 -82 -7 -89 4 -23 37
-32 -43 -15 -130 6 -32 4 -52 -5 -71 -12 -22 -12 -28 2 -42 15 -15 15 -18 1
-34 -13 -14 -15 -27 -8 -63 7 -38 4 -53 -16 -96 -13 -28 -24 -62 -23 -75 0
-13 -5 -64 -11 -114 -27 -210 -27 -239 0 -355 14 -59 32 -116 41 -127 9 -10
20 -28 23 -39 4 -12 20 -27 36 -34 23 -10 30 -19 30 -41 0 -19 8 -34 24 -45
26 -16 111 -43 161 -51 96 -13 115 -14 132 -4 14 7 23 7 31 -1 9 -9 16 -7 30
5 10 9 33 17 50 17 17 0 34 5 37 10 3 6 19 10 35 10 19 0 33 7 41 21 7 14 17
19 30 16 14 -4 21 1 25 16 6 24 87 82 129 93 17 4 33 20 46 45 10 22 25 39 32
39 7 0 23 19 35 43 12 23 31 58 43 77 22 35 22 66 0 99 -11 16 -51 -2 -51 -24
0 -19 -58 -85 -75 -85 -7 0 -31 -18 -53 -40 -22 -22 -56 -47 -76 -55 -20 -8
-36 -20 -36 -25 0 -6 -9 -10 -19 -10 -11 0 -26 -8 -33 -18 -7 -9 -33 -30 -57
-46 -35 -23 -59 -29 -120 -33 -91 -7 -239 11 -255 30 -6 8 -33 26 -59 41 -38
22 -53 38 -73 82 -29 65 -45 213 -25 238 9 10 9 30 2 77 -8 50 -8 66 3 78 7 9
17 34 21 56 4 22 11 46 17 53 6 7 14 32 19 57 17 90 61 117 132 80 25 -13 32
-13 57 0 16 8 42 15 58 15 17 0 47 13 71 31 24 17 49 28 57 25 15 -6 177 99
230 149 19 18 34 42 34 54 0 12 18 44 39 71 22 27 47 72 56 100 9 27 20 52 25
55 14 9 9 217 -6 250 -34 70 -48 88 -79 101 -19 7 -40 22 -47 31 -19 25 -55
44 -72 37 -8 -3 -17 -1 -21 5 -7 13 -41 13 -72 1z m157 -161 c34 -10 38 -16
49 -61 17 -74 14 -93 -24 -167 -19 -37 -35 -72 -35 -77 0 -20 -98 -114 -119
-114 -13 0 -26 -9 -33 -25 -6 -14 -17 -25 -24 -25 -7 0 -19 -8 -26 -17 -14
-20 -80 -53 -103 -53 -9 0 -23 -4 -33 -9 -102 -55 -164 -62 -177 -20 -4 10
-11 19 -16 19 -16 0 -10 14 36 95 24 43 47 91 50 107 4 16 13 32 21 35 8 3 24
24 36 47 11 22 36 62 54 87 18 25 38 58 43 72 6 15 22 32 35 37 13 5 27 14 31
19 3 6 26 16 50 22 25 6 50 17 56 25 14 17 78 18 129 3z"/>
<path d="M7060 11610 c-25 -10 -56 -16 -71 -13 -19 3 -36 -5 -70 -33 -24 -20
-58 -43 -76 -50 -18 -8 -37 -23 -43 -33 -6 -11 -35 -27 -67 -38 -50 -15 -61
-24 -79 -58 -11 -22 -34 -54 -50 -70 -16 -17 -37 -44 -46 -60 -10 -17 -42 -64
-72 -105 -84 -116 -129 -205 -136 -275 -4 -34 -19 -91 -34 -129 -15 -37 -31
-100 -35 -139 -5 -40 -14 -84 -20 -100 -26 -67 -32 -155 -16 -253 17 -107 38
-150 112 -232 38 -42 58 -56 92 -63 29 -6 48 -6 54 0 5 5 23 7 38 4 39 -7 116
13 161 43 21 13 45 24 54 24 16 0 44 19 112 76 20 17 61 43 89 59 29 15 59 38
68 51 8 12 57 57 110 99 52 42 123 108 157 147 35 39 82 84 106 100 23 16 58
55 78 86 20 31 47 68 60 82 12 14 30 42 39 62 10 25 24 40 40 44 20 5 24 11
19 28 -6 26 26 59 52 54 29 -5 66 -130 61 -208 -2 -44 1 -76 12 -100 16 -37
26 -117 40 -325 4 -71 13 -141 18 -154 7 -17 6 -35 -3 -60 -7 -20 -13 -74 -14
-121 0 -81 -39 -290 -61 -332 -5 -9 -9 -27 -9 -40 0 -13 -11 -41 -25 -63 -13
-22 -25 -51 -25 -65 0 -14 -7 -33 -15 -44 -14 -18 -18 -18 -122 17 -284 94
-528 108 -722 42 -80 -27 -124 -51 -189 -103 -40 -32 -46 -34 -96 -28 -29 4
-64 2 -79 -3 -25 -10 -26 -13 -23 -76 4 -80 24 -106 131 -164 38 -22 81 -51
94 -65 15 -16 36 -27 55 -27 17 -1 -14 -6 -69 -10 -120 -10 -304 -55 -397 -98
-87 -39 -164 -110 -179 -164 -12 -45 -9 -64 27 -159 36 -95 112 -164 259 -234
382 -184 955 -268 1523 -224 79 6 130 6 142 0 36 -19 30 -141 -11 -229 -13
-25 -52 -75 -88 -111 -79 -78 -182 -135 -350 -192 -147 -50 -161 -53 -161 -38
0 26 -77 137 -144 208 -150 158 -366 266 -656 326 -334 71 -526 52 -579 -58
-26 -53 -26 -71 0 -148 32 -92 62 -147 110 -202 37 -41 68 -61 184 -117 157
-76 330 -137 486 -171 90 -20 132 -23 317 -23 134 0 212 -4 212 -10 0 -5 -13
-33 -29 -60 -55 -96 -150 -161 -278 -191 -152 -36 -410 0 -638 88 -88 35 -104
35 -105 2 0 -6 26 -23 58 -37 53 -24 55 -25 19 -20 -36 6 -39 4 -35 -18 2 -20
18 -30 87 -58 208 -83 461 -120 628 -92 137 24 264 104 333 211 23 36 90 197
90 217 0 7 86 44 160 68 118 39 184 70 262 121 171 114 259 285 230 450 -15
87 -7 98 80 118 103 23 226 86 295 150 135 124 146 258 40 460 -84 159 -337
357 -682 533 -60 30 -111 56 -112 57 -6 4 39 132 51 146 19 22 28 68 15 72 -8
3 -6 15 6 37 40 79 84 567 55 621 -6 11 -6 21 -1 24 5 3 7 14 4 24 -2 10 3 49
12 87 17 76 8 162 -21 185 -16 14 -18 48 -5 82 6 16 3 52 -9 110 -10 47 -15
97 -13 111 3 16 -1 32 -11 42 -18 18 -21 51 -6 60 16 10 12 45 -10 74 -14 20
-18 38 -14 63 4 25 0 47 -16 77 -12 24 -19 49 -16 56 2 7 -9 61 -25 119 -16
59 -27 117 -23 130 4 17 -1 27 -21 40 -14 9 -31 28 -37 41 -14 32 -37 39 -60
18 -15 -13 -17 -25 -13 -57 4 -23 2 -54 -4 -69 -9 -23 -7 -34 14 -67 14 -21
34 -74 45 -116 18 -64 19 -78 7 -88 -8 -6 -26 -47 -42 -91 -15 -44 -38 -101
-51 -127 -13 -26 -24 -56 -24 -66 0 -11 -16 -37 -36 -58 -20 -22 -44 -56 -55
-76 -12 -23 -27 -38 -38 -38 -16 0 -31 -21 -45 -62 -3 -10 -12 -18 -20 -18 -8
0 -17 -8 -21 -19 -3 -10 -12 -18 -19 -17 -7 0 -32 -23 -55 -51 -22 -29 -56
-60 -73 -69 -18 -9 -40 -27 -50 -39 -9 -12 -31 -28 -48 -35 -16 -7 -36 -24
-43 -38 -6 -14 -34 -37 -62 -51 -78 -41 -140 -87 -174 -130 -28 -35 -38 -40
-98 -51 -36 -6 -79 -18 -95 -26 -52 -27 -208 -18 -208 11 0 7 -7 18 -15 25
-54 45 -77 205 -44 312 10 35 19 81 19 104 0 27 6 47 18 58 11 9 27 51 37 98
12 49 28 92 42 109 14 16 23 40 23 59 0 19 14 55 34 89 19 31 37 68 41 82 4
15 19 36 35 47 16 12 41 44 56 72 16 30 34 50 45 50 9 0 19 7 23 15 3 8 12 15
21 15 8 0 15 6 15 14 0 20 69 85 102 98 15 5 34 20 43 34 11 18 24 24 51 24
22 0 37 6 40 15 4 9 11 14 18 13 6 -1 31 8 55 21 42 22 76 24 156 8 44 -8 103
-48 128 -86 22 -32 33 -41 56 -41 24 0 31 6 40 31 6 18 11 39 11 48 0 22 -136
152 -180 173 -55 26 -147 29 -200 8z m281 -2179 c111 -25 279 -81 279 -93 0
-5 -7 -5 -17 1 -31 16 -213 62 -302 77 -232 38 -463 -1 -602 -101 -47 -33 -79
-44 -79 -27 0 15 96 81 162 112 105 49 173 60 333 55 87 -3 172 -12 226 -24z
m-6 -77 c88 -17 216 -52 227 -63 4 -4 -18 -32 -50 -63 -46 -45 -71 -60 -127
-79 -38 -13 -81 -29 -95 -36 -14 -7 -38 -13 -55 -13 -16 0 -59 -7 -95 -15 -73
-17 -208 -19 -227 -4 -7 6 -17 8 -23 4 -15 -9 -210 57 -210 71 0 7 -7 14 -15
18 -67 25 135 159 280 185 33 6 71 13 85 15 42 8 219 -4 305 -20z m535 -196
c251 -133 415 -244 535 -363 124 -124 148 -191 101 -290 -52 -113 -235 -223
-396 -239 l-65 -6 -35 62 c-48 87 -221 259 -335 335 -178 118 -357 201 -553
257 l-113 33 91 6 c50 3 104 13 121 21 17 8 58 21 92 27 34 7 77 23 97 37 19
13 55 34 80 47 25 13 79 55 120 93 l75 70 35 -15 c19 -7 87 -41 150 -75z
m-1077 -175 c-7 -2 -21 -2 -30 0 -10 3 -4 5 12 5 17 0 24 -2 18 -5z m152 -72
c50 -11 122 -29 160 -40 73 -22 257 -92 253 -97 -2 -1 -62 17 -133 41 -178 60
-304 85 -466 92 -116 5 -150 3 -239 -16 -180 -39 -292 -87 -371 -158 l-39 -35
11 31 c23 65 145 133 316 175 54 14 107 27 118 30 46 12 303 -4 390 -23z m-6
-77 c247 -43 515 -151 731 -295 98 -65 290 -245 290 -272 0 -22 -37 -26 -315
-33 -337 -9 -567 11 -845 72 -336 74 -650 226 -650 315 0 85 208 192 445 229
74 11 230 4 344 -16z m1592 -412 c-60 -118 -324 -256 -436 -228 -39 10 -26 17
62 32 114 20 247 89 326 169 34 35 63 64 65 64 1 1 -6 -16 -17 -37z m-2111
-52 c8 -5 11 -10 5 -10 -5 0 -17 5 -25 10 -8 5 -10 10 -5 10 6 0 17 -5 25 -10z
m130 -46 c325 -108 769 -158 1199 -135 122 7 226 10 229 6 25 -25 -130 -39
-428 -38 -295 1 -546 29 -782 89 -116 29 -273 80 -308 101 -27 16 -29 16 90
-23z m20 -289 c129 -27 281 -74 328 -101 15 -8 18 -12 7 -8 -163 59 -376 103
-537 111 -130 7 -212 -8 -269 -49 -28 -20 -39 -24 -39 -14 0 29 46 68 95 82
72 20 260 11 415 -21z m-40 -71 c335 -52 605 -182 763 -369 31 -38 56 -73 54
-79 -14 -44 -397 -46 -579 -3 -163 39 -319 95 -463 167 -113 57 -135 71 -167
115 -55 73 -50 128 15 161 65 34 187 37 377 8z m1493 -175 c-62 -114 -214
-218 -419 -284 -107 -35 -154 -43 -154 -26 0 8 38 23 195 76 149 50 294 144
363 236 20 27 38 49 40 49 2 0 -9 -23 -25 -51z m-1472 -264 c239 -81 513 -112
714 -82 55 9 101 14 103 12 9 -9 -12 -25 -46 -35 -110 -31 -350 -21 -537 22
-116 27 -377 116 -344 118 3 0 52 -16 110 -35z m793 -305 c-51 -94 -138 -160
-259 -196 -78 -24 -268 -23 -380 1 -86 18 -299 84 -293 90 2 3 33 -4 69 -15
392 -120 690 -78 842 117 23 29 43 53 45 53 2 0 -9 -23 -24 -50z"/>
<path d="M17307 11585 c-21 -8 -65 -19 -98 -25 -32 -6 -108 -32 -167 -57 -109
-46 -187 -100 -212 -147 -7 -14 -19 -26 -25 -26 -6 0 -17 -10 -24 -23 -6 -12
-25 -31 -41 -42 -35 -24 -46 -45 -60 -126 -15 -80 -4 -205 20 -239 10 -14 29
-52 42 -85 20 -50 34 -67 86 -107 48 -36 74 -48 115 -53 28 -4 61 -15 72 -26
11 -10 46 -30 78 -44 32 -14 71 -35 87 -46 15 -12 41 -22 56 -23 16 -1 39 -7
51 -14 12 -7 29 -12 38 -12 9 0 30 -7 47 -16 17 -9 54 -18 81 -19 27 -1 54 -8
60 -14 6 -6 18 -11 26 -11 8 0 30 -12 50 -27 20 -16 41 -28 46 -29 22 -2 45
-17 45 -29 0 -8 11 -22 25 -33 16 -13 23 -26 19 -36 -3 -9 0 -23 7 -32 19 -23
-21 -56 -106 -88 -38 -15 -78 -31 -87 -36 -10 -6 -23 -10 -30 -10 -6 0 -19 -6
-27 -14 -24 -20 -201 -44 -431 -56 -113 -7 -210 -16 -216 -21 -7 -6 -16 -4
-24 6 -6 8 -28 17 -49 21 -64 10 -71 14 -71 39 0 13 -4 27 -10 30 -5 3 -10 17
-10 30 0 27 -17 36 -42 23 -12 -5 -18 -5 -18 2 0 5 -7 10 -15 10 -8 0 -15 6
-16 13 0 6 -7 -3 -15 -20 -12 -28 -19 -33 -50 -33 l-36 0 7 -42 c12 -73 40
-113 85 -123 16 -3 34 -13 40 -20 9 -11 27 -13 68 -9 32 2 89 0 127 -6 39 -6
90 -12 115 -15 25 -2 64 -6 88 -8 23 -3 44 -1 47 4 3 4 15 5 26 0 12 -4 44 -4
72 0 29 4 96 8 150 8 76 1 102 5 115 17 11 11 27 15 52 11 24 -3 50 2 75 14
21 11 54 19 72 19 26 0 41 8 60 30 13 17 33 30 43 30 30 0 76 55 115 135 31
64 34 77 23 95 -7 11 -16 20 -19 20 -4 0 -5 9 -2 20 4 14 0 20 -11 20 -9 0
-21 10 -27 23 -16 38 -58 90 -87 109 -15 10 -46 18 -69 18 -26 0 -48 6 -59 17
-24 25 -112 63 -144 63 -15 0 -32 6 -38 13 -6 7 -46 24 -89 37 -43 13 -85 29
-93 36 -8 6 -35 14 -58 17 -24 3 -54 15 -66 26 -15 14 -36 21 -63 21 -26 0
-46 6 -57 19 -9 10 -46 33 -82 52 -37 18 -69 39 -72 47 -3 8 -15 25 -27 38
-39 42 -49 105 -29 191 15 61 23 77 45 90 15 9 33 27 40 40 18 34 101 109 129
118 14 4 39 16 56 26 17 11 38 19 45 19 8 0 34 10 59 22 25 12 56 27 70 33 14
7 39 15 55 19 17 4 44 14 62 23 30 16 33 16 52 -1 14 -13 41 -19 88 -22 49 -3
71 -9 78 -20 6 -9 20 -28 31 -43 30 -35 50 -17 59 56 6 50 4 59 -13 73 -11 9
-21 25 -23 35 -2 10 -11 21 -19 25 -8 4 -26 12 -39 19 -37 20 -189 24 -234 6z"/>
<path d="M10750 11551 c-5 -11 -10 -25 -10 -32 0 -7 -8 -21 -17 -31 -19 -21
-24 -93 -9 -123 5 -11 9 -60 8 -110 -1 -51 6 -138 16 -202 12 -75 15 -116 9
-122 -7 -7 -7 -25 -1 -53 6 -26 7 -57 2 -76 -6 -23 -4 -50 7 -87 18 -63 20
-197 3 -259 -10 -38 -9 -54 5 -100 18 -55 21 -156 5 -156 -13 0 -9 -29 8 -56
15 -23 15 -26 0 -43 -15 -17 -16 -24 -5 -60 8 -29 9 -48 2 -63 -8 -17 -6 -34
8 -66 16 -37 17 -46 5 -65 -23 -37 -27 -73 -11 -87 8 -7 12 -16 10 -20 -3 -5
-9 -30 -14 -56 -8 -40 -6 -50 7 -60 16 -12 15 -17 -5 -75 -17 -49 -19 -68 -11
-84 17 -30 9 -121 -16 -190 -16 -45 -20 -68 -14 -87 6 -18 4 -38 -6 -62 -8
-20 -11 -36 -6 -36 5 0 5 -11 -2 -25 -6 -13 -15 -22 -21 -18 -6 4 -8 -4 -5
-20 3 -15 1 -24 -3 -21 -5 3 -9 -6 -9 -20 0 -15 -6 -26 -13 -26 -19 0 -44 -30
-52 -62 -4 -16 -13 -28 -20 -28 -8 0 -22 -11 -33 -25 -12 -15 -30 -25 -46 -25
-14 0 -35 -9 -46 -20 -19 -19 -127 -44 -153 -35 -7 3 -25 10 -42 16 -40 16
-56 20 -83 23 -12 1 -28 8 -34 14 -7 7 -18 12 -25 12 -7 0 -13 5 -13 10 0 6
-11 10 -25 10 -14 0 -28 7 -32 15 -3 9 -18 22 -34 30 -15 8 -39 26 -53 40 -14
14 -35 25 -46 25 -12 0 -19 4 -16 8 2 4 -22 25 -55 47 -32 21 -59 45 -59 52 0
8 -22 36 -50 64 -27 27 -50 53 -50 57 0 12 -90 122 -100 122 -6 0 -10 -11 -10
-25 0 -14 5 -25 10 -25 6 0 21 -21 33 -47 22 -48 35 -64 112 -146 22 -23 47
-57 54 -74 7 -19 32 -45 57 -62 25 -16 54 -41 65 -54 10 -14 55 -47 99 -73 44
-26 85 -53 91 -60 6 -8 23 -14 36 -14 25 0 36 -5 121 -49 45 -23 122 -36 122
-21 0 5 16 6 35 3 19 -3 42 -2 52 2 10 5 23 9 28 10 6 0 23 6 38 13 16 7 30
12 32 12 2 0 17 14 34 31 17 17 35 28 41 24 5 -3 15 5 22 19 6 14 19 26 30 26
10 0 18 6 18 13 0 8 9 22 21 33 23 20 59 85 59 105 0 7 12 37 26 66 24 52 33
105 51 293 7 82 7 91 -1 290 -4 102 -2 194 5 240 6 41 13 129 16 196 4 100 3
125 -10 145 -14 21 -15 36 -5 115 10 76 9 110 -6 216 -16 117 -16 128 -1 158
14 27 14 34 3 48 -10 13 -12 66 -10 242 1 124 2 285 2 358 -1 89 2 132 9 132
23 0 10 36 -19 52 -17 9 -30 24 -30 32 0 9 -6 13 -14 10 -7 -3 -16 2 -19 10
-9 22 -34 20 -47 -3z"/>
<path d="M26147 11563 c-4 -3 -7 -18 -7 -33 0 -22 -6 -29 -39 -38 -21 -7 -59
-12 -85 -12 -32 0 -48 -5 -52 -15 -4 -8 -15 -15 -25 -15 -26 0 -119 -47 -125
-63 -2 -7 -22 -13 -43 -13 -20 -1 -55 -7 -75 -14 -32 -10 -37 -16 -32 -35 4
-15 -1 -28 -14 -40 -28 -25 -25 -49 11 -79 35 -30 49 -33 49 -11 0 12 4 13 19
5 29 -15 36 -13 51 15 10 18 19 23 35 19 13 -3 27 2 39 15 11 12 29 21 42 21
12 0 24 4 26 9 2 5 21 11 43 12 22 2 51 11 65 21 18 13 35 16 63 12 31 -6 37
-11 37 -31 0 -13 5 -33 10 -44 6 -11 12 -132 14 -298 2 -153 7 -284 11 -291 7
-11 -3 -22 -30 -34 -6 -3 -4 -9 5 -15 10 -7 14 -25 12 -60 -1 -28 2 -51 7 -51
5 0 9 -11 9 -24 0 -18 -5 -23 -16 -19 -10 4 -13 2 -8 -5 4 -7 1 -15 -8 -18
-16 -6 -14 -9 23 -50 12 -14 12 -17 0 -25 -8 -5 -17 -9 -22 -9 -4 0 -1 -10 7
-23 12 -18 13 -35 6 -87 -10 -70 -8 -359 3 -376 3 -6 0 -35 -8 -65 -21 -78
-19 -104 10 -127 21 -17 23 -21 9 -26 -13 -5 -15 -15 -11 -42 4 -21 1 -50 -7
-68 -10 -24 -10 -39 -1 -71 9 -31 9 -46 -1 -65 -9 -20 -10 -35 -1 -68 9 -34 9
-47 -2 -64 -9 -15 -11 -37 -5 -82 11 -80 5 -164 -13 -200 -12 -22 -13 -46 -7
-110 4 -44 6 -97 5 -117 -2 -34 0 -37 29 -41 18 -3 35 1 41 9 7 7 13 83 16
185 4 106 10 183 18 198 7 14 10 41 8 61 -3 21 0 40 6 43 17 11 14 56 -4 56
-18 0 -18 4 -4 53 7 27 7 48 -1 73 -10 28 -9 39 3 57 11 17 14 63 13 220 -1
132 3 202 10 208 7 5 10 51 9 121 -1 127 4 143 41 126 17 -8 34 -8 59 -1 27 9
37 8 46 -4 8 -9 27 -13 53 -12 23 1 52 -3 65 -10 13 -8 37 -10 56 -7 17 4 63
2 101 -3 45 -7 72 -7 80 0 9 7 25 4 55 -11 29 -15 44 -18 49 -11 3 7 13 9 22
6 8 -3 35 1 59 9 24 9 52 16 62 16 11 0 35 16 55 36 20 20 46 40 59 45 13 5
23 17 23 27 0 10 9 27 21 38 12 11 18 26 15 37 -3 11 2 29 9 41 12 17 12 29 3
58 -8 26 -8 44 1 69 8 25 8 34 0 40 -8 5 -10 23 -5 58 5 37 2 60 -10 88 -9 21
-16 49 -15 62 0 14 -6 35 -14 47 -8 13 -15 32 -15 43 0 11 -11 37 -25 57 -14
20 -25 45 -25 55 0 11 -6 19 -14 19 -8 0 -17 13 -21 29 -3 16 -13 35 -21 42
-8 6 -14 20 -14 30 0 11 -4 19 -8 19 -5 0 -17 18 -27 40 -10 22 -26 42 -36 45
-10 3 -21 14 -24 24 -8 27 -48 67 -73 76 -12 3 -22 10 -22 15 0 4 -20 20 -44
34 -25 14 -56 40 -69 58 -14 17 -33 32 -44 33 -36 3 -63 17 -63 32 0 10 -6 13
-16 9 -9 -4 -22 -2 -28 3 -6 5 -27 14 -46 19 -19 6 -64 23 -99 37 -42 18 -74
25 -92 21 -16 -3 -31 -1 -35 6 -4 7 -10 5 -16 -6 -8 -15 -11 -15 -33 0 -14 9
-34 31 -46 50 -20 32 -38 42 -52 27z m242 -248 c24 -2 47 -8 51 -14 3 -7 14
-9 23 -5 10 3 17 1 17 -6 0 -6 8 -10 18 -9 9 2 43 -1 74 -5 45 -6 58 -12 63
-27 4 -12 13 -18 21 -15 8 3 25 -9 40 -30 15 -20 33 -33 41 -30 23 9 51 -8 83
-52 17 -23 42 -48 55 -54 14 -6 29 -26 36 -47 7 -20 26 -52 42 -71 35 -40 115
-205 130 -265 21 -92 27 -256 9 -278 -7 -8 -10 -27 -6 -45 5 -24 2 -32 -15
-41 -12 -7 -21 -21 -21 -32 0 -12 -5 -19 -12 -16 -7 2 -17 -2 -23 -8 -16 -19
-152 -58 -181 -52 -15 3 -39 1 -54 -5 -17 -5 -50 -5 -90 1 -35 6 -67 8 -73 4
-5 -3 -36 -7 -69 -8 -46 -1 -62 3 -75 18 -16 17 -18 17 -30 1 -7 -10 -13 -12
-13 -6 0 8 -24 12 -74 12 l-75 0 -5 43 c-16 132 -16 158 0 182 12 18 13 29 5
43 -8 15 -7 23 5 33 14 12 14 14 -1 26 -13 9 -16 21 -12 45 3 21 0 41 -9 52
-7 11 -11 23 -7 29 3 5 8 44 10 86 2 42 5 101 7 131 1 30 8 68 15 84 9 23 9
31 -3 40 -26 21 -43 97 -34 150 6 31 5 60 -2 79 -8 24 -7 35 6 55 14 21 21 23
52 17 21 -4 57 -9 81 -10z"/>
<path d="M25300 11540 c-36 -3 -72 -10 -80 -16 -8 -5 -40 -9 -70 -10 -206 -2
-240 -4 -240 -18 0 -21 -58 -26 -354 -32 -317 -6 -324 -7 -396 -2 -30 2 -88 5
-128 6 -63 2 -75 5 -79 21 -4 15 -18 19 -80 25 -50 4 -82 2 -96 -6 -12 -7 -32
-11 -45 -9 -13 1 -32 -5 -42 -14 -15 -14 -17 -22 -8 -47 13 -35 46 -50 96 -42
22 3 64 -1 102 -11 66 -18 138 -23 375 -30 72 -1 139 -4 150 -4 79 -6 217 2
257 15 36 12 52 13 68 4 11 -6 25 -8 31 -5 5 4 55 9 110 11 74 3 111 10 139
24 47 24 93 26 114 4 23 -23 20 -34 -14 -47 -16 -6 -30 -17 -30 -24 0 -26 -52
-108 -80 -126 -16 -10 -43 -43 -60 -73 -18 -30 -40 -59 -51 -64 -10 -6 -21
-21 -25 -34 -3 -13 -19 -33 -35 -45 -16 -12 -29 -27 -29 -33 0 -6 -24 -35 -52
-64 -89 -87 -128 -131 -128 -142 0 -5 -11 -13 -26 -16 -14 -4 -34 -22 -45 -40
-11 -19 -26 -37 -33 -39 -8 -3 -19 -22 -26 -41 -8 -27 -17 -36 -33 -36 -26 0
-59 -33 -82 -82 -12 -23 -30 -41 -55 -52 -21 -9 -50 -34 -65 -55 -41 -61 -97
-117 -133 -135 -18 -9 -35 -23 -38 -31 -3 -8 -14 -17 -24 -20 -10 -3 -23 -18
-29 -34 -7 -15 -30 -39 -53 -52 -22 -13 -49 -33 -59 -44 -10 -11 -37 -39 -59
-63 -30 -32 -40 -51 -40 -75 0 -37 16 -64 42 -69 27 -5 97 44 98 68 0 25 17
31 132 44 61 7 87 6 120 -6 23 -8 49 -12 58 -9 51 20 112 23 167 9 32 -9 74
-13 93 -10 19 3 87 1 150 -5 74 -7 133 -8 166 -2 37 7 55 6 70 -3 12 -8 31
-10 54 -5 19 4 50 3 67 -3 21 -6 40 -6 55 1 15 6 52 5 117 -4 112 -15 178 -9
186 17 3 10 19 23 34 28 16 6 32 21 36 34 5 12 27 46 51 74 37 43 44 58 44 93
0 46 -21 95 -44 104 -16 7 -26 -12 -26 -52 0 -15 -9 -36 -20 -46 -11 -10 -20
-23 -20 -30 0 -17 -51 -62 -96 -86 -31 -16 -61 -21 -144 -23 -58 -2 -115 1
-127 7 -17 7 -29 5 -56 -12 -30 -18 -36 -19 -47 -6 -7 8 -29 14 -53 14 -23 0
-76 6 -119 15 -59 11 -97 13 -173 6 -66 -7 -103 -6 -117 1 -11 6 -66 10 -126
9 -80 -2 -116 2 -144 14 -21 9 -41 16 -46 16 -5 0 -16 8 -25 18 -16 17 -15 20
15 43 17 13 47 42 67 64 20 22 59 64 88 92 29 29 59 65 67 80 8 16 33 46 55
68 23 21 41 45 41 52 0 7 6 13 14 13 8 0 29 18 46 40 17 22 42 43 55 46 14 3
54 46 101 110 44 57 87 107 96 110 9 2 30 26 47 52 17 26 44 61 61 77 16 16
30 35 30 43 0 30 41 80 88 105 33 18 62 46 91 87 25 35 50 60 60 60 10 0 44
27 75 60 32 33 60 60 64 60 4 0 30 16 58 35 55 38 60 58 26 98 -16 18 -19 18
-122 7z"/>
<path d="M23076 11518 c-11 -6 -48 -8 -88 -6 -90 7 -119 -5 -144 -56 -21 -43
-81 -86 -122 -86 -20 0 -22 -3 -16 -39 7 -44 -7 -77 -37 -86 -13 -5 -18 -12
-14 -22 3 -10 -3 -22 -15 -30 -30 -21 -54 -73 -51 -115 1 -31 -3 -39 -30 -55
-31 -18 -31 -19 -26 -79 5 -49 2 -68 -14 -98 -14 -28 -20 -57 -20 -109 0 -75
-11 -107 -34 -107 -8 0 -19 -17 -25 -42 -6 -24 -17 -55 -26 -71 -10 -17 -15
-50 -14 -90 1 -34 -2 -80 -5 -102 -4 -23 -3 -57 3 -76 7 -26 6 -42 -3 -59 -11
-20 -9 -33 16 -92 19 -47 26 -75 20 -90 -6 -17 3 -35 42 -87 52 -69 67 -78
130 -80 21 -1 53 -7 72 -15 23 -10 35 -11 37 -4 3 7 12 7 28 -2 20 -11 25 -10
39 7 23 28 113 78 134 74 10 -1 29 5 42 13 13 9 31 16 40 16 27 0 72 28 78 49
3 12 20 24 47 32 27 8 52 25 69 47 14 18 38 40 53 48 15 7 28 24 30 36 2 13
15 29 31 36 16 8 35 29 43 48 8 18 23 38 34 44 11 6 23 22 26 36 3 13 15 29
25 35 11 5 19 15 19 22 0 7 16 44 35 83 19 38 38 85 41 104 3 19 12 51 20 71
13 30 19 78 26 229 7 117 -106 417 -162 435 -11 3 -22 15 -25 25 -11 35 -135
150 -161 150 -13 0 -38 9 -56 20 -18 11 -41 20 -50 20 -9 0 -18 6 -20 14 -2
12 -7 12 -22 4z m86 -148 c90 -43 126 -71 130 -100 2 -15 11 -26 23 -28 36 -7
45 -21 32 -49 -9 -21 -8 -27 6 -38 9 -7 17 -19 17 -28 0 -9 8 -22 18 -29 35
-26 52 -62 52 -113 0 -47 14 -103 34 -134 5 -8 4 -16 -4 -21 -9 -5 -9 -9 -1
-14 14 -9 14 -53 0 -62 -7 -4 -7 -10 -1 -16 6 -6 5 -24 -3 -51 -6 -23 -9 -53
-5 -67 4 -14 3 -33 -2 -42 -6 -12 -5 -18 2 -18 6 0 2 -12 -9 -26 -12 -15 -21
-33 -21 -40 0 -7 -9 -16 -20 -19 -11 -3 -20 -14 -20 -22 0 -38 -35 -125 -55
-135 -24 -13 -165 -156 -165 -169 0 -5 -14 -9 -31 -9 -32 0 -56 -21 -84 -72
-9 -16 -22 -28 -31 -28 -8 0 -17 -6 -20 -14 -4 -11 -13 -12 -35 -6 -22 6 -29
5 -29 -5 0 -16 -22 -25 -65 -25 -19 0 -35 -6 -38 -14 -4 -10 -29 -16 -84 -20
-43 -3 -91 -6 -108 -7 -39 -4 -103 37 -137 87 -27 39 -27 39 -23 196 3 119 8
164 20 188 9 17 18 60 20 95 2 37 10 74 19 87 9 12 16 31 16 41 0 10 9 30 20
44 12 16 20 41 20 65 0 32 5 42 28 55 27 15 28 20 24 69 -4 46 -2 55 22 75 18
16 28 36 32 71 5 33 14 54 29 66 12 10 25 27 29 37 9 30 121 95 162 95 l34 0
0 80 c0 92 6 99 87 100 37 0 69 -8 115 -30z"/>
<path d="M28276 11518 c-11 -6 -48 -8 -88 -6 -90 7 -119 -5 -144 -56 -21 -43
-81 -86 -122 -86 -20 0 -22 -3 -16 -39 7 -44 -7 -77 -37 -86 -13 -5 -18 -12
-14 -22 3 -10 -3 -22 -15 -30 -30 -21 -54 -73 -51 -115 1 -31 -3 -39 -30 -55
-31 -18 -31 -19 -26 -79 5 -49 2 -68 -14 -98 -14 -28 -20 -57 -20 -109 0 -75
-11 -107 -34 -107 -8 0 -19 -17 -25 -42 -6 -24 -17 -55 -26 -71 -10 -17 -15
-50 -14 -90 1 -34 -2 -80 -5 -102 -4 -23 -3 -57 3 -76 7 -26 6 -42 -3 -59 -11
-20 -9 -33 16 -92 19 -47 26 -75 20 -90 -6 -17 3 -35 42 -87 52 -69 67 -78
130 -80 21 -1 53 -7 72 -15 23 -10 35 -11 37 -4 3 7 12 7 28 -2 20 -11 25 -10
39 7 23 28 113 78 134 74 10 -1 29 5 42 13 13 9 31 16 40 16 27 0 72 28 78 49
3 12 20 24 47 32 27 8 52 25 69 47 14 18 38 40 53 48 15 7 28 24 30 36 2 13
15 29 31 36 16 8 35 29 43 48 8 18 23 38 34 44 11 6 23 22 26 36 3 13 15 29
25 35 11 5 19 15 19 22 0 7 16 44 35 83 19 38 38 85 41 104 3 19 12 51 20 71
13 30 19 78 26 229 7 117 -106 417 -162 435 -11 3 -22 15 -25 25 -11 35 -135
150 -161 150 -13 0 -38 9 -56 20 -18 11 -41 20 -50 20 -9 0 -18 6 -20 14 -2
12 -7 12 -22 4z m86 -148 c90 -43 126 -71 130 -100 2 -15 11 -26 23 -28 36 -7
45 -21 32 -49 -9 -21 -8 -27 6 -38 9 -7 17 -19 17 -28 0 -9 8 -22 18 -29 35
-26 52 -62 52 -113 0 -47 14 -103 34 -134 5 -8 4 -16 -4 -21 -9 -5 -9 -9 -1
-14 14 -9 14 -53 0 -62 -7 -4 -7 -10 -1 -16 6 -6 5 -24 -3 -51 -6 -23 -9 -53
-5 -67 4 -14 3 -33 -2 -42 -6 -12 -5 -18 2 -18 6 0 2 -12 -9 -26 -12 -15 -21
-33 -21 -40 0 -7 -9 -16 -20 -19 -11 -3 -20 -14 -20 -22 0 -38 -35 -125 -55
-135 -24 -13 -165 -156 -165 -169 0 -5 -14 -9 -31 -9 -32 0 -56 -21 -84 -72
-9 -16 -22 -28 -31 -28 -8 0 -17 -6 -20 -14 -4 -11 -13 -12 -35 -6 -22 6 -29
5 -29 -5 0 -16 -22 -25 -65 -25 -19 0 -35 -6 -38 -14 -4 -10 -29 -16 -84 -20
-43 -3 -91 -6 -108 -7 -39 -4 -103 37 -137 87 -27 39 -27 39 -23 196 3 119 8
164 20 188 9 17 18 60 20 95 2 37 10 74 19 87 9 12 16 31 16 41 0 10 9 30 20
44 12 16 20 41 20 65 0 32 5 42 28 55 27 15 28 20 24 69 -4 46 -2 55 22 75 18
16 28 36 32 71 5 33 14 54 29 66 12 10 25 27 29 37 9 30 121 95 162 95 l34 0
0 80 c0 92 6 99 87 100 37 0 69 -8 115 -30z"/>
<path d="M8536 11448 c-14 -22 -14 -31 -1 -94 20 -93 19 -157 -5 -294 -17
-100 -18 -126 -8 -207 8 -68 8 -99 0 -117 -7 -17 -8 -36 -2 -57 7 -24 5 -41
-7 -66 -12 -26 -13 -37 -4 -42 8 -6 7 -37 -6 -129 -16 -118 -16 -122 2 -142
15 -17 17 -25 8 -40 -16 -25 4 -80 29 -80 21 0 23 -11 6 -28 -9 -9 -7 -17 11
-36 15 -16 21 -31 17 -44 -5 -15 -1 -22 14 -27 13 -4 20 -15 20 -31 0 -19 5
-24 25 -24 14 0 37 -7 50 -16 23 -15 29 -14 106 18 54 22 85 40 92 55 5 12 22
27 37 33 16 7 68 55 117 108 96 105 147 156 217 215 25 21 55 59 66 83 12 24
33 53 47 64 14 11 33 34 42 52 9 18 25 35 35 37 11 1 48 32 83 67 35 35 69 64
75 64 7 0 8 -24 3 -74 -4 -48 -2 -88 6 -114 9 -31 9 -61 0 -130 -9 -75 -9 -95
4 -125 8 -20 15 -47 15 -60 0 -13 8 -32 19 -41 10 -9 24 -43 30 -76 11 -55 16
-62 81 -118 107 -93 193 -111 307 -66 97 38 196 115 191 148 -5 33 -79 35
-128 2 -47 -31 -106 -56 -114 -49 -3 4 -22 6 -42 5 -41 -2 -134 41 -134 62 0
7 -12 16 -27 19 -22 4 -35 19 -58 64 -41 79 -52 148 -43 268 5 55 5 135 2 178
-5 57 -3 82 7 93 8 9 12 29 11 44 -2 16 4 42 12 59 9 16 16 48 16 70 0 29 6
44 24 58 15 12 29 41 41 83 9 36 30 85 45 110 16 25 36 75 44 112 15 64 15 67
-7 107 -17 31 -28 41 -47 41 -21 -1 -30 -12 -62 -80 -21 -43 -38 -85 -38 -93
0 -7 -4 -17 -8 -23 -15 -16 -73 -194 -67 -204 4 -6 -1 -10 -9 -10 -20 0 -46
-38 -46 -67 0 -13 -4 -23 -10 -23 -5 0 -10 -7 -10 -15 0 -8 -6 -15 -14 -15 -8
0 -16 -10 -20 -22 -3 -15 -21 -29 -50 -41 -25 -10 -48 -27 -51 -38 -4 -10 -31
-44 -61 -74 -30 -31 -54 -60 -54 -65 0 -5 -9 -11 -19 -15 -11 -3 -24 -19 -29
-35 -7 -18 -19 -30 -34 -32 -15 -2 -30 -17 -43 -41 -11 -20 -30 -44 -43 -53
-13 -9 -27 -27 -32 -39 -5 -14 -27 -32 -52 -43 -24 -10 -50 -27 -58 -36 -8
-10 -24 -22 -37 -27 -13 -5 -23 -17 -23 -29 0 -13 -11 -25 -35 -34 -19 -8 -35
-20 -35 -25 0 -6 -12 -17 -27 -25 -16 -8 -24 -15 -20 -16 16 0 -117 -100 -133
-100 -22 0 -100 83 -101 107 -1 10 0 28 1 40 1 12 -4 31 -9 42 -8 14 -8 34 -1
66 7 31 7 52 0 64 -5 11 -12 59 -14 108 -2 48 -7 96 -11 106 -5 11 -1 25 10
37 12 13 14 23 7 37 -6 11 -7 38 -1 73 13 77 20 189 25 378 2 90 9 183 14 205
11 52 -8 76 -68 84 -34 5 -42 2 -56 -19z"/>
<path d="M11616 11448 c-14 -22 -14 -31 -1 -94 20 -93 19 -157 -5 -294 -17
-100 -18 -126 -8 -207 8 -68 8 -99 0 -117 -7 -17 -8 -36 -2 -57 7 -24 5 -41
-7 -66 -12 -26 -13 -37 -4 -42 8 -6 7 -37 -6 -129 -16 -118 -16 -122 2 -142
15 -17 17 -25 8 -40 -16 -25 4 -80 29 -80 21 0 23 -11 6 -28 -9 -9 -7 -17 11
-36 15 -16 21 -31 17 -44 -5 -15 -1 -22 14 -27 13 -4 20 -15 20 -31 0 -19 5
-24 25 -24 14 0 37 -7 50 -16 23 -15 29 -14 106 18 54 22 85 40 92 55 5 12 22
27 37 33 16 7 68 55 117 108 96 105 147 156 217 215 25 21 55 59 66 83 12 24
33 53 47 64 14 11 33 34 42 52 9 18 25 35 35 37 11 1 48 32 83 67 35 35 69 64
75 64 7 0 8 -24 3 -74 -4 -48 -2 -88 6 -114 9 -31 9 -61 0 -130 -9 -75 -9 -95
4 -125 8 -20 15 -47 15 -60 0 -13 8 -32 19 -41 10 -9 24 -43 30 -76 11 -55 16
-62 81 -118 107 -93 193 -111 307 -66 97 38 196 115 191 148 -5 33 -79 35
-128 2 -47 -31 -106 -56 -114 -49 -3 4 -22 6 -42 5 -41 -2 -134 41 -134 62 0
7 -12 16 -27 19 -22 4 -35 19 -58 64 -41 79 -52 148 -43 268 5 55 5 135 2 178
-5 57 -3 82 7 93 8 9 12 29 11 44 -2 16 4 42 12 59 9 16 16 48 16 70 0 29 6
44 24 58 15 12 29 41 41 83 9 36 30 85 45 110 16 25 36 75 44 112 15 64 15 67
-7 107 -17 31 -28 41 -47 41 -21 -1 -30 -12 -62 -80 -21 -43 -38 -85 -38 -93
0 -7 -4 -17 -8 -23 -15 -16 -73 -194 -67 -204 4 -6 -1 -10 -9 -10 -20 0 -46
-38 -46 -67 0 -13 -4 -23 -10 -23 -5 0 -10 -7 -10 -15 0 -8 -6 -15 -14 -15 -8
0 -16 -10 -20 -22 -3 -15 -21 -29 -50 -41 -25 -10 -48 -27 -51 -38 -4 -10 -31
-44 -61 -74 -30 -31 -54 -60 -54 -65 0 -5 -9 -11 -19 -15 -11 -3 -24 -19 -29
-35 -7 -18 -19 -30 -34 -32 -15 -2 -30 -17 -43 -41 -11 -20 -30 -44 -43 -53
-13 -9 -27 -27 -32 -39 -5 -14 -27 -32 -52 -43 -24 -10 -50 -27 -58 -36 -8
-10 -24 -22 -37 -27 -13 -5 -23 -17 -23 -29 0 -13 -11 -25 -35 -34 -19 -8 -35
-20 -35 -25 0 -6 -12 -17 -27 -25 -16 -8 -24 -15 -20 -16 16 0 -117 -100 -133
-100 -22 0 -100 83 -101 107 -1 10 0 28 1 40 1 12 -4 31 -9 42 -8 14 -8 34 -1
66 7 31 7 52 0 64 -5 11 -12 59 -14 108 -2 48 -7 96 -11 106 -5 11 -1 25 10
37 12 13 14 23 7 37 -6 11 -7 38 -1 73 13 77 20 189 25 378 2 90 9 183 14 205
11 52 -8 76 -68 84 -34 5 -42 2 -56 -19z"/>
<path d="M30327 11435 c-4 -8 -21 -21 -40 -28 -42 -18 -87 -71 -87 -103 0 -21
-5 -24 -33 -24 -37 0 -59 -19 -76 -63 -6 -16 -18 -27 -29 -27 -27 0 -32 -9
-21 -37 8 -21 5 -26 -21 -41 -24 -14 -30 -24 -30 -51 0 -28 -9 -43 -44 -77
-32 -30 -43 -48 -39 -62 6 -23 -38 -112 -82 -167 -18 -22 -36 -50 -39 -62 -4
-13 -13 -23 -19 -23 -22 -1 -77 -59 -77 -82 0 -13 -21 -52 -46 -88 -25 -36
-53 -77 -62 -93 -9 -15 -25 -30 -35 -33 -9 -3 -24 -18 -32 -34 -8 -16 -24 -34
-34 -39 -10 -6 -23 -27 -28 -47 -7 -32 -14 -38 -51 -50 -55 -16 -56 -14 -47
129 3 61 7 139 8 172 1 33 6 80 10 105 5 28 4 56 -2 73 -9 22 -7 33 6 54 13
20 18 52 20 132 6 213 3 352 -6 369 -5 10 -13 46 -17 81 -6 60 -9 64 -40 77
-42 18 -41 18 -54 -7 -15 -27 -18 -427 -4 -452 7 -12 8 -36 2 -66 -8 -48 -12
-97 -22 -291 -7 -147 -11 -181 -20 -211 -5 -17 -2 -39 8 -64 9 -21 14 -46 11
-56 -4 -10 -1 -27 4 -38 8 -14 8 -22 0 -26 -6 -4 -8 -18 -5 -30 4 -14 -1 -36
-11 -54 -17 -29 -17 -30 4 -53 12 -13 29 -44 38 -68 19 -54 29 -61 69 -48 43
15 76 47 76 75 0 13 6 26 14 29 8 3 20 19 27 36 7 17 40 59 73 93 115 119 138
147 148 182 5 18 22 46 39 60 16 15 29 34 29 43 0 21 71 110 88 110 6 0 12 7
12 15 0 8 5 15 11 15 15 0 41 69 33 92 -4 15 3 30 28 57 19 20 59 81 87 136
29 54 76 126 105 160 28 33 78 92 109 132 86 106 82 105 113 36 14 -32 28 -83
31 -113 2 -30 15 -119 29 -198 13 -79 24 -168 24 -198 0 -39 6 -64 19 -83 13
-18 21 -49 24 -96 2 -39 11 -89 20 -113 13 -32 14 -46 6 -60 -9 -14 -8 -25 5
-50 9 -17 16 -42 16 -55 0 -13 14 -43 30 -65 17 -23 30 -44 30 -48 0 -17 88
-85 118 -90 50 -10 130 4 181 32 25 13 53 24 62 24 9 0 21 11 27 25 6 14 18
25 25 25 8 0 23 11 33 25 10 14 24 25 31 25 16 0 53 49 53 70 0 10 9 20 20 23
11 3 24 16 29 29 5 12 28 47 50 77 23 30 41 62 41 70 0 9 9 22 20 29 32 20 24
92 -11 92 -38 0 -67 -24 -105 -87 -21 -36 -59 -89 -84 -117 -25 -28 -50 -60
-56 -71 -6 -11 -30 -30 -54 -41 -24 -12 -47 -31 -52 -43 -4 -11 -15 -21 -24
-21 -10 0 -25 -7 -34 -15 -9 -8 -41 -17 -71 -21 -52 -6 -58 -4 -85 22 -16 16
-28 36 -26 45 1 9 -4 22 -13 29 -8 7 -15 27 -15 45 0 19 -3 35 -7 37 -13 5
-45 100 -54 163 -6 33 -17 89 -26 125 -19 79 -40 228 -53 370 -5 58 -14 125
-20 150 -6 24 -8 60 -5 80 5 31 3 38 -19 50 -19 10 -26 21 -26 44 0 22 -12 45
-41 79 -43 50 -54 56 -62 32z"/>
</g>
</svg>
