<?xml version="1.0" standalone="no"?>
<!DOCTYPE svg PUBLIC "-//W3C//DTD SVG 20010904//EN"
 "http://www.w3.org/TR/2001/REC-SVG-20010904/DTD/svg10.dtd">
<svg version="1.0" xmlns="http://www.w3.org/2000/svg"
 width="3508.000000pt" height="2480.000000pt" viewBox="0 0 3508.000000 2480.000000"
 preserveAspectRatio="xMidYMid meet">

<g transform="translate(0.000000,2480.000000) scale(0.100000,-0.100000)"
fill="#000000" stroke="none">
<path d="M21465 21350 c-27 -4 -160 -22 -295 -40 -135 -17 -297 -40 -360 -51
-63 -11 -162 -24 -220 -30 -129 -12 -689 -87 -699 -93 -4 -3 -61 -12 -127 -21
-65 -9 -182 -25 -259 -36 -77 -10 -193 -23 -258 -29 -64 -5 -126 -14 -137 -20
-10 -5 -32 -10 -49 -10 -16 0 -41 -4 -55 -10 -14 -5 -78 -12 -142 -15 -65 -2
-120 -8 -123 -11 -3 -4 20 -4 52 -1 86 8 127 0 127 -28 0 -23 -30 -35 -88 -35
-14 0 -23 -3 -20 -6 7 -6 341 23 413 36 52 10 288 40 460 59 232 26 282 32
310 41 17 5 64 11 106 14 79 5 207 23 414 56 66 11 185 26 265 35 149 17 453
55 640 81 l105 14 327 -333 c180 -182 328 -336 328 -341 0 -5 -113 -6 -277 -3
-265 7 -844 19 -1448 32 -1057 22 -1859 31 -1602 18 64 -4 67 -5 67 -28 0 -22
-4 -25 -42 -26 -42 -2 -42 -2 12 -10 30 -4 415 -17 855 -28 440 -11 836 -22
880 -25 44 -3 166 -6 270 -7 105 0 438 -7 740 -15 303 -7 573 -13 601 -14 l52
0 533 -552 c294 -303 634 -655 757 -782 l222 -231 489 -845 c1022 -1769 1421
-2460 1421 -2465 0 -3 43 -81 96 -173 421 -728 781 -1351 853 -1474 47 -81
123 -211 169 -290 45 -79 103 -176 128 -217 25 -40 68 -116 96 -170 66 -128
61 -123 109 -102 21 10 42 21 45 24 6 6 -267 491 -311 552 -11 17 -36 60 -55
97 -19 37 -45 80 -58 95 -13 16 -21 22 -17 16 3 -7 2 -20 -3 -29 -8 -14 -10
-9 -14 19 -2 19 0 33 5 30 11 -7 -23 60 -93 182 -664 1154 -835 1451 -841
1455 -4 3 -33 50 -64 105 -32 55 -91 157 -131 226 -40 69 -132 229 -205 355
-310 538 -392 681 -515 892 -136 236 -254 441 -517 897 -88 154 -187 325 -219
379 -32 55 -58 105 -58 110 0 6 50 -41 111 -104 397 -412 724 -741 727 -731 2
6 0 17 -6 24 -16 21 -24 79 -9 75 26 -9 57 -71 57 -115 0 -52 -48 2 635 -705
226 -234 493 -512 594 -619 102 -107 325 -338 497 -514 302 -310 314 -321 370
-339 32 -10 70 -25 84 -34 14 -8 94 -85 179 -171 230 -233 311 -338 311 -404
0 -23 40 -70 233 -269 127 -132 233 -248 235 -257 2 -9 -117 -311 -263 -670
-146 -360 -265 -656 -265 -659 0 -3 9 3 20 13 10 9 26 15 35 12 19 -8 19 -46
0 -117 -8 -30 -13 -56 -11 -57 4 -4 39 81 221 532 65 160 162 400 217 535 117
287 114 281 94 256 -15 -18 -16 -9 -16 124 l0 144 47 -44 47 -45 -44 50 c-24
28 -224 236 -444 464 -221 228 -666 689 -990 1025 -324 336 -682 706 -796 821
-298 303 -523 535 -1360 1403 l-744 773 -134 232 c-174 301 -369 639 -550 952
-79 138 -162 282 -185 321 l-41 71 -150 7 c-83 5 -227 10 -321 12 l-169 4 -76
82 c-88 97 -646 677 -668 696 -17 13 -40 14 -117 2z m1442 -903 c6 -7 70 -113
141 -237 71 -124 212 -369 314 -545 209 -361 211 -365 206 -371 -4 -4 -1121
1151 -1126 1164 -4 13 452 2 465 -11z"/>
<path d="M10924 20966 c-6 -7 -15 -23 -19 -37 -4 -13 -13 -27 -19 -31 -6 -4
-12 -41 -12 -85 -2 -61 2 -85 17 -109 10 -17 19 -36 19 -43 0 -44 86 -76 121
-45 16 14 24 16 38 7 17 -10 19 -7 25 34 6 48 -4 73 -31 73 -11 0 -14 8 -11
30 4 29 3 30 -31 28 -28 -2 -36 1 -36 14 0 9 -3 20 -7 23 -4 4 -4 14 -1 23 5
12 2 14 -11 9 -15 -6 -17 -4 -11 10 4 10 10 26 13 37 4 16 2 17 -18 6 -22 -12
-22 -11 -15 29 7 44 6 47 -11 27z"/>
<path d="M12677 20954 c-12 -15 -27 -32 -33 -38 -6 -7 -11 -30 -10 -53 0 -23
-1 -41 -4 -41 -20 1 -30 -4 -25 -12 4 -6 -21 -10 -67 -10 -40 0 -78 -4 -84 -8
-6 -4 -23 -30 -38 -59 -14 -29 -33 -56 -42 -61 -14 -8 -14 -10 0 -21 13 -11
20 -2 51 58 l35 71 150 -5 c86 -3 150 -2 150 3 0 5 11 26 25 46 l25 36 -24 -6
c-20 -5 -27 2 -50 41 -15 25 -28 55 -29 65 -2 25 -3 25 -30 -6z"/>
<path d="M18683 20973 c9 -2 25 -2 35 0 9 3 1 5 -18 5 -19 0 -27 -2 -17 -5z"/>
<path d="M18608 20963 c6 -2 18 -2 25 0 6 3 1 5 -13 5 -14 0 -19 -2 -12 -5z"/>
<path d="M18528 20953 c7 -3 16 -2 19 1 4 3 -2 6 -13 5 -11 0 -14 -3 -6 -6z"/>
<path d="M10780 20931 c13 -24 30 -36 30 -21 0 12 -24 40 -35 40 -3 0 -1 -9 5
-19z"/>
<path d="M18468 20943 c6 -2 18 -2 25 0 6 3 1 5 -13 5 -14 0 -19 -2 -12 -5z"/>
<path d="M18388 20933 c6 -2 18 -2 25 0 6 3 1 5 -13 5 -14 0 -19 -2 -12 -5z"/>
<path d="M18698 20883 c12 -2 32 -2 45 0 12 2 2 4 -23 4 -25 0 -35 -2 -22 -4z"/>
<path d="M18603 20873 c15 -2 37 -2 50 0 12 2 0 4 -28 4 -27 0 -38 -2 -22 -4z"/>
<path d="M18533 20863 c9 -2 23 -2 30 0 6 3 -1 5 -18 5 -16 0 -22 -2 -12 -5z"/>
<path d="M18428 20843 c7 -3 16 -2 19 1 4 3 -2 6 -13 5 -11 0 -14 -3 -6 -6z"/>
<path d="M18348 20833 c7 -3 16 -2 19 1 4 3 -2 6 -13 5 -11 0 -14 -3 -6 -6z"/>
<path d="M13535 20770 c-4 -6 3 -10 14 -10 25 0 27 6 6 13 -8 4 -17 2 -20 -3z"/>
<path d="M11362 20624 c2 -55 -1 -69 -16 -80 -18 -13 -18 -14 5 -32 16 -14 46
-21 98 -26 42 -3 104 -9 138 -12 89 -10 98 -4 71 43 -44 74 -160 147 -266 167
l-33 6 3 -66z"/>
<path d="M12517 20684 c-5 -9 -116 -223 -231 -449 -65 -126 -66 -124 48 -106
39 6 157 22 261 36 203 28 240 34 234 40 -5 4 -247 -21 -319 -34 -195 -35
-251 -44 -256 -39 -11 12 105 226 126 233 11 3 20 14 20 24 0 13 7 18 27 16
15 0 29 -7 31 -14 3 -10 -2 -12 -22 -7 -25 6 -32 -4 -27 -36 0 -5 -4 -7 -10
-5 -6 1 -14 -4 -16 -10 -3 -7 2 -13 10 -13 8 0 20 -6 26 -14 6 -7 21 -11 34
-9 14 3 29 -2 36 -11 17 -20 42 -21 35 -1 -3 8 -9 14 -12 13 -19 -2 -22 4 -8
18 9 8 13 20 10 26 -5 8 1 9 17 4 13 -4 29 -8 36 -8 7 -1 10 -5 7 -9 -2 -4 0
-10 5 -13 5 -4 12 -2 15 3 7 11 -4 42 -13 37 -3 -2 -12 2 -19 10 -10 11 -10
14 1 14 8 0 20 -7 27 -15 7 -8 17 -15 22 -15 6 0 5 7 -2 15 -11 14 -10 14 14
6 14 -6 26 -7 26 -2 0 5 -7 12 -16 15 -8 3 -13 10 -9 15 3 5 1 12 -5 16 -5 3
-10 12 -10 18 0 7 5 4 11 -5 5 -10 18 -18 27 -18 13 0 14 -2 4 -9 -11 -6 -9
-9 7 -14 11 -2 23 -2 26 2 10 9 29 8 36 -2 4 -5 10 -4 13 2 5 7 -7 17 -29 27
-28 11 -34 18 -26 28 6 7 7 17 3 21 -4 5 -1 5 6 1 7 -4 10 -12 7 -17 -4 -5 3
-9 14 -9 26 0 35 16 15 28 -15 8 -14 10 2 16 26 11 73 20 105 20 23 1 25 4 19
26 -4 14 -18 47 -30 74 -13 26 -23 55 -23 62 0 11 -21 14 -92 14 -51 0 -112 3
-137 6 -25 4 -48 2 -51 -2z m143 -132 c0 -5 -7 -9 -15 -9 -8 0 -12 4 -9 9 3 4
9 8 15 8 5 0 9 -4 9 -8z m-190 -98 c0 -2 -7 -4 -15 -4 -8 0 -15 4 -15 10 0 5
7 7 15 4 8 -4 15 -8 15 -10z m106 -41 c-7 -7 -26 7 -26 19 0 6 6 6 15 -2 9 -7
13 -15 11 -17z m-41 -31 c-3 -3 -11 0 -18 7 -9 10 -8 11 6 5 10 -3 15 -9 12
-12z m-80 -20 c-3 -3 5 -12 17 -20 21 -15 21 -16 2 -22 -12 -5 -25 -1 -35 9
-18 18 -15 38 6 38 8 0 13 -3 10 -5z"/>
<path d="M11183 20663 c-18 -3 -39 -13 -47 -25 -13 -18 -12 -24 6 -54 15 -26
27 -34 49 -34 26 0 28 2 19 19 -15 29 -12 41 8 41 18 0 60 36 51 44 -9 7 -56
12 -86 9z"/>
<path d="M18568 20633 c17 -2 47 -2 65 0 17 2 3 4 -33 4 -36 0 -50 -2 -32 -4z"/>
<path d="M12324 20534 c-12 -30 -20 -54 -18 -54 9 0 53 99 46 103 -4 3 -17
-19 -28 -49z"/>
<path d="M18603 20563 c15 -2 37 -2 50 0 12 2 0 4 -28 4 -27 0 -38 -2 -22 -4z"/>
<path d="M18718 20563 c18 -2 45 -2 60 0 15 2 0 4 -33 4 -33 0 -45 -2 -27 -4z"/>
<path d="M10136 20518 c4 -13 1 -15 -13 -12 -19 5 -51 -21 -40 -32 3 -4 19 -2
36 4 46 16 45 1 -1 -30 -24 -15 -38 -28 -33 -28 7 0 7 -3 0 -8 -5 -4 -15 -16
-21 -27 -6 -11 -23 -26 -37 -33 -15 -7 -27 -17 -27 -21 0 -4 -17 -16 -39 -27
-49 -24 -62 -56 -42 -107 16 -43 11 -54 -16 -36 -15 9 -24 9 -39 0 -10 -7 -12
-10 -4 -8 8 2 32 -2 52 -10 36 -15 37 -14 67 19 22 25 33 30 41 22 17 -17 -9
-54 -42 -61 -40 -8 -35 -45 7 -51 44 -6 67 -25 62 -51 -3 -14 0 -30 7 -36 6
-5 9 -9 7 -8 -2 2 -9 -5 -16 -13 -15 -21 -57 -10 -48 12 3 10 0 12 -10 9 -10
-4 -16 2 -19 19 -4 19 -1 26 11 27 13 0 14 1 1 6 -8 3 -18 10 -21 16 -4 5 -15
1 -26 -10 -18 -18 -23 -19 -52 -7 -18 7 -29 9 -26 4 3 -6 1 -10 -4 -10 -7 0
-10 -20 -10 -47 1 -30 4 -37 6 -20 7 44 39 34 67 -20 13 -25 13 -33 3 -33 -13
0 -33 -21 -55 -60 -12 -20 -12 -22 2 -17 10 4 13 1 9 -9 -3 -7 -10 -14 -17
-14 -6 0 -5 -4 3 -9 28 -18 -25 -158 -70 -182 -10 -5 -19 -19 -19 -30 0 -15
-5 -19 -16 -15 -8 3 -13 2 -10 -3 3 -5 -1 -12 -10 -15 -11 -4 -18 1 -21 14 -6
21 -6 21 -20 0 -14 -20 -13 -23 7 -37 14 -10 20 -22 17 -34 -3 -12 2 -23 13
-29 22 -12 41 -13 38 -2 -4 14 40 74 46 63 4 -6 4 -17 -1 -23 -14 -24 -13 -48
2 -48 9 0 15 9 15 23 l1 22 22 -25 c26 -30 57 -28 57 4 0 31 25 29 41 -3 l12
-26 9 33 c7 28 11 31 28 22 20 -11 36 2 26 19 -3 5 0 11 8 14 8 3 17 0 20 -8
3 -8 14 -19 26 -25 19 -10 20 -9 14 14 -7 30 -2 32 20 10 15 -14 16 -14 16 0
0 9 5 16 10 16 6 0 10 -5 10 -11 0 -6 6 -9 14 -6 16 6 15 1 -5 -103 -12 -59
-25 -88 -63 -145 -25 -37 -113 -115 -130 -115 -5 0 -7 -2 -4 -5 8 -9 85 36
118 68 51 50 51 52 -4 -225 -8 -38 -18 -74 -24 -80 -10 -14 -21 -76 -28 -167
-3 -30 -11 -78 -19 -106 -28 -95 -72 -316 -64 -321 8 -4 -3 -49 -22 -89 -5
-11 -27 -107 -49 -214 -40 -191 -186 -875 -215 -1001 -8 -36 -40 -180 -70
-320 -31 -140 -62 -275 -70 -300 -26 -83 -106 -484 -111 -554 -2 -38 -9 -75
-14 -81 -6 -7 -33 -117 -61 -246 -27 -129 -74 -346 -104 -484 -30 -137 -90
-419 -135 -625 l-81 -375 -81 -155 c-44 -85 -116 -221 -160 -301 -43 -81 -81
-156 -83 -168 -8 -45 -18 -67 -45 -101 -28 -36 -260 -491 -260 -511 0 -17
-109 -231 -124 -243 -11 -9 -155 -284 -345 -656 l-33 -65 92 -188 c51 -103 95
-186 97 -184 2 3 -36 87 -85 188 l-89 184 105 205 c57 113 134 264 171 335 36
72 69 131 74 133 4 2 7 8 7 13 0 6 5 15 10 22 6 7 19 23 30 36 l20 24 0 -66
c0 -70 7 -54 -270 -595 l-52 -102 22 -53 c12 -28 56 -122 98 -207 106 -219
136 -284 134 -292 -1 -5 2 -8 8 -8 5 0 10 2 10 5 0 2 -58 127 -130 276 l-130
273 180 351 c99 194 177 355 174 357 -5 6 103 219 115 228 4 3 35 57 68 120
138 260 172 323 186 338 8 10 29 49 47 87 42 87 101 197 105 193 3 -3 -8 -69
-25 -148 -6 -30 -13 -64 -15 -75 -30 -175 -103 -535 -171 -839 -74 -330 -166
-760 -260 -1206 -30 -148 -31 -150 -42 -150 -4 0 -28 40 -52 90 -24 49 -46 88
-48 86 -2 -2 8 -29 23 -59 22 -49 25 -66 23 -139 l-3 -83 -58 118 c-32 64 -60
117 -62 117 -7 0 14 -47 85 -192 l63 -127 -32 -138 c-52 -223 -69 -296 -116
-521 -25 -117 -67 -313 -94 -435 -51 -232 -67 -323 -52 -297 4 8 16 60 25 115
10 55 21 109 26 120 5 11 18 67 30 125 11 58 32 156 45 218 14 61 36 163 50
225 13 61 35 164 49 227 44 202 45 201 42 -10 -3 -170 -6 -210 -30 -315 -15
-66 -38 -172 -52 -235 -13 -63 -33 -155 -43 -205 -11 -49 -20 -97 -20 -105 1
-25 37 116 75 295 19 93 41 179 47 190 14 26 27 88 31 145 2 25 18 110 35 190
16 80 34 165 38 189 5 25 13 46 18 48 6 2 32 -45 60 -105 27 -59 77 -165 110
-237 34 -71 76 -168 95 -214 18 -46 41 -91 50 -100 10 -9 55 -95 102 -191 46
-96 92 -187 101 -201 10 -15 19 -35 22 -45 4 -23 105 -229 146 -299 15 -27 29
-56 29 -63 0 -21 112 -253 142 -296 16 -21 28 -42 28 -47 0 -4 32 -74 71 -156
39 -81 94 -195 121 -253 57 -118 184 -383 351 -730 93 -194 291 -608 347 -725
26 -55 80 -167 120 -250 39 -82 92 -193 117 -245 25 -52 84 -173 130 -269 46
-96 81 -176 78 -179 -3 -3 -38 26 -78 64 -40 39 -207 200 -372 359 -165 159
-379 366 -475 460 -96 94 -229 223 -295 286 -116 110 -217 207 -530 508 -82
80 -235 231 -340 336 -104 105 -277 275 -384 377 l-193 187 21 97 c12 53 20
99 17 101 -6 6 -11 -16 -31 -116 l-17 -85 181 -175 182 -176 -1 -59 0 -60
-137 135 c-76 74 -177 173 -225 218 -48 46 -89 93 -91 105 l-4 21 -2 -21 c-1
-15 77 -97 282 -296 155 -151 287 -277 294 -279 11 -4 341 -321 743 -714 195
-191 870 -845 1344 -1302 140 -135 257 -257 266 -275 8 -18 43 -91 77 -163 35
-71 63 -135 63 -142 0 -8 21 -54 48 -104 26 -50 61 -119 79 -153 18 -33 64
-128 104 -211 108 -228 168 -352 269 -560 51 -104 115 -237 142 -295 27 -58
79 -163 114 -235 35 -71 64 -136 64 -145 0 -8 5 -22 10 -30 16 -24 5 39 -14
83 -11 25 -16 58 -14 95 l3 57 28 -55 c15 -30 24 -44 21 -30 -6 23 -29 72
-174 375 -26 55 -68 143 -93 195 -24 52 -73 154 -107 225 -34 72 -82 171 -105
220 -41 88 -75 159 -244 508 -80 167 -90 192 -72 185 5 -1 125 -115 268 -252
417 -403 467 -450 493 -471 l25 -20 -24 27 c-19 22 -22 35 -19 73 l3 46 -160
157 c-88 86 -289 282 -447 435 l-286 279 -128 266 c-70 147 -174 363 -231 481
-57 117 -103 214 -103 216 0 1 -47 99 -104 216 -125 260 -211 438 -281 584
-29 61 -83 173 -120 250 -37 77 -91 190 -120 250 -29 61 -83 173 -120 250
-251 522 -295 615 -295 625 0 16 -139 300 -159 327 -12 14 -21 32 -21 40 0 8
-74 169 -165 359 -91 190 -165 349 -165 353 0 5 -86 183 -191 396 l-192 387
11 51 c7 29 68 308 137 620 69 312 131 603 139 645 34 189 229 1044 254 1112
3 8 4 21 3 28 -1 7 7 41 18 75 12 34 21 66 20 70 0 5 8 15 18 23 17 14 17 14
-1 8 -16 -6 -17 -3 -12 22 4 16 9 40 12 54 3 14 9 52 14 85 5 33 20 116 34
183 22 109 33 138 94 255 38 73 145 281 237 462 157 309 367 714 422 814 27
48 217 423 578 1136 125 248 231 455 235 460 4 6 135 260 290 565 380 748 519
1018 546 1061 12 20 47 85 78 145 59 114 81 155 109 198 9 14 17 33 17 42 0
20 185 368 215 404 7 8 16 25 19 38 4 12 13 22 20 22 6 0 12 9 13 20 2 24 97
236 155 345 23 44 49 94 58 110 13 26 23 32 80 42 l65 12 -70 -5 c-38 -3 -70
-6 -71 -7 -3 -5 -128 -244 -218 -420 -146 -285 -218 -421 -227 -431 -5 -6 -9
24 -9 71 l0 81 170 336 c94 185 170 339 170 341 0 9 -67 5 -151 -9 -46 -8
-108 -17 -136 -20 l-53 -7 0 44 0 44 117 13 c106 12 187 27 156 29 -13 1 -320
-34 -428 -48 -120 -17 -275 -24 -275 -13 0 5 8 9 18 8 9 0 16 5 14 12 -1 8 2
11 7 8 14 -9 41 22 35 39 -4 8 -14 15 -23 15 -20 0 -61 35 -61 53 0 14 -56 40
-122 57 -92 24 -193 -8 -245 -78 -41 -56 -78 -152 -52 -136 9 5 10 2 6 -9 -3
-9 -1 -19 5 -23 13 -8 -10 -24 -36 -24 -17 0 -18 7 -14 89 5 81 8 93 42 143
19 30 48 61 63 68 70 34 275 28 362 -11 l43 -19 -64 73 c-42 46 -73 93 -88
132 -35 88 -41 93 -56 48 -16 -47 -80 -106 -132 -121 -54 -16 -166 -15 -227 3
-133 38 -159 51 -229 113 -1 1 -3 -6 -3 -15 -2 -33 19 -97 49 -158 64 -128 83
-268 49 -357 -10 -27 -13 -28 -81 -27 -38 1 -70 5 -70 10 0 4 9 6 20 4 12 -2
20 2 20 10 0 8 6 18 14 22 17 10 34 183 18 183 -6 0 -14 -5 -17 -10 -5 -8 -11
-7 -21 1 -10 8 -17 7 -29 -5 -9 -9 -24 -16 -33 -16 -9 0 -39 -11 -65 -24 l-49
-24 7 27 c4 14 8 37 10 50 3 28 45 59 45 33 0 -5 7 -9 15 -9 8 0 15 6 15 12 0
8 10 10 25 7 14 -2 25 -8 25 -11 0 -4 7 -8 15 -8 9 0 14 5 12 11 -4 14 -79 55
-89 49 -5 -2 -8 3 -8 11 0 9 -4 16 -9 16 -5 0 -17 7 -25 16 -9 8 -16 11 -16 5
0 -6 -4 -11 -10 -11 -5 0 -10 7 -10 15 0 8 4 15 9 15 8 0 -38 52 -177 200 -23
25 -40 37 -36 28z m-86 -242 c0 -20 -27 -39 -45 -32 -13 4 -14 10 -5 26 12 23
50 27 50 6z m40 -36 c0 -5 -5 -10 -11 -10 -5 0 -7 5 -4 10 3 6 8 10 11 10 2 0
4 -4 4 -10z m70 -10 c0 -5 -2 -10 -4 -10 -3 0 -8 5 -11 10 -3 6 -1 10 4 10 6
0 11 -4 11 -10z m1021 -82 c23 -29 24 -67 2 -75 -18 -7 -53 29 -53 56 0 15 18
41 28 41 2 0 12 -10 23 -22z m-1038 -8 c3 -11 3 -20 1 -20 -2 0 -8 9 -14 20
-6 11 -7 20 -2 20 6 0 12 -9 15 -20z m10 -40 c7 0 4 -5 -6 -11 -21 -12 -51 -4
-42 12 4 6 14 8 22 5 8 -3 20 -6 26 -6z m1107 -36 c0 -2 -11 -4 -25 -4 -14 0
-25 4 -25 9 0 4 11 6 25 3 14 -2 25 -6 25 -8z m-1025 -53 c-9 -47 -10 -49 -37
-47 -26 1 -38 41 -17 60 9 8 10 8 5 -1 -4 -7 -3 -21 3 -30 8 -15 11 -11 17 24
5 31 10 40 21 36 11 -4 13 -15 8 -42z m1045 24 c0 -8 -2 -15 -4 -15 -2 0 -6 7
-10 15 -3 8 -1 15 4 15 6 0 10 -7 10 -15z m733 -92 c-8 -21 -33 -73 -54 -115
l-39 -77 -73 3 c-68 4 -120 22 -164 58 -16 13 -17 45 -2 50 7 2 7 11 0 28 -5
14 -10 18 -11 10 0 -13 -2 -13 -9 0 -12 18 -3 34 12 22 18 -14 57 -21 57 -11
0 5 -6 9 -12 9 -9 1 -8 4 2 9 16 9 135 28 235 38 33 3 62 7 64 9 10 9 9 2 -6
-33z m-553 -37 c0 -3 -4 -8 -10 -11 -5 -3 -10 -1 -10 4 0 6 5 11 10 11 6 0 10
-2 10 -4z m85 -6 c3 -5 -3 -10 -15 -10 -12 0 -18 5 -15 10 3 6 10 10 15 10 5
0 12 -4 15 -10z m-191 -19 c7 -10 -42 -21 -61 -14 -7 3 -13 9 -13 14 0 12 67
12 74 0z m316 -10 c0 -3 -5 -13 -11 -21 -9 -13 -10 -13 -6 1 3 9 0 22 -6 28
-9 9 -8 11 6 6 9 -4 17 -10 17 -14z m-1595 -11 c0 -8 -8 -16 -17 -18 -13 -2
-18 3 -18 18 0 15 5 20 18 18 9 -2 17 -10 17 -18z m125 10 c12 -7 12 -12 3
-21 -9 -9 -16 -9 -28 1 -29 24 -9 42 25 20z m1276 -25 c-4 -31 -23 -55 -46
-55 -20 0 -34 -37 -18 -47 6 -3 8 -1 4 5 -3 6 -3 13 2 16 9 5 46 -29 88 -81
14 -18 33 -33 41 -33 11 0 7 7 -11 21 -15 12 -25 24 -21 27 3 3 12 -3 20 -14
14 -18 14 -18 15 6 1 24 1 24 15 6 8 -11 15 -17 15 -13 0 4 18 -10 40 -30 22
-21 40 -44 40 -51 0 -7 4 -11 8 -8 5 3 19 -13 31 -34 25 -45 46 -54 31 -15 -9
22 -8 24 8 17 9 -5 24 -7 32 -5 9 3 8 0 -4 -9 -17 -13 -17 -15 -2 -21 9 -4 16
-14 16 -23 0 -19 -195 -424 -204 -424 -29 0 -208 136 -227 172 -20 37 -69 201
-69 230 0 18 5 28 15 28 8 0 15 5 15 10 0 6 -4 10 -10 10 -13 0 -13 37 -1 45
5 3 11 -3 14 -12 2 -13 7 -7 14 17 10 30 11 32 12 10 1 -14 9 -34 18 -45 15
-19 14 -14 -2 28 -10 25 10 21 23 -5 9 -19 11 -20 11 -5 1 10 -12 31 -29 47
-34 33 -27 46 13 25 15 -8 27 -10 27 -4 0 6 5 7 10 4 6 -4 9 -14 8 -23 -2 -11
5 -18 17 -20 15 -2 23 6 32 28 9 25 9 30 -3 30 -8 0 -14 4 -14 9 0 4 -15 23
-32 42 -18 19 -34 37 -34 42 -1 4 -2 11 -3 16 0 5 -11 11 -22 14 -16 4 -20 11
-17 25 5 17 2 19 -21 13 -36 -10 -63 -2 -59 17 4 21 28 28 28 7 0 -9 5 -13 11
-10 17 11 59 13 65 3 3 -5 15 0 26 12 15 16 23 19 34 9 11 -9 15 -8 20 5 10
26 33 19 30 -9z m-521 -71 c5 -41 3 -61 -9 -78 -14 -22 -13 -25 26 -62 22 -22
46 -52 53 -69 l13 -30 6 25 c3 14 7 39 8 55 3 33 48 135 59 135 10 0 18 -37
10 -47 -3 -4 -4 -7 -2 -6 2 2 10 -5 17 -15 12 -16 12 -16 11 3 -1 12 3 19 11
17 8 -1 11 2 8 7 -4 5 -2 12 4 16 5 3 12 -5 16 -19 5 -20 32 -44 38 -34 18 31
21 56 10 76 -12 25 -7 73 6 52 4 -6 13 -10 20 -8 9 2 16 -9 20 -27 4 -20 11
-29 21 -27 19 3 36 -15 41 -43 2 -15 -2 -19 -18 -17 -25 3 -38 -21 -28 -52 6
-18 5 -19 -9 -7 -14 11 -18 11 -22 -1 -3 -8 -5 -21 -3 -29 2 -8 -7 -15 -19
-17 -19 -3 -23 1 -21 23 2 16 7 24 15 21 17 -7 43 33 43 66 0 35 -12 36 -30 3
-7 -14 -17 -25 -22 -25 -21 0 -36 -26 -26 -44 9 -17 9 -17 -16 -1 -24 16 -39
34 -16 20 6 -3 10 -1 10 5 0 29 -26 -1 -31 -36 -8 -48 -6 -88 11 -184 16 -94
6 -323 -17 -394 -18 -57 -88 -133 -147 -160 -55 -26 -138 -27 -165 -2 -29 26
-24 111 8 137 13 10 21 29 21 46 0 16 14 51 31 79 29 44 102 208 117 259 3 11
9 23 15 26 16 11 -30 97 -77 143 -56 54 -116 76 -211 76 -69 0 -72 -1 -140
-50 -38 -27 -73 -50 -77 -50 -5 0 -8 -7 -8 -15 0 -8 -4 -15 -9 -15 -5 0 -16
-13 -24 -30 -14 -27 -14 -31 1 -41 13 -8 8 -9 -21 -5 -43 6 -41 9 -77 -112
-13 -40 -26 -75 -31 -78 -10 -6 11 -44 24 -44 4 0 3 9 -3 21 -10 18 -9 20 7
17 10 -2 18 -8 18 -13 0 -6 6 -19 13 -30 12 -18 13 -17 9 13 -3 29 -1 32 23
30 20 -1 26 -7 23 -18 -2 -9 3 -22 12 -30 13 -11 15 -10 9 4 -4 11 -1 16 10
16 10 0 13 -6 10 -15 -5 -11 -2 -13 10 -9 9 3 16 10 16 15 0 4 7 6 15 3 8 -4
12 -10 9 -15 -3 -5 -2 -9 3 -10 75 -5 87 -8 110 -31 l25 -25 -21 -42 c-13 -24
-43 -56 -71 -77 -35 -25 -48 -40 -45 -54 4 -22 1 -24 -24 -11 -13 8 -17 5 -18
-12 -2 -15 0 -18 6 -8 6 9 14 10 27 3 11 -5 24 -7 31 -5 13 5 22 -8 28 -37 2
-11 -2 -20 -8 -20 -8 0 -8 -3 -2 -8 10 -6 35 -56 35 -68 0 -3 -6 -2 -12 2 -9
5 -9 2 1 -9 9 -11 10 -17 2 -17 -6 0 -11 -4 -11 -10 0 -5 7 -10 15 -10 8 0 15
-7 15 -16 0 -8 4 -13 10 -9 5 3 6 13 3 22 -4 10 -2 14 4 10 5 -3 15 -24 23
-46 7 -23 17 -41 23 -41 5 0 7 6 4 13 -4 10 2 13 19 9 13 -2 26 -12 29 -22 9
-27 36 -34 42 -10 3 11 10 20 15 20 5 0 6 5 2 11 -4 8 -9 7 -15 -2 -7 -11 -9
-11 -9 -1 0 7 11 23 25 36 25 23 34 43 15 31 -5 -3 -10 2 -10 12 1 13 10 8 35
-22 31 -35 34 -37 30 -15 -5 24 -5 24 23 -5 15 -16 26 -32 25 -36 -3 -10 31
-7 45 4 10 8 16 7 22 -3 5 -8 13 -11 17 -6 7 7 -12 27 -51 51 -12 8 -13 14 -5
25 9 12 10 13 7 0 -4 -15 58 -53 73 -45 4 3 9 0 11 -7 3 -8 12 -6 31 8 26 19
36 44 17 44 -5 0 -10 5 -10 11 0 5 6 7 13 4 6 -4 5 0 -5 7 -12 11 -14 18 -6
32 7 13 7 17 0 12 -21 -13 -21 12 0 39 15 20 23 23 29 14 4 -7 5 -17 2 -23 -3
-5 -1 -6 5 -2 7 4 12 14 12 22 0 8 4 13 8 10 5 -3 15 4 22 15 8 10 20 19 26
19 7 0 17 12 23 28 7 17 10 20 8 7 -1 -11 3 -21 8 -22 6 -1 9 7 8 18 -3 22 7
25 25 7 9 -9 16 -7 32 7 11 10 20 13 20 7 0 -6 -6 -13 -12 -15 -7 -3 -3 -6 9
-6 16 -1 20 3 16 19 -6 21 13 28 20 8 3 -10 8 -9 22 2 13 10 19 11 22 4 2 -7
13 -9 24 -7 16 5 18 8 7 14 -9 6 -9 9 -1 9 6 0 15 -4 18 -10 11 -18 25 -11 25
12 l0 22 21 -20 c16 -17 19 -26 11 -40 -6 -11 -54 -111 -108 -223 -119 -251
-578 -1148 -599 -1171 -8 -9 -15 -23 -15 -31 0 -8 -4 -19 -9 -25 -5 -5 -126
-241 -269 -524 -142 -283 -280 -552 -305 -598 -81 -146 -197 -380 -197 -398 0
-10 -11 -30 -25 -44 -14 -14 -117 -212 -230 -440 -113 -228 -216 -435 -229
-460 -13 -25 -86 -165 -162 -313 -78 -149 -140 -259 -142 -249 -2 10 13 92 33
182 20 89 40 196 45 236 12 92 18 120 36 164 15 39 145 619 148 665 5 73 20
137 32 142 13 5 20 30 54 208 68 357 308 1478 463 2165 25 107 47 213 51 235
19 114 70 333 82 353 8 12 16 44 18 71 2 27 13 87 24 133 11 46 31 126 43 178
33 141 49 191 60 185 5 -4 7 -10 4 -15 -3 -5 -1 -11 4 -14 5 -4 8 8 5 26 -2
18 -1 26 3 18 3 -8 12 -21 20 -28 11 -11 16 -6 33 34 20 45 39 115 40 141 0 7
-15 2 -36 -12 -20 -14 -43 -25 -52 -25 -16 0 -14 18 20 162 l20 87 47 6 c25 4
62 11 81 16 41 10 90 12 90 2 0 -3 -11 -21 -25 -39 -30 -39 -32 -64 -5 -71 11
-3 20 -8 20 -12 0 -3 4 -12 9 -19 6 -10 19 -7 57 16 111 65 172 74 246 38 17
-9 33 -14 35 -12 3 2 -12 25 -31 51 -20 25 -36 50 -36 55 0 5 -3 15 -6 24 -5
13 3 16 49 16 l55 0 7 -56z m-718 22 c7 -6 -25 -140 -34 -143 -31 -10 -50 109
-23 140 12 13 43 15 57 3z m983 -92 c0 -8 -5 -12 -10 -9 -6 4 -8 11 -5 16 9
14 15 11 15 -7z m221 -50 c10 -28 7 -40 -9 -30 -13 8 -22 56 -10 56 5 0 13
-12 19 -26z m372 -89 c-3 -9 -8 -14 -10 -11 -3 3 -2 9 2 15 9 16 15 13 8 -4z
m-1956 -42 c-4 -3 0 -15 10 -25 20 -22 11 -24 -11 -2 -15 14 -14 34 1 34 4 0
3 -3 0 -7z m1340 -585 c-3 -8 -6 -5 -6 6 -1 11 2 17 5 13 3 -3 4 -12 1 -19z
m-472 -238 c3 -5 1 -10 -4 -10 -6 0 -11 5 -11 10 0 6 2 10 4 10 3 0 8 -4 11
-10z m65 -59 c0 -11 -3 -11 -15 -1 -8 7 -15 22 -15 33 0 20 0 20 15 1 8 -10
15 -25 15 -33z"/>
<path d="M10461 19554 c-12 -15 -21 -34 -21 -43 1 -9 7 -3 16 14 9 17 23 36
32 43 9 6 11 12 5 12 -7 0 -21 -12 -32 -26z"/>
<path d="M10431 19204 c0 -11 3 -14 6 -6 3 7 2 16 -1 19 -3 4 -6 -2 -5 -13z"/>
<path d="M10432 18907 c-24 -13 -39 -27 -35 -32 4 -5 0 -3 -9 4 -9 7 -21 10
-26 7 -4 -2 -45 -6 -89 -7 l-82 -2 5 -49 c4 -39 2 -48 -8 -43 -7 3 0 -4 15
-18 39 -33 91 -34 139 -2 21 14 38 30 38 36 0 5 4 8 9 5 10 -7 87 76 96 104 8
25 1 25 -53 -3z m-55 -52 c0 -8 -4 -12 -9 -9 -5 3 -6 10 -3 15 9 13 12 11 12
-6z"/>
<path d="M11080 18666 c0 -8 5 -18 10 -21 6 -3 10 1 10 9 0 8 -4 18 -10 21 -5
3 -10 -1 -10 -9z"/>
<path d="M12750 20480 c0 -5 5 -10 11 -10 5 0 7 5 4 10 -3 6 -8 10 -11 10 -2
0 -4 -4 -4 -10z"/>
<path d="M12196 20282 l-85 -169 -48 -11 -48 -11 49 5 c27 2 50 5 51 7 7 9
163 316 168 330 19 51 -12 -1 -87 -151z"/>
<path d="M12777 20346 c-6 -14 21 -32 31 -21 3 3 0 5 -7 5 -7 0 -10 4 -6 9 3
5 1 12 -4 15 -5 3 -11 0 -14 -8z"/>
<path d="M12594 20305 c-6 -13 -8 -14 -15 -3 -7 10 -9 8 -9 -6 0 -13 5 -17 20
-13 12 3 24 -1 30 -11 5 -10 10 -12 10 -4 0 6 7 12 16 12 8 0 12 5 9 10 -5 8
-11 7 -21 -1 -11 -9 -14 -8 -14 4 0 23 -19 31 -26 12z"/>
<path d="M12540 20065 c-96 -12 -186 -25 -200 -28 -24 -4 -23 -4 4 -6 33 -1
408 48 415 54 8 8 -38 4 -219 -20z"/>
<path d="M8605 19830 c4 -6 11 -8 16 -5 14 9 11 15 -7 15 -8 0 -12 -5 -9 -10z"/>
<path d="M9230 19797 c0 -1 -4 -17 -10 -35 -7 -27 -6 -33 5 -29 14 6 45 -22
45 -41 0 -17 -11 -15 -36 9 l-22 21 -17 -33 c-21 -40 -21 -113 0 -145 18 -27
20 -43 4 -27 -20 20 -34 4 -33 -35 0 -20 -4 -42 -8 -49 -6 -7 -4 -14 4 -19 7
-4 10 -4 6 1 -4 4 16 16 45 26 63 22 57 21 57 9 0 -5 -7 -10 -15 -10 -7 0 -18
-6 -22 -13 -11 -18 -89 -41 -145 -43 -47 -1 -98 -25 -98 -45 0 -7 17 -8 52 -4
99 14 173 13 216 -1 23 -8 58 -14 77 -14 l33 0 -15 31 c-37 75 -47 199 -22
284 4 17 10 41 13 55 2 14 7 33 11 43 9 21 -4 22 -19 1 -11 -14 -16 -10 -39
25 -17 25 -35 41 -47 41 -11 0 -20 -1 -20 -3z m36 -172 c-2 -7 0 -17 5 -22 6
-6 4 -15 -6 -23 -20 -16 -24 -11 -32 33 -5 33 -4 35 16 30 12 -3 20 -11 17
-18z"/>
<path d="M8630 19533 c1 -20 16 -31 30 -22 13 8 13 10 0 19 -18 12 -30 13 -30
3z"/>
<path d="M8580 19520 c0 -5 7 -10 15 -10 8 0 15 5 15 10 0 6 -7 10 -15 10 -8
0 -15 -4 -15 -10z"/>
<path d="M8615 19500 c-3 -5 -1 -10 4 -10 6 0 11 5 11 10 0 6 -2 10 -4 10 -3
0 -8 -4 -11 -10z"/>
<path d="M9681 19501 c-7 -5 -9 -11 -5 -14 5 -3 15 1 22 9 14 16 5 18 -17 5z"/>
<path d="M8600 19461 c0 -5 9 -7 20 -4 11 3 20 7 20 9 0 2 -9 4 -20 4 -11 0
-20 -4 -20 -9z"/>
<path d="M8686 19461 c-3 -4 6 -6 19 -3 14 2 25 6 25 8 0 8 -39 4 -44 -5z"/>
<path d="M9385 19213 c-37 -19 -48 -35 -32 -45 9 -5 9 -10 -1 -20 -9 -9 -15
-10 -20 -2 -7 12 -134 -44 -161 -71 -13 -12 -8 -17 32 -34 45 -19 94 -34 149
-46 23 -4 27 -10 26 -38 -2 -98 -19 -100 -121 -8 -76 68 -113 86 -139 70 -7
-5 -23 -9 -35 -9 -13 0 -22 -3 -20 -7 2 -8 -37 -51 -50 -55 -5 -2 -6 -9 -5
-17 2 -7 -1 -10 -7 -7 -5 4 -13 1 -17 -5 -4 -8 -3 -9 4 -5 8 5 12 -1 12 -14 0
-12 5 -18 10 -15 18 11 11 -4 -12 -27 -14 -14 -37 -24 -58 -25 -93 -6 -130
-17 -130 -38 0 -8 -8 -11 -20 -8 -13 4 -20 0 -20 -9 0 -17 29 -20 47 -6 9 7
12 2 10 -20 -1 -17 -4 -30 -7 -29 -3 1 -16 -6 -30 -16 -53 -35 -310 -20 -410
24 -25 11 -59 34 -77 51 -20 19 -38 28 -48 24 -9 -3 -14 -2 -11 3 7 10 -22 23
-34 16 -5 -3 -11 -1 -15 5 -11 17 -35 11 -31 -7 6 -33 18 -53 27 -47 5 3 9 2
8 -3 -5 -26 4 -44 29 -57 15 -8 23 -15 19 -16 -5 0 7 -16 26 -37 27 -28 39
-34 53 -28 11 5 22 8 26 7 4 -1 9 7 13 17 4 14 15 19 41 18 33 -1 35 -3 32
-28 -3 -16 -1 -26 3 -23 4 2 15 -10 23 -27 19 -37 20 -42 6 -34 -5 3 -10 2
-10 -4 0 -5 13 -15 29 -22 16 -7 28 -16 25 -20 -2 -4 5 -5 16 -2 11 3 20 0 20
-6 0 -6 8 -8 18 -4 13 5 11 -1 -8 -22 l-25 -29 27 17 c35 22 74 22 83 0 6 -17
7 -17 21 1 8 11 14 14 14 8 0 -7 7 -12 15 -12 8 0 15 6 15 14 0 8 8 13 18 11
9 -2 19 -4 22 -4 3 -1 -10 -10 -27 -21 -18 -11 -33 -22 -33 -24 0 -8 32 0 38
10 9 13 75 13 84 0 5 -7 8 -3 8 8 0 12 5 16 15 12 9 -3 18 0 21 7 6 17 54 20
55 4 1 -6 2 -18 3 -26 0 -8 7 -16 13 -18 9 -3 8 8 -4 40 -14 39 -15 48 -3 62
7 9 22 14 32 12 12 -4 18 0 18 13 0 13 6 17 19 13 22 -6 34 9 25 32 -5 11 -14
15 -30 11 -42 -11 -36 14 10 42 25 15 50 39 57 55 6 15 19 27 28 27 9 0 21 4
27 8 5 5 26 19 47 31 44 27 50 15 7 -14 -16 -11 -30 -26 -30 -33 0 -16 41 8
88 52 29 27 48 26 20 -2 -17 -17 -2 -28 17 -12 8 7 15 9 15 4 0 -5 5 -2 10 6
8 12 12 12 18 2 5 -8 16 -10 28 -5 17 6 18 5 4 -13 -8 -10 -21 -25 -27 -32
-26 -27 -12 -32 21 -7 29 22 34 23 32 8 0 -11 5 -17 17 -17 22 2 22 -1 -8 -53
-14 -23 -24 -43 -22 -43 3 0 22 16 43 34 51 46 55 28 10 -38 -20 -29 -36 -56
-36 -59 0 -4 -11 -25 -25 -47 -14 -22 -25 -50 -25 -63 0 -31 -27 -67 -45 -61
-9 4 -15 0 -15 -8 0 -8 -11 -25 -25 -38 -14 -13 -25 -21 -25 -17 0 3 10 15 22
27 12 11 17 20 11 20 -19 0 -45 -32 -39 -47 3 -8 6 -17 6 -19 0 -2 6 -4 14 -4
8 0 30 21 49 48 19 26 47 57 61 69 17 15 23 28 19 39 -4 11 -3 15 5 10 6 -3
13 -2 17 4 4 6 11 8 16 5 5 -4 9 3 9 15 0 12 4 18 10 15 6 -4 10 -3 9 2 -3 18
1 36 8 30 3 -4 12 -2 19 4 14 11 23 -9 26 -57 1 -11 8 -21 15 -21 9 0 10 4 2
14 -8 9 -8 13 0 13 6 0 11 5 11 11 0 13 26 40 33 33 6 -7 27 78 27 113 0 15 7
49 14 75 8 25 11 50 8 54 -4 4 -2 4 5 0 7 -3 14 2 17 12 7 22 -22 85 -35 77
-5 -4 -9 -2 -9 4 0 6 -11 13 -25 17 -14 3 -25 12 -25 20 0 8 -6 14 -12 14 -7
0 2 10 20 21 26 17 30 24 21 35 -7 8 -9 18 -5 21 4 4 11 1 16 -7 5 -8 14 -15
20 -15 6 0 14 -6 19 -13 5 -9 11 -5 20 14 9 21 15 24 24 15 9 -9 8 -14 -3 -21
-9 -6 -10 -10 -3 -10 7 0 17 9 23 20 6 11 21 20 35 20 30 0 55 10 55 22 0 5
-5 6 -12 2 -7 -5 -9 -2 -6 7 6 15 -17 55 -30 53 -4 -1 -11 0 -17 1 -5 2 -28 6
-49 9 -42 6 -133 61 -168 101 -25 29 -24 29 -63 8z m109 -392 c-2 -3 -12 3
-22 13 -16 17 -16 18 5 5 12 -7 20 -15 17 -18z m-490 -10 c-10 -10 -21 -17
-23 -15 -6 6 20 34 32 34 6 0 2 -8 -9 -19z m-125 -4 c10 3 22 0 25 -6 4 -7 1
-8 -8 -5 -19 7 -22 -12 -3 -19 17 -8 -12 -27 -30 -20 -7 3 -13 0 -13 -6 0 -6
-4 -11 -9 -11 -5 0 -4 11 2 24 7 13 16 22 22 19 5 -3 4 0 -2 8 -7 7 -13 18
-12 24 0 6 2 5 5 -1 3 -7 13 -10 23 -7z m206 -33 c-22 -20 -64 -49 -93 -66
-28 -16 -49 -34 -46 -39 5 -9 -17 -13 -46 -9 -46 6 -14 50 39 55 15 1 54 20
87 42 53 36 79 50 94 52 3 0 -13 -15 -35 -35z m-270 -178 c-16 -13 -32 -22
-34 -20 -8 7 32 44 48 44 11 0 6 -8 -14 -24z m25 -20 c0 -3 -4 -8 -10 -11 -5
-3 -10 -1 -10 4 0 6 5 11 10 11 6 0 10 -2 10 -4z m-10 -76 c0 -5 -2 -10 -4
-10 -3 0 -8 5 -11 10 -3 6 -1 10 4 10 6 0 11 -4 11 -10z"/>
<path d="M9860 19112 c-35 -18 -57 -56 -38 -68 7 -4 8 -3 4 5 -4 6 0 14 11 17
10 3 29 11 42 17 13 7 33 10 45 9 12 -2 19 -2 16 0 -3 2 -14 11 -25 20 -20 16
-23 16 -55 0z"/>
<path d="M12002 19053 c-7 -10 -10 -12 -7 -5 8 15 7 15 -46 -3 -24 -9 -63 -16
-86 -17 -40 -2 -44 -5 -54 -38 -36 -115 -74 -198 -106 -231 -23 -24 -31 -39
-23 -44 6 -4 17 -1 25 5 8 7 15 9 15 6 0 -4 7 -1 16 6 28 24 79 80 79 87 0 5
17 25 38 46 20 20 37 44 37 52 0 11 7 14 25 11 14 -3 28 -1 31 3 3 5 14 9 25
9 11 0 19 7 19 16 0 14 -3 14 -16 4 -12 -11 -15 -11 -12 1 4 17 19 34 37 40 8
3 15 19 17 37 4 37 3 38 -14 15z"/>
<path d="M9301 18673 c-31 -46 -35 -64 -16 -65 14 -1 67 99 56 106 -5 3 -23
-15 -40 -41z"/>
<path d="M9185 18680 l-30 -8 32 -1 c17 0 35 4 38 9 7 11 3 11 -40 0z"/>
<path d="M9102 18660 c-7 -12 -10 -25 -7 -29 3 -5 -4 -7 -15 -4 -13 4 -20 0
-20 -9 0 -26 10 -26 55 -2 51 29 64 20 29 -21 -33 -39 -30 -42 9 -10 32 27 61
65 39 51 -6 -4 -20 2 -31 13 -11 11 -22 17 -25 14 -3 -4 -6 -1 -6 5 0 18 -14
14 -28 -8z"/>
<path d="M9057 18663 c-4 -3 -7 -11 -7 -17 0 -6 5 -5 12 2 6 6 9 14 7 17 -3 3
-9 2 -12 -2z"/>
<path d="M9224 18535 c-9 -13 -13 -29 -9 -35 3 -5 2 -10 -4 -10 -6 0 -7 -7 -4
-17 4 -10 2 -14 -5 -9 -16 10 -26 -13 -12 -29 9 -11 3 -21 -27 -50 l-38 -37
29 7 c33 7 86 59 86 84 0 14 -2 14 -10 1 -5 -8 -12 -12 -15 -8 -4 3 4 17 17
30 12 12 22 28 20 34 -1 6 5 17 13 24 20 17 19 27 -5 33 -14 4 -25 -2 -36 -18z"/>
<path d="M9275 18510 c-3 -5 -1 -10 4 -10 6 0 11 5 11 10 0 6 -2 10 -4 10 -3
0 -8 -4 -11 -10z"/>
<path d="M9076 18462 c-3 -6 -1 -14 5 -17 14 -9 20 -2 10 14 -6 8 -11 9 -15 3z"/>
<path d="M9024 18419 c-10 -16 7 -29 36 -27 17 1 26 7 23 14 -5 15 -51 25 -59
13z"/>
<path d="M26836 17068 c-8 -21 -10 -39 -4 -50 16 -32 28 -19 28 32 0 28 -2 50
-5 50 -3 0 -11 -15 -19 -32z"/>
<path d="M26916 16935 c8 -37 14 -45 14 -19 0 10 -5 26 -10 34 -8 11 -9 7 -4
-15z"/>
<path d="M26612 16823 c-10 -16 -14 -16 -32 -5 -12 7 -24 11 -26 9 -8 -8 8
-37 21 -37 7 0 19 -10 28 -22 12 -19 19 -21 34 -12 17 10 48 62 41 69 -1 2
-15 6 -30 10 -19 5 -29 2 -36 -12z"/>
<path d="M26875 16810 c-4 -6 -24 -22 -45 -35 -56 -35 -58 -73 -8 -122 32 -31
40 -35 48 -23 5 8 10 17 11 20 0 3 2 14 4 25 2 11 10 24 18 30 10 7 13 21 10
40 -9 42 -30 79 -38 65z"/>
<path d="M17740 16043 c-650 -47 -1261 -216 -1875 -518 -581 -286 -1056 -645
-1440 -1090 -604 -700 -952 -1495 -1061 -2425 -21 -183 -30 -700 -15 -900 67
-884 348 -1606 890 -2288 101 -128 465 -495 606 -611 782 -647 1635 -997 2670
-1093 210 -20 789 -16 985 5 588 65 1120 209 1675 454 205 90 827 397 979 483
280 157 385 245 405 338 34 159 49 497 61 1337 10 697 14 766 61 889 76 204
422 380 839 426 134 15 189 33 228 73 106 110 70 297 -66 338 -34 10 -228 8
-1034 -10 -1556 -34 -2203 -43 -2473 -36 -266 8 -305 4 -365 -37 -58 -40 -74
-71 -78 -151 -3 -63 -1 -77 20 -107 13 -19 44 -46 68 -60 44 -24 50 -25 265
-26 370 -1 515 -28 720 -132 73 -37 108 -64 180 -137 74 -73 99 -106 132 -175
133 -271 187 -638 186 -1260 0 -450 -20 -657 -72 -758 -52 -100 -332 -393
-521 -545 -177 -143 -432 -292 -615 -360 -513 -192 -1299 -159 -1902 79 -511
202 -945 535 -1340 1029 -745 931 -1053 2110 -892 3415 129 1050 635 2114
1285 2702 438 397 982 656 1561 745 174 26 545 24 743 -6 666 -99 1289 -420
1819 -936 169 -165 287 -300 421 -479 198 -266 318 -466 496 -831 67 -137 136
-269 153 -292 57 -78 150 -103 237 -64 49 22 79 61 95 124 13 55 12 73 -34
452 -66 535 -119 1046 -152 1457 -17 222 -28 288 -57 366 -47 127 -149 181
-256 136 -47 -19 -82 -53 -138 -130 -92 -128 -157 -168 -274 -167 -98 0 -181
30 -495 178 -132 62 -300 138 -372 169 -562 239 -1114 382 -1636 425 -116 10
-505 12 -617 4z"/>
<path d="M7810 15481 c0 -11 5 -23 10 -26 6 -3 10 3 10 14 0 11 -4 23 -10 26
-5 3 -10 -3 -10 -14z"/>
<path d="M27250 14981 c-5 -11 -7 -26 -4 -35 5 -12 9 -13 26 -3 16 9 22 9 25
0 3 -7 10 -13 18 -13 7 0 18 -7 25 -15 11 -14 14 -13 25 2 9 13 10 20 1 28
-11 12 -58 27 -86 29 -8 1 -14 7 -12 14 3 18 -6 15 -18 -7z"/>
<path d="M27110 14910 c0 -5 10 -10 23 -10 18 0 19 2 7 10 -19 13 -30 13 -30
0z"/>
<path d="M8627 14903 c-13 -13 -8 -53 6 -47 8 3 20 -2 27 -11 11 -13 10 -14
-5 -9 -15 6 -16 5 -4 -15 8 -12 19 -19 26 -17 7 3 10 -1 7 -8 -3 -8 -1 -17 5
-21 6 -3 11 -13 11 -21 0 -8 -5 -12 -10 -9 -6 4 -10 3 -9 -2 2 -16 -14 -53
-23 -53 -5 0 -12 9 -15 20 -3 11 -9 17 -14 14 -5 -2 -11 7 -15 21 -7 28 -16
31 -32 12 -13 -16 44 -107 82 -133 14 -8 29 -29 35 -46 11 -31 11 -31 -9 -13
-11 10 -20 23 -20 28 0 18 -31 46 -45 41 -8 -3 -16 4 -20 17 l-7 22 -14 -24
c-9 -17 -13 -19 -14 -8 0 9 -8 23 -17 30 -11 10 -14 10 -9 2 4 -7 3 -13 -3
-13 -6 0 -8 -6 -5 -13 7 -19 11 -207 4 -207 -4 0 -12 24 -19 53 -8 28 -17 57
-21 62 -4 6 -6 27 -5 47 1 22 -3 36 -9 35 -6 -1 -10 8 -8 20 2 12 -2 24 -8 28
-5 3 -10 17 -10 30 0 22 -3 24 -30 19 -24 -5 -30 -3 -30 10 0 25 19 56 34 56
19 0 45 32 30 37 -7 2 -10 14 -7 26 4 16 0 14 -16 -10 -24 -38 -41 -42 -48
-13 -6 23 -33 28 -33 6 0 -8 -7 -16 -15 -20 -8 -3 -15 -15 -15 -27 0 -12 -9
-36 -20 -55 -12 -18 -21 -49 -20 -71 0 -21 0 -47 0 -57 -2 -33 18 -42 29 -13
6 15 15 27 21 27 14 0 1 -62 -16 -76 -16 -13 -19 -50 -4 -59 6 -3 10 -19 10
-36 0 -16 5 -29 10 -29 6 0 10 -8 10 -18 0 -52 97 -182 136 -182 12 0 42 -18
67 -40 37 -33 52 -40 87 -40 25 0 39 4 35 10 -3 6 -2 10 4 10 5 0 12 -4 15 -9
3 -4 16 -8 28 -7 20 1 25 9 35 63 7 35 26 92 42 128 29 64 30 67 14 101 -16
33 -41 50 -29 19 3 -8 1 -15 -4 -15 -14 0 -12 32 3 51 10 13 15 14 24 4 7 -7
9 -16 6 -19 -4 -3 -1 -6 6 -6 9 0 11 8 7 26 -5 18 -3 24 5 18 7 -4 9 -3 5 4
-3 5 -1 12 5 14 8 3 7 14 -5 36 -17 34 -30 44 -19 15 5 -12 2 -15 -10 -10 -9
3 -19 2 -22 -2 -2 -5 7 -12 22 -15 17 -5 23 -10 16 -17 -7 -7 -22 -5 -47 5
-23 9 -36 11 -36 4 0 -7 -5 -6 -15 2 -15 13 -11 35 6 25 5 -3 6 2 2 11 -4 12
-3 15 5 10 7 -4 12 -1 12 8 0 10 -6 13 -15 9 -17 -6 -47 26 -39 39 3 5 0 8 -5
8 -15 0 -14 27 2 33 9 4 8 6 -2 6 -11 1 -10 6 4 21 18 20 18 20 53 -6 27 -21
36 -24 42 -13 5 8 3 17 -7 24 -13 9 -13 16 -4 33 10 18 9 23 -4 28 -8 3 -15
10 -15 16 0 5 5 6 10 3 22 -13 8 8 -25 41 -20 19 -44 34 -55 34 -10 0 -22 5
-25 10 -7 11 -28 13 -38 3z m-179 -262 c2 -27 -12 -50 -24 -38 -8 7 7 78 15
73 4 -3 8 -18 9 -35z m207 -49 c-3 -3 -11 0 -18 7 -9 10 -8 11 6 5 10 -3 15
-9 12 -12z m15 -38 c0 -8 -4 -12 -10 -9 -5 3 -10 10 -10 16 0 5 5 9 10 9 6 0
10 -7 10 -16z m40 -24 c0 -5 -4 -10 -10 -10 -5 0 -10 5 -10 10 0 6 5 10 10 10
6 0 10 -4 10 -10z m-173 -132 c-3 -8 -6 -5 -6 6 -1 11 2 17 5 13 3 -3 4 -12 1
-19z m10 -50 c-3 -7 -5 -2 -5 12 0 14 2 19 5 13 2 -7 2 -19 0 -25z"/>
<path d="M8606 14831 c-4 -7 -5 -15 -2 -18 9 -9 19 4 14 18 -4 11 -6 11 -12 0z"/>
<path d="M8586 14797 c3 -10 9 -15 12 -12 3 3 0 11 -7 18 -10 9 -11 8 -5 -6z"/>
<path d="M8482 14740 c0 -14 2 -19 5 -12 2 6 2 18 0 25 -3 6 -5 1 -5 -13z"/>
<path d="M8722 14714 c10 -10 20 -15 24 -12 3 4 -5 12 -18 18 -22 12 -22 12
-6 -6z"/>
<path d="M27716 14681 c36 -27 62 -33 48 -10 -5 9 -69 39 -82 39 -3 0 12 -13
34 -29z"/>
<path d="M27860 14570 c0 -5 5 -10 11 -10 5 0 7 5 4 10 -3 6 -8 10 -11 10 -2
0 -4 -4 -4 -10z"/>
<path d="M28233 14404 c-6 -13 -7 -24 -3 -24 9 0 25 39 18 45 -2 2 -8 -7 -15
-21z"/>
<path d="M28210 14346 c-15 -39 -12 -46 6 -13 9 16 13 31 10 34 -3 3 -10 -6
-16 -21z"/>
<path d="M6420 13652 c0 -5 7 -13 16 -16 10 -4 14 -1 12 6 -5 15 -28 23 -28
10z"/>
<path d="M6298 13604 c-16 -8 -28 -20 -28 -27 0 -17 -41 -41 -49 -29 -3 5 -23
-5 -44 -23 -30 -26 -38 -39 -35 -61 3 -29 17 -36 90 -49 21 -3 56 -22 85 -46
26 -21 63 -43 81 -48 55 -16 164 3 161 27 -5 32 2 44 26 40 13 -3 22 -1 19 3
-3 5 -15 9 -27 9 -27 0 -50 14 -53 32 -1 7 -5 20 -8 28 -4 9 5 28 19 44 14 16
25 30 25 30 0 1 -10 3 -22 3 -29 3 -69 24 -62 34 2 4 -4 6 -15 4 -11 -2 -34 3
-51 12 -17 8 -37 12 -45 9 -19 -7 -47 3 -39 15 7 12 4 11 -28 -7z m88 -31 c-2
-11 -13 -19 -29 -21 -21 -3 -26 0 -21 12 3 8 15 17 27 19 12 2 23 5 24 6 1 0
0 -7 -1 -16z m44 -13 c13 -8 13 -10 -2 -10 -9 0 -20 5 -23 10 -8 13 5 13 25 0z"/>
<path d="M6630 13493 c0 -7 4 -13 9 -13 6 0 3 -17 -5 -37 -15 -36 -15 -37 3
-23 22 18 46 48 55 71 5 14 1 17 -28 16 -21 -1 -34 -6 -34 -14z"/>
<path d="M6108 13493 c7 -3 16 -2 19 1 4 3 -2 6 -13 5 -11 0 -14 -3 -6 -6z"/>
<path d="M7175 13431 c-3 -5 4 -13 16 -16 28 -9 36 1 10 14 -12 7 -22 7 -26 2z"/>
<path d="M5939 13351 c-2 -6 -15 -13 -28 -16 -12 -2 -30 -10 -39 -17 -13 -11
-14 -11 -7 2 8 13 6 13 -8 1 -9 -7 -37 -14 -62 -15 -59 -3 -66 -12 -19 -25 75
-20 202 12 218 56 10 26 -2 27 -25 2 -11 -13 -18 -19 -15 -14 2 6 1 17 -3 24
-6 9 -10 10 -12 2z"/>
<path d="M28363 13231 c-22 -43 -16 -74 8 -45 12 14 24 84 14 84 -1 0 -12 -18
-22 -39z"/>
<path d="M28289 13216 c14 -14 26 -24 29 -22 7 8 -8 25 -31 37 -21 11 -21 10
2 -15z"/>
<path d="M28340 13085 c0 -9 6 -12 15 -9 8 4 12 10 9 15 -8 14 -24 10 -24 -6z"/>
<path d="M28304 12975 c-9 -23 -11 -42 -6 -53 5 -9 8 -24 5 -32 -2 -8 2 -5 9
8 9 19 9 25 -3 33 -8 5 -9 9 -3 9 14 0 36 -25 29 -33 -3 -4 -2 -4 3 -1 4 3 7
11 7 17 0 7 7 12 15 12 17 0 24 24 11 44 -12 19 -33 3 -26 -20 4 -10 2 -19 -3
-19 -14 0 -25 34 -13 38 14 5 14 32 0 32 -5 0 -17 -16 -25 -35z"/>
<path d="M27582 12833 c-17 -27 -60 -80 -96 -120 -36 -39 -66 -76 -66 -81 0
-8 -85 -223 -110 -277 -5 -11 -30 -72 -56 -135 -175 -435 -341 -843 -374 -920
-46 -109 -47 -113 -12 -161 l31 -41 16 38 c9 22 36 89 60 149 24 61 96 238
160 395 64 157 166 410 227 563 63 158 116 276 122 274 12 -4 41 -51 191 -312
127 -221 196 -339 200 -343 1 -2 19 7 39 19 l36 21 -31 57 c-18 31 -56 97 -85
146 -186 320 -304 530 -304 541 0 7 16 53 36 101 51 126 54 133 50 133 -1 0
-17 -21 -34 -47z"/>
<path d="M28180 12675 c0 -9 9 -15 21 -15 18 0 19 2 9 15 -7 8 -16 15 -21 15
-5 0 -9 -7 -9 -15z"/>
<path d="M27035 12480 c-17 -7 -17 -9 -2 -9 18 -1 25 -21 7 -21 -5 0 -10 -6
-10 -12 1 -7 9 -3 20 10 10 13 25 22 32 21 7 -1 20 0 28 4 8 3 22 8 30 10 8 3
-7 5 -35 6 -27 0 -59 -4 -70 -9z"/>
<path d="M8071 11455 c0 -13 108 -222 108 -212 1 11 -77 176 -95 202 -8 11
-14 15 -13 10z"/>
<path d="M27574 11313 c-18 -29 -301 -517 -392 -676 -58 -101 -81 -152 -75
-158 7 -7 13 -6 19 3 23 35 55 95 60 110 4 10 22 18 50 23 38 5 47 12 68 48
13 23 92 160 175 304 193 335 182 310 148 339 -34 29 -39 29 -53 7z"/>
<path d="M26734 10967 c-16 -19 -23 -53 -12 -68 7 -11 11 -11 15 -1 2 6 8 10
11 8 4 -2 8 14 10 35 3 40 -5 48 -24 26z"/>
<path d="M19130 10950 c-166 -5 -190 -8 -238 -29 -64 -29 -112 -83 -157 -176
-18 -38 -151 -351 -295 -694 -144 -343 -267 -636 -275 -651 -18 -35 -71 -80
-94 -80 -29 0 -70 38 -96 90 -13 26 -139 332 -280 680 -140 348 -267 655 -282
682 -34 63 -91 113 -145 130 -32 10 -130 13 -368 13 -305 0 -327 -1 -365 -20
l-40 -20 405 -3 405 -3 379 -940 c209 -517 383 -936 387 -932 5 5 184 427 398
938 l389 930 389 0 388 0 3 -35 3 -36 -80 -11 c-166 -25 -254 -105 -283 -258
-19 -104 -19 -1734 1 -1820 19 -83 42 -126 97 -174 45 -40 145 -81 198 -81 54
0 67 -11 64 -49 l-3 -36 -590 0 -590 0 -3 37 c-3 36 -2 37 35 42 194 29 278
90 320 233 16 52 18 143 20 918 l3 860 -343 -800 c-188 -440 -389 -911 -447
-1047 l-105 -248 -36 0 -36 0 -438 1018 c-240 559 -442 1024 -446 1032 -5 9
-8 -340 -6 -825 4 -887 4 -894 50 -981 29 -56 110 -119 175 -138 32 -9 69 -16
83 -16 57 0 70 -10 67 -49 l-3 -36 -430 0 -430 0 -3 36 c-3 39 10 49 68 49 88
0 191 54 240 125 66 96 64 65 68 970 3 865 -1 976 -39 1066 -43 99 -140 159
-281 175 -57 7 -58 7 -58 38 0 24 -3 27 -10 16 -5 -8 -10 -29 -10 -47 0 -45
45 -92 127 -136 118 -62 165 -131 183 -269 13 -102 13 -1506 -1 -1605 -12 -93
-48 -172 -94 -210 -19 -16 -62 -43 -97 -61 -106 -55 -128 -82 -128 -154 0 -56
22 -83 83 -99 24 -6 166 -9 385 -7 380 3 401 6 438 64 46 70 11 139 -99 196
-79 39 -140 98 -166 157 -34 80 -43 217 -39 607 3 310 6 364 20 397 21 45 40
54 72 34 44 -29 86 -115 321 -662 261 -605 285 -657 324 -698 78 -84 173 -73
243 28 15 22 69 137 119 255 300 707 415 971 446 1022 58 96 102 114 131 51
15 -34 17 -87 17 -498 l0 -460 -24 -59 c-32 -80 -75 -125 -171 -176 -93 -50
-120 -78 -120 -126 0 -52 19 -82 69 -106 46 -23 47 -23 546 -23 499 0 500 0
546 23 50 24 69 54 69 108 0 46 -38 83 -143 142 -88 48 -128 96 -155 181 -15
51 -17 128 -17 871 0 765 1 819 19 883 25 90 79 151 183 205 84 44 116 71 132
115 27 70 1 136 -65 163 -35 15 -127 16 -484 4z"/>
<path d="M26575 10890 c-19 -8 -19 -9 3 -9 12 -1 22 4 22 9 0 6 -1 10 -2 9 -2
0 -12 -4 -23 -9z"/>
<path d="M26650 10730 c-9 -6 -7 -13 9 -29 25 -25 71 -29 71 -6 0 8 -9 15 -20
15 -11 0 -20 4 -20 9 0 13 -25 20 -40 11z"/>
<path d="M26696 10638 c11 -18 87 -108 131 -153 23 -24 33 -29 37 -19 3 8 19
14 36 14 16 0 30 5 30 11 0 6 -9 9 -20 6 -11 -3 -20 -2 -20 2 0 4 -11 13 -25
19 -19 9 -25 9 -25 0 0 -9 -3 -9 -12 0 -10 10 -10 15 1 21 22 14 -21 51 -51
44 -21 -6 -22 -5 -9 10 12 15 11 17 -4 17 -9 0 -31 10 -47 22 -20 14 -28 16
-22 6z"/>
<path d="M26824 10616 c-11 -29 -1 -44 24 -35 19 7 21 12 12 29 -13 23 -28 26
-36 6z"/>
<path d="M26647 10600 c-8 -11 -17 -17 -20 -13 -4 3 -7 -3 -7 -15 0 -12 -6
-22 -13 -22 -8 0 -27 -11 -43 -25 -26 -22 -30 -23 -34 -8 -5 18 -40 31 -40 16
0 -15 71 -117 108 -155 37 -39 60 -46 80 -26 9 9 12 9 12 0 0 -8 12 -10 38 -7
20 3 60 8 88 11 33 4 51 11 51 20 0 9 -4 10 -11 5 -6 -5 -37 -7 -69 -5 -36 3
-64 0 -73 -6 -10 -9 -15 -6 -20 14 -6 24 -7 25 -34 11 -20 -10 -31 -12 -35 -4
-9 14 -2 20 35 28 17 3 30 11 30 16 -1 6 -7 8 -13 6 -30 -9 -42 -5 -39 14 2
11 -1 16 -5 10 -9 -12 -63 -17 -63 -7 0 11 55 42 74 42 9 0 16 1 16 3 6 34 10
117 7 117 -3 0 -12 -9 -20 -20z m-7 -50 c0 -5 -9 -14 -20 -20 -14 -7 -20 -7
-20 0 0 5 7 10 15 10 8 0 15 5 15 10 0 6 2 10 5 10 3 0 5 -4 5 -10z"/>
<path d="M7490 10480 c0 -5 5 -10 11 -10 6 0 8 -7 5 -16 -3 -8 0 -21 7 -29 11
-11 15 -10 25 5 8 13 8 20 -1 29 -9 9 -3 10 23 6 28 -4 30 -3 10 3 -53 18 -80
22 -80 12z"/>
<path d="M26881 10406 c18 -30 26 -36 55 -36 19 0 34 5 34 10 0 6 -9 10 -20
10 -13 0 -18 5 -14 15 4 8 2 15 -2 16 -16 1 -39 7 -57 14 -16 7 -16 4 4 -29z"/>
<path d="M7464 10421 c-17 -5 -19 -9 -10 -17 9 -9 18 -8 35 1 27 14 9 25 -25
16z"/>
<path d="M7539 10422 c-8 -40 -4 -54 15 -62 32 -13 -18 -16 -71 -4 -13 2 -23
0 -23 -5 0 -7 58 -21 85 -20 11 1 24 -32 18 -47 -2 -7 -14 -9 -25 -6 -17 4
-20 2 -15 -12 4 -10 7 -20 7 -22 0 -2 20 -4 45 -4 35 0 43 3 39 15 -4 8 -1 22
6 30 7 8 9 15 4 15 -4 0 0 6 10 13 17 13 17 14 1 31 -10 9 -24 15 -31 12 -7
-3 -16 -1 -19 5 -4 5 -1 8 7 7 7 -2 12 2 11 9 -2 8 4 10 13 6 12 -4 15 -2 12
8 -3 8 -15 13 -28 11 -20 -3 -22 -1 -12 11 10 12 7 14 -18 15 -17 0 -31 -2
-31 -6z m69 -142 c-11 -17 -38 -28 -38 -16 0 18 15 36 31 36 17 0 18 -3 7 -20z"/>
<path d="M26960 10421 c0 -6 4 -13 10 -16 6 -3 7 1 4 9 -7 18 -14 21 -14 7z"/>
<path d="M7480 10380 c0 -5 5 -10 10 -10 6 0 10 5 10 10 0 6 -4 10 -10 10 -5
0 -10 -4 -10 -10z"/>
<path d="M7410 10365 c0 -2 10 -10 23 -16 20 -11 21 -11 8 4 -13 16 -31 23
-31 12z"/>
<path d="M7480 10290 c-9 -6 -10 -10 -3 -10 6 0 15 5 18 10 8 12 4 12 -15 0z"/>
<path d="M7632 10279 c-6 -10 -9 -24 -7 -32 5 -12 -58 -45 -77 -40 -4 2 -5 -4
-2 -12 4 -9 0 -23 -7 -32 -10 -12 -10 -15 -1 -9 6 4 12 2 12 -4 0 -7 6 -8 19
-1 14 8 22 7 31 -4 6 -8 9 -18 6 -24 -3 -5 0 -12 6 -14 12 -5 -16 -11 -34 -8
-5 0 -8 -3 -8 -9 0 -5 12 -10 28 -10 19 0 30 7 39 27 7 15 12 27 10 27 -16 5
-41 25 -43 34 -1 7 0 8 3 2 2 -5 13 -10 24 -10 10 0 19 -6 19 -12 0 -9 3 -9 9
1 7 10 9 7 8 -12 -1 -14 -5 -23 -9 -20 -10 5 -11 -11 -2 -20 10 -10 43 37 35
48 -5 6 -9 26 -9 45 -1 19 -10 51 -20 71 -17 33 -20 35 -30 18z m18 -13 c0 -3
-4 -8 -10 -11 -5 -3 -10 -1 -10 4 0 6 5 11 10 11 6 0 10 -2 10 -4z m-63 -92
c-3 -3 -12 -4 -19 -1 -8 3 -5 6 6 6 11 1 17 -2 13 -5z"/>
<path d="M27413 10240 c3 -14 11 -65 18 -113 12 -88 13 -89 55 -117 23 -16 60
-52 82 -80 49 -61 61 -119 42 -195 -7 -28 -12 -100 -11 -162 2 -97 -2 -122
-24 -186 -31 -92 -31 -104 5 -146 29 -34 30 -34 50 -16 18 16 20 16 26 1 8
-22 -10 -42 -45 -49 -19 -4 -44 -26 -78 -69 -71 -90 -76 -102 -71 -169 5 -62
-2 -74 -20 -36 -8 16 -11 18 -11 5 -1 -10 -13 -19 -30 -23 -55 -12 -111 -174
-72 -209 10 -9 24 -16 31 -16 7 0 22 -8 34 -17 19 -18 19 -18 3 6 -12 18 -14
28 -5 38 14 17 -13 18 -30 1 -6 -6 -14 -9 -17 -6 -8 8 13 86 28 105 43 54 59
65 87 61 16 -3 31 0 33 6 8 24 39 -17 33 -44 -5 -27 8 -50 28 -50 6 0 5 5 -2
12 -27 27 -7 78 29 78 23 0 59 -47 59 -77 0 -24 2 -24 43 -18 23 4 59 16 79
27 33 19 35 23 27 46 -5 13 -19 37 -30 53 -11 16 -17 34 -13 40 4 8 3 9 -4 5
-7 -4 -12 -1 -12 8 0 12 -10 16 -36 16 -30 0 -35 3 -29 18 4 9 21 53 38 97 16
44 35 83 41 87 6 4 57 22 113 40 57 18 103 36 103 41 0 4 -19 8 -42 8 -24 1
-35 3 -25 6 9 2 17 8 17 11 0 4 10 18 23 32 27 31 30 82 4 92 -9 4 -22 19 -27
33 -5 14 -15 25 -21 25 -7 0 -9 -3 -6 -7 4 -3 -2 -13 -14 -21 -11 -8 -18 -20
-15 -28 9 -24 0 -16 -27 24 -32 47 -42 118 -19 127 11 4 24 -2 36 -17 17 -20
18 -20 11 -3 -4 11 -11 40 -16 65 -15 73 -63 159 -141 249 -104 119 -144 176
-187 261 -51 101 -104 183 -98 150z m357 -710 c0 -5 -9 -10 -21 -10 -11 0 -17
5 -14 10 3 6 13 10 21 10 8 0 14 -4 14 -10z"/>
<path d="M8324 10226 c1 -26 80 -73 92 -55 4 7 3 9 -4 5 -6 -3 -13 -2 -17 4
-3 5 0 10 7 10 8 0 6 5 -5 11 -9 6 -14 16 -11 22 5 8 3 8 -7 0 -16 -15 -33
-17 -24 -3 3 6 0 10 -7 10 -9 0 -9 3 2 10 12 7 11 9 -6 8 -14 -2 -21 -9 -20
-22z"/>
<path d="M8561 10163 c0 -7 -8 -13 -16 -13 -8 0 -15 -4 -15 -10 0 -5 -7 -10
-15 -10 -9 0 -20 -11 -25 -25 -5 -14 -14 -25 -19 -25 -5 0 -12 -8 -16 -17 -3
-10 13 0 36 22 23 22 39 32 36 23 -5 -13 -1 -18 13 -18 11 0 20 5 20 10 0 6 8
10 18 10 9 0 23 4 30 9 10 6 9 11 -4 22 -11 9 -15 9 -10 2 5 -9 2 -11 -8 -7
-8 3 -17 13 -19 22 -3 10 -5 11 -6 5z"/>
<path d="M7530 10129 c28 -28 56 -33 65 -11 4 11 0 13 -16 9 -12 -3 -33 2 -48
10 l-26 17 25 -25z"/>
<path d="M7630 10060 c-21 -7 -22 -8 -5 -10 11 -1 14 -4 8 -7 -7 -2 -13 -9
-13 -14 0 -14 18 -1 30 22 6 10 9 19 8 18 -2 -1 -14 -5 -28 -9z"/>
<path d="M8398 9989 c-10 -6 -22 -18 -28 -28 -8 -16 -7 -18 10 -14 19 5 46 40
38 48 -2 2 -11 -1 -20 -6z"/>
<path d="M27077 9828 c-14 -20 -18 -21 -27 -8 -9 13 -11 13 -21 0 -8 -11 -12
-12 -16 -2 -2 6 -9 12 -14 12 -6 0 -8 -3 -5 -8 2 -4 -2 -16 -10 -26 -11 -16
-16 -17 -29 -6 -16 13 -19 8 -15 -25 2 -18 0 -17 -20 5 -21 24 -21 25 -10 2 7
-13 9 -27 5 -30 -6 -7 -10 -8 -35 -11 -7 -1 -7 -7 0 -21 7 -14 7 -20 0 -20 -5
0 -10 6 -10 13 0 7 -3 8 -8 2 -4 -5 -12 -10 -18 -10 -6 0 -27 -15 -48 -33 -34
-29 -36 -34 -22 -48 18 -17 21 -28 6 -19 -6 3 -7 -1 -4 -9 3 -9 10 -16 15 -16
4 0 6 -8 2 -17 -3 -10 -2 -15 2 -11 5 5 15 -1 23 -13 17 -24 23 -67 10 -75 -4
-3 -6 -9 -3 -14 8 -13 -25 -21 -61 -14 -45 8 -55 0 -43 -35 l10 -29 117 -4
c64 -2 124 -7 132 -12 8 -6 27 -11 43 -13 l29 -3 -8 57 c-22 148 -4 280 51
396 23 47 25 67 6 67 -5 0 -16 -10 -24 -22z m33 2 c0 -5 -5 -10 -11 -10 -5 0
-7 5 -4 10 3 6 8 10 11 10 2 0 4 -4 4 -10z m-40 -35 c0 -2 -7 -8 -15 -15 -12
-10 -15 -10 -15 2 0 8 7 15 15 15 8 0 15 -1 15 -2z m-130 -84 c0 -23 -16 -36
-25 -21 -9 14 1 40 15 40 5 0 10 -9 10 -19z"/>
<path d="M26781 9674 c0 -11 3 -14 6 -6 3 7 2 16 -1 19 -3 4 -6 -2 -5 -13z"/>
<path d="M26630 9636 c18 -25 36 -44 38 -41 7 6 42 -25 42 -37 0 -4 8 -16 19
-27 10 -10 21 -25 23 -32 4 -12 7 -12 21 -1 17 14 12 44 -7 41 -24 -4 -44 12
-39 32 4 13 0 19 -13 19 -9 0 -15 3 -11 6 7 7 -47 55 -82 74 -22 11 -21 8 9
-34z"/>
<path d="M8152 9640 c0 -14 2 -19 5 -12 2 6 2 18 0 25 -3 6 -5 1 -5 -13z"/>
<path d="M8132 9565 c-20 -95 -21 -130 -2 -51 11 44 19 85 17 90 -2 6 -9 -11
-15 -39z"/>
<path d="M8022 9480 c0 -14 2 -19 5 -12 2 6 2 18 0 25 -3 6 -5 1 -5 -13z"/>
<path d="M8012 9430 c0 -14 2 -19 5 -12 2 6 2 18 0 25 -3 6 -5 1 -5 -13z"/>
<path d="M8102 9410 c0 -14 2 -19 5 -12 2 6 2 18 0 25 -3 6 -5 1 -5 -13z"/>
<path d="M7987 9322 c-20 -91 -21 -114 -3 -55 15 45 30 133 23 133 -2 0 -11
-35 -20 -78z"/>
<path d="M8086 9359 c-10 -32 -37 -191 -33 -195 2 -2 13 42 25 98 12 55 20
103 17 106 -2 3 -6 -1 -9 -9z"/>
<path d="M7962 9200 c0 -14 2 -19 5 -12 2 6 2 18 0 25 -3 6 -5 1 -5 -13z"/>
<path d="M28050 9205 c0 -10 54 -75 63 -75 15 0 6 27 -16 46 -30 26 -47 37
-47 29z"/>
<path d="M27892 9188 c2 -6 17 -16 32 -21 23 -8 32 -6 49 12 l21 21 -53 0
c-36 0 -51 -4 -49 -12z"/>
<path d="M7937 9090 c-9 -46 -15 -85 -13 -88 6 -6 38 146 34 160 -2 6 -12 -26
-21 -72z"/>
<path d="M8036 9120 c-16 -67 -25 -117 -25 -135 1 -11 9 16 20 60 10 44 17 85
15 90 -2 6 -6 -1 -10 -15z"/>
<path d="M27060 9027 c0 -20 4 -38 9 -42 6 -3 7 10 4 32 -8 50 -13 55 -13 10z"/>
<path d="M26957 9016 c-8 -9 -23 -16 -31 -16 -9 0 -16 -4 -16 -10 0 -5 6 -10
13 -10 8 0 7 -3 -3 -10 -9 -6 -17 -5 -22 3 -4 7 -6 -2 -5 -20 2 -17 9 -38 15
-46 7 -8 9 -17 5 -20 -3 -4 4 -7 16 -7 14 0 25 -7 28 -20 3 -11 9 -17 14 -14
5 3 9 -2 9 -11 0 -9 4 -14 9 -11 5 3 31 -14 57 -39 l49 -45 -42 14 c-41 14
-43 14 -43 -4 0 -12 9 -21 28 -25 53 -12 62 -26 71 -121 5 -49 14 -101 20
-116 6 -16 8 -28 6 -28 -3 0 4 -16 15 -36 11 -19 18 -39 15 -45 -4 -5 1 -9 10
-9 8 0 20 -11 25 -25 5 -14 15 -25 21 -25 8 0 8 -4 -1 -15 -11 -13 -6 -15 35
-15 53 0 139 -22 202 -52 47 -22 64 -18 56 12 -4 16 -2 19 11 14 9 -3 16 -12
16 -20 0 -8 6 -14 14 -14 21 0 8 34 -17 45 -12 6 -26 20 -32 32 -13 30 -48 48
-71 35 -26 -13 -85 -7 -95 10 -5 7 -7 23 -4 36 4 15 1 22 -10 22 -8 0 -15 6
-15 13 0 7 -9 18 -19 24 -41 25 -62 106 -28 102 26 -3 37 2 37 15 0 8 15 17
36 21 l36 6 -21 20 -22 20 -18 -22 c-19 -24 -47 -21 -58 6 -8 23 14 68 31 62
24 -9 27 42 4 54 -24 13 -35 5 -20 -14 9 -10 3 -13 -27 -14 -36 -2 -40 1 -56
37 -10 22 -26 47 -37 57 -10 9 -26 32 -35 50 -15 32 -33 44 -33 23 0 -5 -5
-10 -11 -10 -6 0 -9 9 -6 20 3 11 1 20 -4 20 -5 0 -9 -7 -9 -15 0 -8 -4 -15
-8 -15 -4 0 -8 9 -8 20 0 11 4 20 8 20 5 0 4 9 -2 19 -13 26 -13 44 1 35 7 -4
3 7 -7 25 -12 20 -24 29 -33 26 -8 -3 -17 -1 -21 5 -5 8 -12 7 -23 -4z m63
-36 c0 -10 -7 -21 -16 -24 -22 -9 -32 3 -14 14 9 6 10 10 3 10 -20 0 -42 -30
-37 -48 5 -14 4 -14 -4 -3 -9 13 -3 45 13 71 9 15 55 -2 55 -20z m-10 -110 c0
-5 -2 -10 -4 -10 -3 0 -8 5 -11 10 -3 6 -1 10 4 10 6 0 11 -4 11 -10z m46 -50
c14 0 39 -38 31 -46 -10 -10 -79 65 -71 77 5 9 10 6 17 -9 6 -12 16 -22 23
-22z m34 15 c0 -8 5 -15 12 -15 6 0 8 -3 5 -6 -8 -8 -37 14 -37 27 0 5 5 9 10
9 6 0 10 -7 10 -15z"/>
<path d="M7912 8970 c0 -14 2 -19 5 -12 2 6 2 18 0 25 -3 6 -5 1 -5 -13z"/>
<path d="M8001 8944 c0 -11 3 -14 6 -6 3 7 2 16 -1 19 -3 4 -6 -2 -5 -13z"/>
<path d="M7891 8879 c-7 -33 -10 -63 -8 -65 2 -3 10 23 16 57 7 33 10 63 8 65
-2 3 -10 -23 -16 -57z"/>
<path d="M26855 8920 c-3 -5 -1 -10 4 -10 6 0 11 5 11 10 0 6 -2 10 -4 10 -3
0 -8 -4 -11 -10z"/>
<path d="M25867 8808 c-25 -62 -49 -121 -53 -131 -4 -11 3 -32 20 -57 14 -22
26 -48 26 -57 1 -15 2 -16 9 -3 8 13 83 194 111 266 7 17 1 29 -29 58 l-37 36
-47 -112z"/>
<path d="M7871 8784 c0 -11 3 -14 6 -6 3 7 2 16 -1 19 -3 4 -6 -2 -5 -13z"/>
<path d="M27410 8766 c0 -9 5 -16 10 -16 6 0 10 4 10 9 0 6 -4 13 -10 16 -5 3
-10 -1 -10 -9z"/>
<path d="M26059 8697 c-122 -211 -151 -257 -160 -257 -5 0 -4 -9 3 -19 7 -11
15 -18 19 -15 4 2 10 0 14 -6 11 -18 23 -11 71 40 71 75 145 211 157 288 1 7
-13 19 -30 27 l-33 14 -41 -72z"/>
<path d="M7861 8734 c0 -11 3 -14 6 -6 3 7 2 16 -1 19 -3 4 -6 -2 -5 -13z"/>
<path d="M27380 8736 c0 -2 7 -7 16 -10 8 -3 12 -2 9 4 -6 10 -25 14 -25 6z"/>
<path d="M27630 8665 c-11 -13 -10 -14 4 -9 9 3 16 10 16 15 0 13 -6 11 -20
-6z"/>
<path d="M27396 8567 c-6 -23 9 -47 30 -47 19 0 18 16 -2 24 -13 5 -14 9 -5
20 9 10 8 15 -3 19 -9 4 -16 -2 -20 -16z"/>
<path d="M25344 8538 c-4 -7 -3 -8 4 -4 7 4 12 1 12 -9 0 -8 12 -20 27 -26 15
-6 31 -16 35 -22 6 -9 8 -9 8 0 0 7 7 10 15 7 23 -9 18 -19 -11 -20 -33 -2
-40 -10 -24 -29 10 -12 10 -15 -4 -15 -9 0 -16 5 -16 10 0 19 -18 10 -23 -11
-3 -12 -3 -18 0 -15 3 3 18 -3 33 -14 l27 -19 12 25 c9 20 9 30 0 40 -11 14
-10 15 11 18 9 1 40 50 40 62 0 7 -82 25 -93 21 -7 -2 -20 0 -29 4 -11 6 -19
5 -24 -3z m86 -28 c0 -5 -5 -10 -11 -10 -5 0 -7 5 -4 10 3 6 8 10 11 10 2 0 4
-4 4 -10z"/>
<path d="M27620 8540 c0 -5 6 -10 14 -10 8 0 18 5 21 10 3 6 -3 10 -14 10 -12
0 -21 -4 -21 -10z"/>
<path d="M24250 8501 c0 -7 -4 -9 -10 -6 -5 3 -10 1 -10 -4 0 -6 4 -11 9 -11
13 0 25 20 17 27 -3 4 -6 1 -6 -6z"/>
<path d="M27630 8496 c0 -9 -5 -16 -11 -16 -5 0 -7 -4 -4 -10 3 -5 17 -10 31
-10 21 0 25 4 22 22 -3 26 -38 38 -38 14z"/>
<path d="M25365 8469 c-4 -6 -5 -12 -2 -15 2 -3 7 2 10 11 7 17 1 20 -8 4z"/>
<path d="M25865 8420 c-3 -5 1 -10 10 -10 9 0 13 5 10 10 -3 6 -8 10 -10 10
-2 0 -7 -4 -10 -10z"/>
<path d="M26223 8413 c-35 -5 -46 -23 -14 -23 24 0 88 -26 96 -40 3 -5 0 -7
-9 -4 -8 3 -24 1 -35 -5 -17 -10 -20 -9 -15 4 4 8 -9 1 -29 -17 -47 -45 -65
-58 -76 -58 -5 0 -12 6 -15 13 -3 9 -8 7 -19 -5 -8 -10 -22 -15 -34 -12 -11 3
-24 1 -27 -5 -5 -7 2 -11 16 -12 17 -1 18 -3 6 -6 -10 -2 -18 -9 -18 -15 0 -6
-10 -8 -21 -5 -22 6 -49 -12 -49 -32 0 -18 -18 -12 -23 7 -4 16 -5 16 -6 -1
-1 -15 -5 -16 -21 -7 -16 8 -22 8 -26 -4 -3 -8 -11 -13 -18 -10 -7 3 -13 -2
-13 -11 0 -8 4 -15 9 -15 5 0 13 -12 19 -27 12 -33 12 -38 -1 -39 -23 -3 -24
-5 -10 -14 12 -7 12 -12 2 -22 -10 -10 -15 -10 -22 2 -5 8 -10 10 -10 4 0 -7
9 -22 21 -35 14 -17 19 -19 15 -7 -3 10 -1 20 3 23 5 2 11 -6 13 -20 5 -23
-17 -45 -24 -25 -2 5 -16 12 -31 16 -27 6 -28 6 -15 -15 7 -11 20 -21 30 -21
10 0 18 -9 20 -22 2 -13 8 -22 14 -21 5 1 10 -7 10 -17 0 -12 -5 -16 -16 -12
-22 9 -40 29 -32 37 4 4 0 5 -8 3 -8 -1 -19 -12 -25 -23 -9 -17 -5 -26 27 -56
21 -20 38 -38 38 -42 0 -3 -16 -4 -35 -3 -19 2 -35 -1 -35 -5 0 -5 12 -9 26
-9 14 0 23 -4 19 -10 -5 -9 18 -14 60 -13 6 0 10 -12 10 -26 -2 -35 12 -61 29
-55 8 3 17 0 22 -7 4 -8 3 -10 -5 -5 -15 10 -3 -46 13 -56 6 -4 12 -12 12 -18
1 -5 3 -13 4 -17 2 -5 4 -21 4 -38 1 -21 6 -29 17 -27 12 1 15 -5 11 -27 -2
-16 1 -38 7 -50 l12 -21 45 26 c25 15 48 24 51 20 4 -3 2 -6 -4 -6 -10 0 -44
-25 -121 -86 -76 -62 -158 -194 -202 -327 -17 -54 -20 -79 -15 -120 5 -29 8
-62 7 -74 0 -14 4 -20 11 -16 6 4 8 0 4 -10 -3 -9 -2 -19 3 -22 6 -4 11 2 11
12 2 35 4 39 21 56 14 14 17 14 22 2 3 -8 3 -22 0 -30 -4 -8 -2 -21 3 -28 6
-6 18 -64 28 -127 20 -130 38 -179 30 -82 -4 40 -2 62 5 62 7 0 8 6 0 19 -13
25 -13 41 0 41 6 0 10 -5 10 -10 0 -6 9 -20 20 -32 18 -20 18 -22 2 -34 -15
-12 -14 -14 16 -20 22 -4 31 -11 28 -20 -3 -8 0 -11 9 -8 8 3 13 11 12 17 -1
7 7 11 18 9 11 -2 30 -5 43 -7 12 -2 22 1 22 6 0 6 5 7 10 4 6 -3 8 -18 5 -33
-3 -15 -2 -21 1 -14 3 6 12 12 20 12 7 0 11 6 8 14 -4 10 5 16 28 22 18 4 27
9 21 11 -28 10 -11 24 22 17 l34 -6 -6 36 c-4 25 -2 36 7 36 7 0 10 8 7 20 -3
12 0 20 8 20 8 0 11 8 8 20 -3 11 0 20 6 20 6 0 11 -3 12 -7 0 -5 2 -18 5 -31
3 -17 0 -21 -8 -16 -7 4 -10 4 -6 -1 4 -4 2 -15 -5 -24 -11 -14 -10 -14 6 -2
15 12 17 11 17 -13 0 -35 16 -25 25 15 5 20 2 38 -9 54 -9 14 -15 43 -14 72 2
55 9 75 18 49 5 -14 10 -10 25 20 11 21 27 40 35 42 13 5 13 3 1 -11 -7 -10
-9 -17 -3 -17 13 0 24 29 15 42 -3 6 -1 8 4 5 6 -4 16 0 23 8 6 7 17 12 24 9
7 -3 13 2 13 10 0 8 -5 12 -11 9 -6 -3 -6 0 1 7 7 7 23 14 35 15 13 1 22 7 21
13 -2 6 4 9 12 6 11 -5 13 -2 9 11 -5 13 -3 16 7 13 8 -3 23 2 34 11 18 15 19
15 6 -1 -9 -13 -10 -18 -2 -18 7 0 17 14 22 30 6 17 15 30 21 30 5 0 6 5 3 10
-3 6 -2 10 4 10 6 0 8 7 4 17 -5 12 -2 15 13 11 23 -6 47 15 33 29 -13 13 -21
83 -9 83 6 0 10 11 10 25 0 28 3 29 29 16 15 -9 17 -6 13 20 -2 16 -8 29 -13
29 -5 0 -9 4 -9 10 0 5 7 7 15 4 9 -4 19 3 26 20 7 15 19 25 28 24 10 -2 17 6
19 20 2 15 9 22 17 18 16 -6 30 10 38 41 6 27 -8 39 -28 23 -10 -9 -15 -7 -20
9 -3 12 -11 21 -18 21 -6 0 -26 15 -44 32 -19 18 -41 33 -50 33 -23 0 -42 33
-25 44 7 4 10 15 6 24 -5 15 -3 16 20 7 20 -7 25 -7 20 1 -4 7 -1 10 7 7 8 -3
14 -10 14 -16 0 -13 74 -70 142 -108 29 -16 53 -36 53 -44 0 -10 3 -11 8 -4 4
6 15 10 25 8 25 -3 22 0 -28 32 -25 15 -47 36 -51 46 -3 10 -8 17 -12 16 -13
-4 -62 34 -56 43 3 5 0 9 -7 9 -6 0 -20 9 -30 21 -10 11 -23 18 -28 14 -7 -3
-11 3 -11 14 0 15 -6 21 -22 21 -12 0 -19 3 -15 6 3 4 1 12 -6 20 -29 33 -37
44 -37 54 0 5 -6 10 -12 10 -53 2 -135 157 -153 285 -5 43 -10 51 -28 52 -12
1 -27 10 -34 19 -6 9 -16 13 -22 10 -5 -4 -12 3 -16 14 -4 13 -14 19 -28 17
-17 -1 -22 3 -21 21 0 15 -4 21 -12 18 -13 -5 -34 31 -49 82 -7 23 -16 24 -92
15z m482 -613 c14 -16 16 -23 7 -32 -9 -9 -12 -8 -12 6 0 11 -8 25 -17 32 -10
7 -13 14 -7 14 6 0 19 -9 29 -20z m-335 -19 c5 -11 10 -22 10 -26 0 -9 -49 28
-50 38 0 15 30 6 40 -12z m2 -57 c42 -29 53 -46 13 -20 -19 13 -30 14 -45 6
-14 -7 -20 -7 -20 0 0 5 -13 10 -30 10 -16 0 -30 4 -30 8 0 32 64 29 112 -4z
m-176 -51 c16 -21 18 -33 5 -33 -12 0 -41 29 -41 41 0 15 22 10 36 -8z m277
-20 c5 17 36 -9 33 -28 -4 -29 -17 -28 -49 5 -23 24 -26 30 -10 22 16 -9 22
-9 26 1z m77 -27 c0 -3 -4 -8 -10 -11 -5 -3 -10 -1 -10 4 0 6 5 11 10 11 6 0
10 -2 10 -4z m-355 -16 c-3 -5 -10 -10 -16 -10 -5 0 -9 5 -9 10 0 6 7 10 16
10 8 0 12 -4 9 -10z m169 -20 c15 -15 -2 -24 -19 -10 -13 11 -15 8 -15 -19 0
-38 -25 -42 -42 -7 -17 39 -4 60 34 52 18 -3 37 -11 42 -16z m46 -65 c13 -16
6 -81 -10 -87 -5 -2 -7 -13 -3 -26 4 -17 11 -22 24 -19 16 4 19 -1 19 -28 0
-37 -16 -56 -26 -31 -9 23 -24 20 -24 -4 0 -11 -5 -20 -11 -20 -6 0 -9 9 -6
20 3 10 0 21 -7 24 -7 3 -6 8 4 15 8 5 11 13 7 18 -5 4 -12 1 -17 -7 -7 -11
-12 -12 -20 -4 -12 12 -3 44 11 44 17 0 9 20 -15 41 -20 18 -23 25 -13 40 8
12 15 15 23 8 8 -6 13 -3 17 11 6 24 29 26 47 5z m-175 -5 c3 -5 -1 -10 -9
-10 -9 0 -16 5 -16 10 0 6 4 10 9 10 6 0 13 -4 16 -10z m40 -9 c3 -5 1 -12 -5
-16 -5 -3 -10 1 -10 9 0 18 6 21 15 7z m290 -12 c7 -21 -7 -39 -31 -39 -17 0
-36 48 -21 54 27 10 46 5 52 -15z m-251 -52 c9 -14 7 -21 -6 -31 -13 -10 -15
-15 -6 -24 9 -9 8 -12 -4 -12 -25 0 -33 21 -14 36 10 7 13 15 7 18 -5 3 -11 1
-13 -6 -4 -10 -9 -9 -21 3 -10 11 -12 20 -6 26 16 16 51 10 63 -10z m290 -13
c9 -32 -5 -48 -32 -39 -21 6 -21 25 1 53 15 19 24 15 31 -14z m-285 -137 c28
-45 30 -49 8 -29 -14 13 -39 50 -56 82 -36 67 -42 93 -8 37 12 -20 37 -61 56
-90z m243 50 c-4 -17 -5 -17 -19 3 -17 24 -8 46 11 28 7 -7 11 -21 8 -31z
m-222 -17 c0 -5 -4 -10 -9 -10 -6 0 -13 5 -16 10 -3 6 1 10 9 10 9 0 16 -4 16
-10z m180 -10 c0 -11 -4 -20 -9 -20 -5 0 -7 9 -4 20 3 11 7 20 9 20 2 0 4 -9
4 -20z m42 -45 c-4 -24 -25 -34 -36 -16 -3 4 0 20 7 34 15 32 36 18 29 -18z
m-288 19 c4 -10 1 -14 -6 -12 -15 5 -23 28 -10 28 5 0 13 -7 16 -16z m26 -102
c-37 -4 -35 -5 -44 30 l-6 27 41 -27 42 -27 -33 -3z m139 22 c-15 -18 -29 -18
-29 1 0 9 6 12 17 8 12 -5 14 -3 8 7 -5 9 -4 11 4 6 9 -6 9 -11 0 -22z m33
-96 c-7 -7 -12 -8 -12 -2 0 14 12 26 19 19 2 -3 -1 -11 -7 -17z m-60 -97 c-9
-16 -18 -28 -21 -26 -4 5 27 55 34 55 2 0 -4 -13 -13 -29z m-289 -366 c-3 -9
-8 -14 -10 -11 -3 3 -2 9 2 15 9 16 15 13 8 -4z"/>
<path d="M25864 8360 c0 -22 2 -40 3 -40 9 0 73 46 73 53 0 7 -25 11 -44 8 -4
-1 -14 3 -21 9 -10 8 -12 2 -11 -30z"/>
<path d="M25350 8364 c17 -22 52 -53 61 -54 4 0 9 11 11 24 4 20 0 25 -21 29
-14 3 -35 9 -46 13 -18 7 -19 6 -5 -12z"/>
<path d="M27580 8354 c0 -8 -4 -13 -9 -10 -4 3 -1 -10 8 -28 17 -35 21 -37 25
-14 6 30 19 48 35 49 9 1 6 4 -9 9 -39 12 -50 11 -50 -6z"/>
<path d="M25361 8280 c-9 -5 -10 -10 -2 -14 6 -4 11 -15 11 -25 0 -21 -33 -34
-47 -20 -6 6 -10 -3 -10 -22 0 -22 6 -34 23 -41 38 -18 57 2 60 65 3 56 -8 74
-35 57z"/>
<path d="M26475 8280 c-3 -6 1 -7 9 -4 18 7 21 14 7 14 -6 0 -13 -4 -16 -10z"/>
<path d="M25371 8074 c0 -11 3 -14 6 -6 3 7 2 16 -1 19 -3 4 -6 -2 -5 -13z"/>
<path d="M25795 8030 c3 -5 11 -10 16 -10 6 0 7 5 4 10 -3 6 -11 10 -16 10 -6
0 -7 -4 -4 -10z"/>
<path d="M25307 7913 c-13 -12 -7 -19 18 -21 28 -2 34 12 9 22 -19 7 -19 7
-27 -1z"/>
<path d="M25220 7879 c-14 -5 -47 -11 -74 -15 -73 -9 -43 -23 54 -25 47 -1 91
-6 97 -11 7 -6 19 -8 27 -5 8 3 17 -1 20 -9 7 -19 26 -18 26 2 0 9 -5 12 -12
8 -7 -5 -9 -2 -6 8 7 18 -19 43 -47 44 -11 1 -29 3 -40 6 -11 3 -31 2 -45 -3z"/>
<path d="M25068 7843 c7 -3 16 -2 19 1 4 3 -2 6 -13 5 -11 0 -14 -3 -6 -6z"/>
<path d="M24904 7718 l-22 -10 25 -37 c16 -24 31 -35 43 -33 35 6 134 -18 182
-43 26 -14 55 -25 63 -25 9 0 38 -22 65 -50 27 -27 54 -50 61 -50 7 0 22 -9
33 -19 21 -20 21 -20 21 4 0 18 -16 32 -75 68 -173 103 -363 208 -372 206 -2
0 -13 -5 -24 -11z"/>
<path d="M25400 7691 c0 -8 -6 -11 -16 -7 -9 3 -12 2 -9 -5 4 -5 15 -7 26 -4
15 5 23 -1 34 -27 8 -18 14 -25 15 -16 0 9 -11 30 -25 45 -14 16 -25 22 -25
14z"/>
<path d="M25521 7600 c-9 -26 -8 -35 1 -41 9 -6 8 -12 -4 -26 -15 -17 -15 -20
10 -44 15 -15 41 -34 57 -42 38 -21 15 -21 -58 -2 -32 8 -70 15 -85 15 l-27 0
34 -28 c42 -33 93 -65 143 -90 21 -10 36 -21 33 -24 -3 -3 11 -13 30 -24 19
-10 35 -22 35 -27 0 -4 4 -6 9 -3 5 3 19 -2 32 -12 13 -10 34 -17 47 -16 23 1
23 0 18 -70 -5 -56 -11 -75 -27 -89 -12 -10 -19 -20 -15 -24 3 -3 0 -13 -7
-22 -18 -22 -48 -102 -41 -112 3 -5 -1 -9 -8 -9 -11 0 -11 -2 0 -8 9 -6 10
-16 4 -33 -5 -13 -10 -54 -11 -91 -2 -56 1 -68 13 -68 9 0 16 -4 16 -10 0 -5
-4 -10 -10 -10 -5 0 -7 -8 -3 -17 6 -16 4 -16 -15 1 -35 30 -123 173 -144 234
-11 30 -32 80 -47 111 -16 31 -31 69 -35 86 l-8 30 -13 -25 c-8 -14 -12 -33
-9 -42 3 -11 0 -18 -7 -18 -7 0 -10 -3 -6 -6 3 -4 0 -19 -8 -35 -19 -36 -19
-42 3 -35 15 5 15 4 1 -6 -13 -9 -15 -18 -7 -47 7 -25 7 -36 -1 -39 -9 -3 -9
-7 0 -18 6 -8 16 -11 22 -7 6 3 7 1 3 -5 -4 -6 -14 -8 -24 -5 -16 7 -16 5 1
-20 9 -15 13 -27 7 -27 -5 0 -10 -5 -10 -10 0 -6 11 -8 25 -4 19 5 25 2 25
-10 0 -9 5 -16 10 -16 15 0 12 -33 -6 -58 -9 -13 -13 -26 -10 -29 3 -3 -3 -13
-13 -22 -10 -9 -18 -29 -18 -45 0 -18 2 -24 8 -15 4 7 6 16 5 19 -2 3 10 18
26 34 36 37 35 29 -3 -35 -24 -41 -28 -57 -21 -73 9 -20 10 -20 22 9 7 17 12
38 11 48 -1 9 3 17 8 17 6 0 11 7 11 16 0 14 2 14 16 -1 9 -9 23 -14 31 -11
19 8 47 -20 39 -40 -4 -10 -2 -13 6 -8 8 5 9 2 5 -9 -5 -12 -1 -17 14 -17 16
0 18 -3 9 -19 -17 -33 -12 -40 35 -38 25 1 45 5 45 8 0 4 9 9 21 12 16 4 19 2
14 -11 -4 -12 1 -10 18 6 13 13 28 22 33 21 21 -4 24 2 13 23 -18 33 -36 135
-28 151 13 22 31 184 34 297 3 132 16 160 134 288 47 51 88 97 90 103 7 21
-112 -3 -180 -36 -50 -24 -75 -16 -155 52 -58 50 -73 70 -109 147 l-42 89 -12
-33z"/>
<path d="M25435 7600 c-3 -5 -2 -10 4 -10 5 0 13 5 16 10 3 6 2 10 -4 10 -5 0
-13 -4 -16 -10z"/>
<path d="M26915 7580 c3 -5 10 -10 16 -10 5 0 9 5 9 10 0 6 -7 10 -16 10 -8 0
-12 -4 -9 -10z"/>
<path d="M22475 7440 c-3 -5 -1 -10 4 -10 6 0 11 5 11 10 0 6 -2 10 -4 10 -3
0 -8 -4 -11 -10z"/>
<path d="M22626 7425 c4 -9 0 -15 -7 -16 -67 -4 -79 -3 -79 4 0 4 -8 7 -17 6
-11 0 -13 -3 -5 -6 24 -9 12 -22 -18 -18 -20 2 -30 -1 -30 -9 0 -15 69 -11 85
5 13 13 25 11 23 -3 -2 -7 10 -12 30 -13 23 0 31 4 27 13 -3 7 0 22 5 33 8 15
7 19 -4 19 -10 0 -13 -6 -10 -15z"/>
<path d="M22290 7399 c0 -5 5 -7 10 -4 6 3 10 8 10 11 0 2 -4 4 -10 4 -5 0
-10 -5 -10 -11z"/>
<path d="M22507 7353 c-15 -2 -25 -9 -21 -14 3 -5 10 -7 15 -4 5 4 9 1 9 -6 0
-8 3 -9 13 0 8 6 17 8 21 4 4 -4 4 0 0 10 -3 9 -7 16 -8 16 0 -1 -13 -4 -29
-6z"/>
<path d="M22427 7324 c-8 -8 3 -34 15 -34 5 0 6 5 3 10 -3 6 -1 10 4 10 6 0
11 -4 11 -10 0 -5 7 -10 15 -10 8 0 15 5 15 11 0 5 -5 7 -10 4 -6 -3 -13 1
-16 9 -6 16 -25 21 -37 10z"/>
<path d="M22565 7320 c3 -5 8 -10 11 -10 2 0 4 5 4 10 0 6 -5 10 -11 10 -5 0
-7 -4 -4 -10z"/>
<path d="M22590 7300 c0 -5 5 -10 11 -10 5 0 7 5 4 10 -3 6 -8 10 -11 10 -2 0
-4 -4 -4 -10z"/>
<path d="M22560 7270 c-18 -12 -2 -12 25 0 13 6 15 9 5 9 -8 0 -22 -4 -30 -9z"/>
<path d="M26723 7260 c-1 -11 2 -22 6 -24 4 -3 7 4 6 14 -2 27 -10 33 -12 10z"/>
<path d="M22672 7263 c-19 -4 -21 -7 -11 -19 17 -20 39 -17 39 6 0 11 -1 19
-2 19 -2 -1 -13 -4 -26 -6z"/>
<path d="M22296 7230 c5 -4 32 -11 59 -14 32 -4 43 -3 30 2 -30 13 -100 23
-89 12z"/>
<path d="M22206 7218 c3 -4 11 -8 19 -8 8 0 16 4 19 8 2 4 -6 8 -19 8 -13 0
-21 -4 -19 -8z"/>
<path d="M22885 7171 c-8 -14 11 -23 48 -21 17 1 34 1 37 0 16 -5 50 -9 50 -5
0 2 -13 11 -30 20 -17 9 -30 11 -30 5 0 -13 -37 -13 -45 0 -8 13 -22 13 -30 1z"/>
<path d="M22720 7150 c-13 -8 -12 -10 3 -10 9 0 17 5 17 10 0 12 -1 12 -20 0z"/>
<path d="M23116 7143 c-8 -19 -9 -17 31 -31 44 -15 49 -1 8 25 -29 19 -34 20
-39 6z"/>
<path d="M22760 7134 c0 -11 6 -14 23 -8 47 14 53 23 15 24 -28 0 -38 -4 -38
-16z"/>
<path d="M22858 7134 c19 -9 14 -24 -5 -17 -15 5 -16 3 -6 -7 10 -10 15 -11
27 -1 10 8 35 10 78 7 47 -4 56 -3 34 3 -31 11 -148 24 -128 15z"/>
<path d="M24691 6987 c-11 -54 -81 -213 -100 -227 -3 -3 -17 -25 -30 -50 -33
-61 -59 -89 -95 -98 l-30 -8 34 -30 c96 -83 115 -103 151 -156 l39 -58 36 40
c22 25 56 47 90 60 88 32 154 25 237 -27 22 -14 41 -23 43 -21 2 2 13 68 24
146 11 78 27 161 35 184 17 50 19 78 5 78 -5 0 -10 -5 -10 -11 0 -6 -7 -9 -15
-5 -8 3 -15 2 -15 -2 0 -4 -24 -18 -52 -31 -29 -13 -71 -37 -94 -53 -29 -21
-55 -30 -93 -33 -29 -2 -55 -6 -58 -9 -14 -14 -35 -6 -28 12 4 9 10 23 13 31
3 8 1 12 -4 9 -5 -4 -10 10 -12 30 -1 19 -6 40 -10 46 -9 12 -31 102 -31 126
0 17 -12 114 -15 117 -1 1 -8 -26 -15 -60z"/>
<path d="M23635 6785 c-32 -26 -23 -35 11 -11 16 13 22 13 42 0 13 -8 44 -26
69 -40 25 -13 39 -24 29 -24 -9 0 -16 -4 -16 -10 0 -5 6 -10 13 -10 14 1 52
28 46 34 -3 3 -93 50 -159 83 -3 2 -18 -8 -35 -22z"/>
<path d="M24000 6725 c-8 -9 -8 -15 -2 -15 18 0 42 12 42 21 0 14 -26 10 -40
-6z"/>
<path d="M26460 6680 c0 -5 10 -15 23 -21 22 -12 22 -12 3 10 -21 23 -26 26
-26 11z"/>
<path d="M24035 6649 c-16 -4 -47 -7 -67 -8 -77 -2 -203 -78 -253 -152 -16
-24 -41 -54 -55 -66 -25 -23 -25 -23 -5 -35 20 -12 25 -14 45 -17 16 -2 12
-21 -5 -21 -17 0 -19 -9 -5 -30 7 -11 10 -12 10 -2 0 23 58 -30 72 -65 6 -18
15 -33 19 -33 4 0 10 -14 14 -30 4 -17 11 -27 17 -24 7 5 7 1 0 -12 -7 -13 -6
-24 5 -40 8 -13 12 -28 9 -33 -4 -5 -2 -12 4 -16 14 -9 13 -38 -2 -53 -14 -14
-18 -113 -5 -105 5 3 3 -4 -4 -14 -8 -14 -9 -25 -1 -38 7 -13 6 -24 -1 -37 -9
-13 -8 -26 2 -50 7 -18 14 -41 14 -50 1 -12 9 -18 25 -18 20 0 22 3 13 14 -9
11 -6 16 19 24 29 11 35 8 30 -13 -13 -64 -19 -165 -8 -165 4 0 8 9 8 20 0 18
40 50 40 33 0 -4 7 1 15 11 13 17 15 18 15 3 0 -9 5 -17 10 -17 6 0 10 5 10
12 0 9 3 9 12 0 9 -9 9 -15 0 -24 -7 -7 -12 -23 -12 -36 0 -13 -4 -21 -9 -18
-5 3 -11 -4 -14 -15 -3 -12 -10 -18 -16 -15 -5 4 -12 -3 -16 -14 -4 -11 -10
-18 -14 -16 -4 3 -13 -4 -20 -16 -7 -11 -8 -17 -2 -14 6 4 8 -6 4 -29 -3 -21
-2 -35 5 -35 5 0 12 -6 15 -14 5 -13 1 -12 -29 0 -31 13 -34 13 -34 -2 0 -11
6 -15 20 -11 25 7 26 -14 3 -50 -11 -17 -13 -24 -5 -19 10 6 12 -1 7 -33 -6
-44 -33 -124 -34 -103 -1 9 -6 10 -18 3 -10 -5 -33 -8 -51 -6 -18 1 -34 -1
-37 -5 -5 -9 176 -21 204 -13 23 6 34 37 51 136 6 37 15 80 21 95 6 15 17 68
26 117 24 140 37 163 92 155 8 -1 17 3 21 9 3 7 17 13 30 16 12 2 30 11 39 18
9 8 25 13 36 11 11 -3 27 -5 35 -6 13 -2 12 -11 -5 -65 -11 -34 -26 -63 -32
-63 -7 0 -30 16 -52 35 -42 38 -51 42 -51 22 0 -8 -12 -19 -26 -25 -14 -7 -23
-16 -20 -20 3 -5 -10 -53 -28 -108 -29 -89 -56 -200 -56 -233 0 -7 11 1 25 16
19 22 24 24 25 11 0 -10 7 -18 15 -18 11 0 14 -7 9 -25 -4 -15 -2 -25 5 -25 6
0 11 -15 11 -33 0 -23 8 -40 25 -55 30 -27 46 -28 39 -4 -5 16 -5 16 9 -1 9
-11 21 -15 32 -11 10 4 21 1 26 -7 7 -11 9 -10 9 4 0 11 4 15 12 11 15 -10 68
-11 68 -2 0 4 13 6 29 5 16 -1 27 -5 25 -8 -2 -4 3 -10 12 -13 8 -3 12 -2 9 4
-11 19 7 10 54 -24 32 -23 51 -32 61 -26 11 7 10 13 -5 37 -21 31 -31 68 -15
58 5 -3 10 -1 10 4 0 6 -7 11 -15 11 -22 0 -55 37 -55 60 0 21 30 29 31 8 0
-7 5 -2 11 12 6 15 12 20 15 12 3 -6 8 -10 13 -7 4 3 11 -7 15 -23 7 -27 7
-27 16 -5 6 16 3 36 -10 66 l-19 43 38 89 c76 184 68 170 90 150 13 -12 20
-31 20 -53 0 -57 29 -112 59 -113 16 -1 20 -3 9 -6 -10 -2 -15 -10 -11 -19 3
-8 0 -14 -6 -14 -6 0 -11 -6 -11 -13 0 -8 -9 -22 -20 -32 -10 -9 -25 -33 -31
-53 -14 -44 -14 -141 0 -155 8 -8 11 -7 11 2 0 11 3 11 15 1 8 -6 19 -9 25 -5
5 3 10 1 10 -4 0 -6 4 -11 10 -11 5 0 7 7 4 15 -4 9 0 15 10 15 9 0 16 -8 17
-17 0 -10 3 -13 5 -6 3 7 13 9 22 6 13 -5 12 0 -6 29 -12 19 -22 49 -22 66 0
31 29 110 30 80 0 -16 40 -23 40 -6 0 4 6 5 13 3 20 -8 72 10 72 26 0 20 18
37 32 32 14 -6 36 34 29 53 -7 18 -26 18 -26 0 0 -7 -7 -19 -16 -26 -13 -11
-16 -10 -21 8 -5 22 -23 31 -23 12 0 -6 -12 -15 -26 -20 -21 -8 -24 -13 -15
-24 10 -12 7 -14 -21 -10 -18 3 -37 6 -43 8 -8 3 -11 36 -6 76 2 18 29 11 45
-12 9 -12 16 -18 16 -13 0 6 5 3 11 -5 8 -12 9 -10 4 8 -5 16 -2 22 9 22 21 0
20 16 0 24 -9 4 -14 9 -10 13 9 10 46 -28 39 -41 -4 -6 1 -5 10 3 12 9 17 10
17 2 0 -8 6 -9 18 -2 31 16 73 -34 49 -58 -8 -8 -8 -11 1 -11 8 0 10 -9 6 -27
-3 -16 -2 -23 3 -18 4 6 21 10 36 10 16 -1 31 3 34 9 3 5 1 6 -5 2 -15 -9 -16
6 -1 21 14 14 7 59 -9 55 -8 -1 -11 2 -6 9 12 20 73 -61 74 -98 0 -17 5 -35
12 -39 7 -4 8 -3 4 5 -14 22 2 60 24 58 11 -1 20 -8 20 -16 0 -11 3 -10 13 4
8 10 19 15 24 12 9 -6 10 20 3 63 0 3 -5 -2 -10 -10 -8 -13 -10 -12 -10 3 0
24 -30 78 -52 95 -10 7 -18 21 -18 30 1 16 7 10 78 -71 4 -4 16 -14 26 -21 11
-7 20 -22 21 -32 0 -10 5 -19 9 -19 12 0 15 64 4 71 -4 3 -8 0 -8 -6 0 -6 -5
-8 -10 -5 -6 4 -7 11 -4 17 5 7 2 9 -8 6 -9 -4 -21 4 -31 21 -15 25 -15 27 4
28 16 2 18 -1 9 -12 -9 -11 -7 -14 9 -12 12 1 21 5 21 10 0 5 7 4 15 -3 10 -8
15 -9 15 -2 0 6 -10 17 -22 23 -30 16 -48 35 -41 43 3 3 -3 13 -14 23 -10 10
-14 14 -7 10 7 -4 16 -6 22 -5 12 4 102 -79 102 -94 0 -6 3 -9 6 -5 3 3 -3 26
-15 51 -18 41 -18 46 -3 46 12 0 13 3 4 12 -7 7 -12 23 -12 38 1 22 2 23 11 8
11 -20 40 -23 57 -6 12 12 0 46 -22 60 -6 5 6 6 26 4 36 -5 37 -4 27 21 -5 14
-7 28 -4 31 4 4 43 -75 58 -120 14 -41 44 -13 51 46 5 40 3 47 -9 42 -45 -17
-123 79 -210 257 -31 65 -59 116 -62 114 -7 -8 -43 25 -37 34 2 5 11 6 18 3
11 -4 11 5 -2 51 -12 44 -22 60 -44 71 -16 8 -26 19 -23 24 3 5 0 12 -6 16 -8
5 -9 3 -4 -6 5 -8 3 -11 -6 -8 -8 3 -13 11 -11 17 1 7 -1 10 -6 7 -10 -6 -53
39 -45 47 5 5 -20 15 -59 22 -13 3 -28 12 -34 20 -16 22 -27 18 -21 -7 l6 -23
-18 22 c-10 12 -21 19 -25 16 -3 -4 -6 -1 -6 5 0 7 5 12 11 12 5 0 7 5 3 11
-5 8 -9 8 -14 -1 -4 -7 -17 -10 -29 -7 -12 3 -24 1 -27 -5 -3 -5 -13 -7 -21
-4 -8 3 -24 -5 -37 -19 -13 -14 -26 -22 -29 -18 -4 3 -7 -1 -7 -10 0 -10 -5
-14 -15 -11 -10 4 -15 0 -15 -15 0 -12 -7 -24 -16 -28 -9 -3 -13 -12 -9 -22 8
-20 -60 -152 -96 -188 -28 -28 -106 -57 -115 -42 -3 5 -1 9 4 9 5 0 14 11 22
24 7 14 18 22 25 19 13 -4 75 52 75 68 0 5 6 9 14 9 20 0 45 32 29 37 -7 3
-13 13 -13 24 0 11 -7 22 -15 25 -8 4 -12 10 -9 15 3 5 -2 9 -11 9 -8 0 -18 7
-22 15 -3 9 -13 15 -22 14 -35 -3 -43 1 -38 20 3 11 -2 29 -10 40 -8 12 -11
21 -7 21 4 0 -5 11 -20 25 -15 14 -25 29 -22 34 3 5 -1 12 -9 15 -9 3 -20 17
-25 31 -6 15 -14 24 -19 21 -5 -4 -18 4 -28 17 -22 28 -50 47 -38 26 5 -8 -5
-1 -22 15 -16 16 -40 31 -53 33 -13 2 -28 9 -32 16 -4 6 -8 9 -8 5 0 -4 -17 2
-37 13 -21 12 -39 17 -41 11 -3 -11 -42 -4 -42 8 0 13 -43 20 -56 9 -7 -5 -14
-6 -16 -2 -1 5 -16 6 -33 2z m613 -454 c-3 -3 -9 2 -12 12 -6 14 -5 15 5 6 7
-7 10 -15 7 -18z m-133 -213 c-6 -7 -35 18 -35 31 0 5 9 2 20 -8 11 -10 18
-20 15 -23z m-115 18 c0 -5 -2 -10 -4 -10 -3 0 -8 5 -11 10 -3 6 -1 10 4 10 6
0 11 -4 11 -10z m357 -21 c16 -16 -9 -41 -31 -33 -25 9 -19 23 7 16 20 -5 21
-4 8 11 -15 19 -1 23 16 6z m480 -23 c-1 -29 -3 -32 -13 -19 -6 9 -9 25 -6 35
8 30 20 20 19 -16z m43 -6 c0 -5 -2 -10 -4 -10 -3 0 -8 5 -11 10 -3 6 -1 10 4
10 6 0 11 -4 11 -10z m-917 -16 c12 -12 -5 -32 -23 -27 -11 3 -16 11 -13 19 5
14 25 19 36 8z m422 -42 c-3 -3 -16 5 -28 17 l-22 23 28 -17 c15 -10 25 -20
22 -23z m-5 -23 c0 -14 -16 -11 -30 6 -7 8 -19 15 -26 15 -8 0 -14 7 -14 15 0
11 7 10 35 -6 19 -12 35 -25 35 -30z m-230 19 c31 -23 41 -65 17 -74 -28 -11
-72 -9 -73 4 -3 24 -4 24 -19 12 -11 -9 -12 -17 -5 -30 14 -26 12 -33 -5 -26
-8 3 -20 -3 -28 -14 -30 -43 -97 -29 -97 21 0 21 55 78 77 80 7 1 18 2 24 3 6
0 16 8 22 17 11 15 32 26 50 28 4 1 21 -9 37 -21z m785 -48 c2 -27 -14 -11
-20 20 -3 18 -2 21 7 12 6 -6 12 -21 13 -32z m-980 10 c3 -5 1 -10 -4 -10 -6
0 -11 5 -11 10 0 6 2 10 4 10 3 0 8 -4 11 -10z m-32 -15 c-3 -9 -8 -14 -10
-11 -3 3 -2 9 2 15 9 16 15 13 8 -4z m247 -111 c6 -14 10 -36 10 -49 0 -15 12
-33 33 -50 l32 -26 -23 -19 c-13 -10 -30 -16 -38 -13 -9 3 -20 0 -24 -7 -6 -9
-11 -7 -20 10 -11 20 -10 22 4 17 11 -4 16 -1 16 9 0 10 -6 14 -15 10 -9 -3
-19 3 -25 14 -16 29 -28 24 -32 -12 -2 -27 -7 -33 -28 -34 -13 -1 -39 10 -57
25 -27 21 -33 32 -31 56 3 28 5 30 48 30 28 0 50 -6 57 -15 11 -13 12 -11 13
10 0 61 61 94 80 44z m244 0 c3 -8 2 -12 -4 -9 -6 3 -10 10 -10 16 0 14 7 11
14 -7z m581 -13 c3 -5 2 -12 -3 -15 -5 -3 -9 1 -9 9 0 17 3 19 12 6z m-16 -97
c3 -16 1 -17 -13 -5 -19 16 -21 34 -3 29 6 -3 14 -13 16 -24z m-132 -9 c0 -8
-4 -12 -9 -9 -4 3 -8 9 -8 15 0 5 4 9 8 9 5 0 9 -7 9 -15z m53 -35 c8 -16 8
-18 -5 -14 -8 4 -15 10 -15 16 0 5 -4 6 -10 3 -6 -3 -7 1 -4 9 7 18 20 13 34
-14z m-776 -75 c-4 -8 -8 -15 -10 -15 -2 0 -4 7 -4 15 0 8 4 15 10 15 5 0 7
-7 4 -15z m610 -37 c-4 -6 -1 -9 7 -6 14 5 38 -19 38 -37 0 -5 -4 -2 -10 8 -5
9 -14 17 -19 17 -5 0 -7 -8 -4 -17 3 -10 -2 -7 -10 7 -18 29 -21 54 -6 45 6
-4 7 -11 4 -17z m-1160 -3 c-4 -8 -11 -15 -16 -15 -6 0 -5 6 2 15 7 8 14 15
16 15 2 0 1 -7 -2 -15z m1226 -78 c0 -5 -7 -6 -16 -3 -8 3 -12 2 -9 -4 3 -6
12 -10 20 -10 14 0 27 -24 18 -34 -3 -3 -12 2 -19 12 -11 14 -13 14 -14 2 0
-8 -7 -2 -15 14 -19 37 -19 36 10 34 14 -1 25 -6 25 -11z m-62 -32 c-3 -3 -9
2 -12 12 -6 14 -5 15 5 6 7 -7 10 -15 7 -18z m-338 0 c0 -8 -4 -15 -10 -15 -5
0 -10 7 -10 15 0 8 5 15 10 15 6 0 10 -7 10 -15z m-857 -70 c-7 -21 -13 -19
-13 6 0 11 4 18 10 14 5 -3 7 -12 3 -20z m852 7 c-3 -3 -11 0 -18 7 -9 10 -8
11 6 5 10 -3 15 -9 12 -12z m-292 -32 c3 -11 2 -20 -3 -20 -4 0 -10 11 -12 25
-6 29 7 25 15 -5z"/>
<path d="M26345 6650 c-3 -5 -1 -10 4 -10 6 0 11 5 11 10 0 6 -2 10 -4 10 -3
0 -8 -4 -11 -10z"/>
<path d="M26125 6560 c-3 -5 -1 -10 4 -10 6 0 11 5 11 10 0 6 -2 10 -4 10 -3
0 -8 -4 -11 -10z"/>
<path d="M25398 6492 c-9 -21 -14 -50 -11 -68 3 -20 -1 -34 -11 -43 -18 -15
-22 -36 -6 -26 20 13 60 105 60 140 0 45 -11 44 -32 -3z"/>
<path d="M25968 6430 c-21 -20 -23 -30 -5 -30 6 -1 37 -34 68 -73 52 -68 72
-100 113 -187 10 -19 27 -48 40 -63 23 -29 24 -29 78 -18 30 7 86 28 124 47
38 19 60 33 50 29 -16 -5 -17 -3 -6 10 7 9 19 14 27 11 7 -3 13 -1 13 5 0 7
-19 8 -57 3 -119 -17 -188 -3 -264 52 -51 37 -125 133 -149 192 -14 37 -16 38
-32 22z"/>
<path d="M25298 6348 c-8 -13 -17 -31 -21 -40 -3 -10 -11 -18 -17 -18 -17 0
-11 -29 9 -40 24 -12 74 -14 67 -2 -3 5 40 7 96 4 83 -4 100 -2 96 9 -3 8 -22
15 -44 17 -21 2 -43 10 -47 18 -4 8 -14 14 -21 14 -8 0 -16 7 -20 15 -6 17
-61 21 -71 5 -3 -5 -13 -10 -21 -10 -14 0 -13 2 0 16 15 14 22 34 12 34 -2 0
-10 -10 -18 -22z"/>
<path d="M25585 6206 c-56 -13 -51 -24 13 -24 35 -1 42 2 42 19 0 10 -1 18 -2
18 -2 -1 -25 -7 -53 -13z"/>
<path d="M25745 6160 c3 -5 12 -7 20 -3 21 7 19 13 -6 13 -11 0 -18 -4 -14
-10z"/>
<path d="M25880 6119 c0 -13 14 -17 35 -9 17 6 16 7 -8 12 -15 3 -27 2 -27 -3z"/>
<path d="M25910 5971 c5 -19 8 -37 5 -39 -3 -3 -1 -10 4 -16 5 -6 7 -23 4 -38
-5 -25 -10 -28 -47 -29 -33 -1 -36 -2 -16 -8 29 -8 40 -48 16 -57 -9 -3 -13
-10 -10 -15 3 -5 -6 -20 -20 -33 l-26 -23 37 -33 c24 -20 33 -34 26 -37 -7 -3
-13 -9 -13 -15 0 -6 7 -7 16 -4 10 4 13 2 8 -6 -5 -8 -2 -9 10 -5 10 4 15 3
11 -4 -4 -5 -1 -17 6 -25 9 -11 10 -17 2 -22 -8 -5 -7 -13 4 -27 15 -20 15
-20 8 3 -8 26 2 28 27 5 10 -9 18 -11 18 -6 0 6 -7 16 -15 23 -21 18 -19 35 3
19 9 -7 14 -9 10 -5 -4 5 -3 15 3 22 8 9 5 18 -10 33 -43 43 16 14 63 -31 25
-24 32 -27 34 -14 2 9 8 13 14 9 8 -4 9 0 5 11 -4 10 -3 15 3 11 6 -3 10 -1
10 4 0 6 8 11 18 11 11 0 7 6 -14 19 -33 20 -49 39 -41 47 2 3 11 -1 18 -8 39
-36 74 -7 45 37 -9 14 -15 27 -14 29 2 3 -12 20 -30 39 -23 24 -33 42 -30 58
2 17 -5 29 -29 44 -18 11 -32 26 -33 33 0 7 -12 18 -27 24 -16 7 -36 21 -45
32 -17 20 -17 20 -8 -13z m115 -102 c11 -17 -1 -21 -15 -4 -8 9 -8 15 -2 15 6
0 14 -5 17 -11z m-134 -151 c11 -21 11 -22 -4 -9 -10 7 -17 17 -17 22 0 15 9
10 21 -13z"/>
<path d="M25530 5946 c0 -2 7 -7 16 -10 8 -3 12 -2 9 4 -6 10 -25 14 -25 6z"/>
<path d="M25630 5890 c0 -5 5 -10 11 -10 5 0 7 5 4 10 -3 6 -8 10 -11 10 -2 0
-4 -4 -4 -10z"/>
<path d="M25788 5703 c7 -3 16 -2 19 1 4 3 -2 6 -13 5 -11 0 -14 -3 -6 -6z"/>
<path d="M22880 5626 c0 -2 8 -10 18 -17 15 -13 16 -12 3 4 -13 16 -21 21 -21
13z"/>
<path d="M23964 5591 c4 -6 3 -18 -4 -25 -6 -8 -13 -24 -15 -37 -4 -20 -3 -21
9 -8 20 20 28 66 14 75 -7 4 -8 3 -4 -5z"/>
<path d="M25850 5585 c12 -15 30 -12 30 6 0 5 -10 9 -21 9 -18 0 -19 -2 -9
-15z"/>
<path d="M25990 5594 c0 -4 8 -13 17 -20 10 -7 14 -16 9 -21 -5 -4 -11 -2 -13
5 -8 23 -20 12 -19 -17 1 -23 4 -27 14 -19 9 8 19 5 37 -12 14 -13 25 -19 25
-13 0 6 -7 16 -15 23 -8 7 -15 22 -15 34 0 12 -5 27 -12 34 -13 13 -28 16 -28
6z"/>
<path d="M26130 5566 c0 -2 8 -10 18 -17 15 -13 16 -12 3 4 -13 16 -21 21 -21
13z"/>
<path d="M22951 5526 c-9 -11 -10 -20 -1 -36 8 -15 8 -30 2 -49 -12 -33 12
-68 43 -63 16 2 25 -7 39 -38 17 -38 14 -86 -4 -75 -9 6 -23 -12 -27 -34 -1
-8 -6 -17 -11 -20 -5 -3 -12 -16 -16 -29 -4 -12 -11 -20 -16 -17 -4 3 -10 -1
-13 -9 -6 -15 29 -53 53 -57 20 -3 70 11 70 20 0 4 16 8 35 9 42 2 47 -18 10
-50 -13 -11 -22 -24 -20 -29 3 -4 -5 -5 -17 -2 -22 4 -22 4 -4 -11 13 -10 23
-12 31 -6 7 6 16 5 23 -2 9 -9 16 -7 32 7 11 10 20 14 20 10 0 -5 5 -4 12 3
22 22 38 13 37 -20 0 -18 1 -42 3 -53 3 -17 -2 -19 -32 -17 -19 2 -48 12 -65
22 -91 55 -107 60 -163 58 -61 -2 -128 24 -116 44 4 6 3 8 -3 5 -6 -4 -19 0
-29 8 -31 23 -41 18 -48 -26 -4 -23 -14 -55 -23 -72 l-16 -31 51 -47 c72 -66
153 -104 222 -104 46 0 62 5 100 33 58 42 121 50 161 21 15 -10 31 -19 35 -19
4 0 20 -12 35 -26 l26 -25 21 25 c25 33 39 115 20 127 -10 7 -10 11 0 21 10
10 5 20 -25 50 -39 40 -57 47 -66 24 -3 -8 -15 -20 -27 -26 -18 -10 -22 -7
-36 27 -9 21 -29 63 -44 94 -16 31 -33 83 -39 115 -8 40 -21 70 -41 94 -17 19
-48 60 -69 90 -45 63 -78 100 -90 100 -5 0 -14 -6 -20 -14z m219 -349 c0 -5
-4 -5 -10 -2 -5 3 -10 14 -10 23 0 15 2 15 10 2 5 -8 10 -19 10 -23z m113
-231 c23 -18 22 -21 -9 -24 -35 -3 -48 6 -33 24 14 17 19 17 42 0z"/>
<path d="M25566 5488 c-4 -23 -20 -99 -31 -148 l-6 -25 12 25 c7 14 12 28 11
32 -2 11 27 18 33 8 4 -6 15 -10 26 -10 19 0 19 1 5 22 -9 12 -16 38 -16 56 0
18 -7 40 -15 48 -13 13 -15 12 -19 -8z"/>
<path d="M22931 5454 c0 -11 3 -14 6 -6 3 7 2 16 -1 19 -3 4 -6 -2 -5 -13z"/>
<path d="M24820 5370 c0 -6 7 -10 15 -10 8 0 15 2 15 4 0 2 -7 6 -15 10 -8 3
-15 1 -15 -4z"/>
<path d="M22590 5320 c0 -9 39 -25 46 -18 2 3 -7 10 -21 16 -14 6 -25 7 -25 2z"/>
<path d="M23443 5279 c-52 -24 -55 -44 -12 -85 44 -41 61 -82 44 -108 -23 -36
-16 -71 16 -85 16 -7 26 -17 23 -22 -3 -6 0 -17 8 -26 12 -15 11 -15 -9 -5
-12 7 -24 12 -28 12 -11 0 28 -51 48 -62 20 -11 208 -40 215 -34 8 9 3 115 -8
158 -11 43 -16 48 -47 54 -19 4 -56 4 -83 2 -34 -4 -51 -1 -54 8 -3 8 -15 11
-30 8 -20 -3 -26 0 -26 12 0 10 -12 32 -26 51 -14 19 -20 32 -12 31 7 -2 15
-6 18 -10 10 -13 49 4 55 23 4 11 -5 34 -21 58 -15 23 -27 41 -28 41 0 -1 -20
-10 -43 -21z m224 -215 c-3 -3 -12 -4 -19 -1 -8 3 -5 6 6 6 11 1 17 -2 13 -5z"/>
<path d="M24963 5285 c0 -11 4 -12 14 -4 7 6 13 13 13 15 0 2 -6 4 -13 4 -8 0
-14 -7 -14 -15z"/>
<path d="M24100 5220 c-8 -5 -11 -12 -8 -16 4 -3 14 1 23 10 18 17 9 21 -15 6z"/>
<path d="M24520 5175 c7 -9 15 -13 17 -11 7 7 -7 26 -19 26 -6 0 -6 -6 2 -15z"/>
<path d="M11750 5010 c6 -11 16 -20 22 -20 6 0 3 9 -7 20 -10 11 -20 20 -22
20 -2 0 1 -9 7 -20z"/>
<path d="M23872 4913 c-28 -49 -82 -144 -122 -213 -40 -69 -141 -244 -225
-390 -303 -526 -326 -565 -344 -583 -11 -11 -60 -28 -122 -42 -57 -12 -150
-35 -207 -49 -57 -15 -133 -33 -170 -41 -37 -8 -128 -28 -202 -45 -74 -17
-184 -43 -245 -56 -155 -35 -312 -71 -440 -100 -60 -14 -157 -36 -215 -49 -58
-13 -163 -37 -235 -53 -523 -119 -527 -120 -755 -131 -118 -6 -379 -15 -580
-21 -201 -5 -471 -15 -600 -21 -129 -6 -332 -14 -450 -18 -118 -5 -183 -9
-143 -9 88 -2 103 -8 103 -38 0 -23 -3 -24 -67 -25 -56 -1 -62 -2 -35 -9 30
-7 416 0 762 14 69 3 222 8 340 11 118 3 239 8 268 11 29 3 52 1 52 -4 0 -9
-53 -22 -360 -92 -74 -17 -173 -39 -220 -50 -47 -11 -146 -34 -220 -51 -74
-17 -169 -39 -210 -49 -41 -10 -129 -30 -195 -45 -181 -41 -195 -45 -195 -55
0 -5 6 -8 13 -6 57 18 67 17 67 -9 0 -16 -6 -25 -15 -25 -8 0 -15 -4 -15 -9 0
-5 -24 -13 -52 -17 -29 -4 -46 -9 -38 -11 9 -2 47 3 85 12 80 18 291 64 480
105 177 39 305 68 605 135 253 57 378 85 560 125 52 11 131 30 175 41 83 21
90 21 945 49 683 22 1032 31 1167 32 92 1 146 5 152 12 5 6 66 110 136 231 69
121 132 225 138 232 7 7 143 42 302 78 160 36 311 70 337 76 26 6 51 16 56 22
5 7 22 46 37 87 31 83 87 225 206 519 44 107 79 197 79 200 0 3 -19 14 -42 24
-49 20 -45 25 -92 -93 -146 -368 -249 -618 -261 -636 -10 -15 -32 -25 -77 -33
-35 -7 -83 -19 -108 -27 -117 -38 -360 -85 -360 -69 0 2 55 98 121 212 115
197 195 334 332 573 33 58 89 154 124 213 35 59 63 117 63 128 0 29 -21 109
-31 114 -4 3 -30 -34 -57 -82z m-786 -1350 c-11 -29 -178 -313 -187 -318 -9
-6 -291 -20 -594 -30 -104 -3 -296 -10 -425 -15 -298 -12 -517 -13 -504 -1 5
4 45 15 89 24 44 9 141 30 215 47 207 48 540 122 805 180 132 29 314 69 405
90 196 45 204 46 196 23z"/>
<path d="M11790 4875 c13 -14 26 -25 28 -25 3 0 -5 11 -18 25 -13 14 -26 25
-28 25 -3 0 5 -11 18 -25z"/>
<path d="M11790 3905 c0 -5 5 -17 10 -25 5 -8 10 -10 10 -5 0 6 -5 17 -10 25
-5 8 -10 11 -10 5z"/>
<path d="M11850 3775 c0 -5 5 -17 10 -25 5 -8 10 -10 10 -5 0 6 -5 17 -10 25
-5 8 -10 11 -10 5z"/>
<path d="M11791 3710 c12 -22 25 -38 27 -35 5 4 -37 75 -44 75 -3 0 5 -18 17
-40z"/>
<path d="M11842 3595 c12 -24 23 -43 25 -41 5 5 -32 86 -39 86 -4 0 2 -20 14
-45z"/>
<path d="M11977 3526 c20 -26 27 -28 17 -3 -3 8 -12 18 -20 21 -11 4 -10 0 3
-18z"/>
<path d="M11887 3505 c9 -19 18 -33 21 -31 4 5 -26 66 -33 66 -3 0 3 -16 12
-35z"/>
<path d="M12010 3464 c0 -6 7 -19 16 -30 14 -18 14 -18 3 6 -14 31 -19 36 -19
24z"/>
<path d="M11910 3451 c0 -6 4 -13 10 -16 6 -3 7 1 4 9 -7 18 -14 21 -14 7z"/>
<path d="M11941 3395 c0 -5 6 -21 14 -35 8 -14 14 -20 14 -15 0 6 -6 21 -14
35 -8 14 -14 21 -14 15z"/>
<path d="M12050 3385 c0 -5 5 -17 10 -25 5 -8 10 -10 10 -5 0 6 -5 17 -10 25
-5 8 -10 11 -10 5z"/>
<path d="M11996 3277 c3 -10 9 -15 12 -12 3 3 0 11 -7 18 -10 9 -11 8 -5 -6z"/>
<path d="M18798 2703 c6 -2 18 -2 25 0 6 3 1 5 -13 5 -14 0 -19 -2 -12 -5z"/>
<path d="M18748 2693 c7 -3 16 -2 19 1 4 3 -2 6 -13 5 -11 0 -14 -3 -6 -6z"/>
<path d="M18758 2623 c7 -3 16 -2 19 1 4 3 -2 6 -13 5 -11 0 -14 -3 -6 -6z"/>
</g>
</svg>
