<?xml version="1.0" standalone="no"?>
<!DOCTYPE svg PUBLIC "-//W3C//DTD SVG 20010904//EN"
 "http://www.w3.org/TR/2001/REC-SVG-20010904/DTD/svg10.dtd">
<svg version="1.0" xmlns="http://www.w3.org/2000/svg"
 width="3508.000000pt" height="2480.000000pt" viewBox="0 0 3508.000000 2480.000000"
 preserveAspectRatio="xMidYMid meet">

<g transform="translate(0.000000,2480.000000) scale(0.100000,-0.100000)"
fill="#000000" stroke="none">
<path d="M16330 22623 c-140 -6 -360 -25 -460 -39 -375 -54 -766 -129 -950
-182 -901 -263 -1162 -356 -1671 -602 -351 -169 -551 -277 -869 -468 -386
-231 -582 -367 -1016 -704 -349 -271 -532 -437 -949 -860 -252 -254 -308 -317
-544 -613 -375 -469 -501 -648 -763 -1085 -172 -285 -381 -676 -492 -916 -75
-163 -179 -413 -282 -681 -123 -322 -142 -349 -346 -505 -128 -97 -165 -138
-203 -220 -52 -113 -53 -199 -9 -548 35 -268 42 -582 21 -880 -9 -124 -19
-297 -22 -385 -3 -88 -13 -250 -21 -360 -18 -218 -14 -745 6 -900 6 -44 15
-206 20 -360 7 -234 14 -310 39 -460 55 -335 58 -427 13 -527 -38 -85 -108
-139 -372 -288 -91 -51 -295 -170 -455 -263 -270 -159 -416 -244 -625 -364
-115 -66 -200 -150 -229 -228 -44 -116 -12 -244 83 -339 75 -76 177 -138 986
-599 250 -143 559 -321 685 -397 127 -75 347 -203 490 -285 684 -390 789 -466
912 -662 84 -136 113 -253 113 -466 0 -62 5 -141 10 -177 33 -208 182 -330
477 -389 222 -46 202 -30 678 -501 226 -223 437 -428 470 -457 120 -103 575
-447 791 -597 489 -342 621 -423 1014 -620 698 -351 1036 -489 1690 -691 254
-78 574 -156 947 -229 213 -42 819 -121 1048 -136 431 -29 551 -60 812 -206
73 -40 195 -108 271 -150 75 -42 274 -153 441 -247 167 -93 337 -185 377 -203
178 -83 337 -84 523 -5 90 38 1255 685 1676 931 418 244 543 325 625 409 67
66 82 92 140 233 38 92 73 143 131 190 24 20 183 115 354 213 381 219 516 303
812 507 413 286 760 570 1129 926 625 603 930 967 1401 1672 272 407 449 713
661 1144 116 236 146 270 362 414 232 154 414 342 499 517 61 125 82 220 96
435 4 52 17 160 30 240 13 80 29 206 34 280 17 206 27 231 157 405 86 115 141
220 165 315 9 36 14 111 14 215 -1 150 -3 169 -38 311 -43 176 -45 224 -16
407 25 159 27 385 5 497 -30 157 -68 225 -235 425 -107 127 -153 203 -170 275
-6 25 -16 106 -21 180 -49 639 -187 1357 -385 2002 -89 289 -206 603 -377
1008 -71 169 -303 630 -416 825 -216 376 -479 784 -651 1010 -141 185 -405
510 -521 640 -74 83 -260 276 -414 431 -750 749 -1484 1283 -2483 1803 -398
207 -822 380 -1373 561 -196 64 -753 207 -1015 260 -137 28 -279 57 -315 65
-194 42 -573 55 -1590 53 -465 -1 -874 -3 -910 -5z m314 -165 c5 -10 7 -10 12
0 7 14 74 17 74 2 0 -5 23 -10 50 -10 28 0 50 5 50 10 0 6 67 10 180 10 113 0
180 -4 180 -10 0 -6 110 -10 310 -10 200 0 310 4 310 10 0 6 38 10 93 10 85 0
94 -2 110 -24 15 -19 25 -23 60 -20 198 16 217 16 313 -1 68 -12 127 -16 195
-13 53 3 104 1 113 -4 21 -12 20 -54 -1 -68 -14 -9 -6 -10 37 -6 197 19 200
19 218 3 11 -10 50 -21 93 -26 124 -16 144 -23 147 -54 4 -31 34 -36 66 -12
11 8 29 15 40 15 28 0 94 -24 108 -38 7 -7 41 -12 78 -12 43 0 73 -5 86 -15
10 -8 31 -15 45 -15 28 0 76 -46 56 -53 -7 -2 -8 -8 -4 -13 5 -5 14 -2 20 6
14 19 92 26 102 10 4 -7 2 -17 -4 -23 -19 -19 -12 -27 27 -26 20 0 31 3 24 6
-6 2 -10 9 -6 14 9 16 68 10 105 -10 20 -11 54 -23 75 -27 22 -3 44 -11 50
-15 6 -5 21 -8 34 -7 14 2 27 -5 34 -17 16 -29 27 -35 69 -35 21 0 48 -5 60
-12 12 -7 33 -14 47 -16 14 -2 38 -9 55 -17 16 -7 48 -16 70 -20 22 -4 48 -14
58 -23 10 -9 37 -18 60 -21 50 -7 58 -32 12 -42 l-30 -7 28 -1 c15 0 45 -10
67 -21 47 -24 50 -24 50 -5 0 18 56 10 81 -11 8 -8 21 -14 27 -14 6 0 12 -12
14 -27 2 -23 8 -28 33 -30 17 -1 24 0 18 3 -25 11 -13 24 21 24 18 0 39 -7 47
-16 21 -26 66 -44 107 -44 24 0 45 -6 53 -16 7 -8 26 -22 43 -31 17 -9 33 -19
36 -22 3 -4 17 -14 32 -23 19 -13 25 -23 21 -38 -4 -17 -1 -20 23 -20 27 1 27
2 9 12 -19 11 -19 11 0 18 28 10 53 1 60 -21 4 -10 18 -21 33 -24 38 -8 93
-37 99 -52 3 -7 17 -13 32 -13 15 0 44 -12 64 -27 28 -22 36 -33 32 -50 -5
-19 -1 -23 21 -23 21 0 24 3 15 14 -21 25 15 26 37 1 11 -13 34 -26 52 -30 17
-4 43 -18 57 -31 15 -14 38 -27 52 -31 14 -3 35 -14 46 -23 11 -10 39 -28 62
-40 23 -11 44 -28 47 -36 3 -8 16 -14 29 -14 13 0 31 -8 41 -18 9 -11 34 -28
56 -38 36 -17 40 -22 34 -46 -4 -21 -2 -28 10 -28 8 0 17 4 21 9 11 19 80 -8
103 -41 7 -10 20 -18 28 -18 8 0 31 -16 51 -35 20 -19 44 -35 54 -35 10 0 23
-9 29 -20 6 -11 21 -20 34 -20 22 0 58 -26 135 -100 21 -19 44 -36 52 -38 8
-2 20 -12 28 -22 8 -12 25 -20 41 -20 19 0 42 -15 78 -50 28 -28 70 -60 92
-71 23 -12 55 -39 72 -60 17 -21 47 -46 67 -55 20 -9 66 -48 103 -85 36 -38
69 -69 72 -69 29 0 149 -117 141 -138 -7 -20 6 -37 16 -21 6 10 11 6 18 -14 6
-15 13 -27 16 -27 4 0 3 6 -1 13 -4 6 2 4 13 -5 11 -10 30 -18 42 -18 15 0 45
-22 85 -63 33 -35 115 -118 181 -186 66 -68 192 -193 280 -278 103 -100 169
-172 185 -203 15 -29 58 -77 112 -124 48 -42 96 -91 107 -109 45 -71 95 -135
142 -182 27 -28 49 -54 49 -58 0 -12 42 -69 75 -102 17 -16 38 -45 48 -64 10
-19 25 -41 33 -48 8 -8 26 -34 40 -59 14 -24 30 -44 34 -44 5 0 25 -28 45 -62
20 -35 47 -74 60 -88 13 -14 40 -56 61 -95 20 -38 57 -94 81 -124 24 -30 47
-68 50 -83 3 -16 13 -33 22 -38 9 -4 27 -28 39 -53 12 -25 29 -50 37 -57 8 -7
15 -18 15 -25 0 -6 9 -20 20 -30 11 -10 20 -25 20 -33 0 -8 15 -35 33 -61 18
-25 38 -65 45 -88 7 -23 24 -55 37 -71 14 -17 25 -33 25 -36 0 -3 16 -28 35
-56 19 -27 37 -60 41 -74 3 -14 12 -30 20 -37 8 -6 14 -20 14 -31 0 -11 14
-39 30 -63 17 -24 30 -52 30 -62 0 -10 36 -90 80 -177 44 -87 80 -167 80 -177
0 -10 5 -21 11 -24 12 -8 49 -89 74 -164 10 -30 31 -81 46 -112 17 -34 29 -74
29 -97 0 -28 7 -45 25 -62 14 -13 25 -32 25 -43 0 -10 9 -30 20 -44 11 -14 20
-38 20 -53 0 -15 13 -56 29 -91 16 -35 39 -95 51 -134 13 -38 30 -77 37 -86 8
-9 16 -44 18 -77 2 -34 10 -74 18 -89 8 -15 27 -73 42 -128 15 -55 34 -113 42
-128 8 -16 13 -41 10 -55 -5 -27 14 -111 59 -255 20 -63 23 -90 18 -140 -6
-57 -4 -64 19 -86 14 -13 23 -29 20 -37 -7 -20 26 -184 43 -211 9 -15 14 -52
14 -108 0 -71 3 -88 19 -104 21 -21 25 -68 35 -359 3 -82 7 -107 22 -123 15
-17 20 -47 27 -182 9 -169 6 -322 -7 -334 -4 -4 -16 -2 -26 5 -11 7 -33 12
-50 12 -19 0 -30 5 -30 14 0 7 -15 19 -32 27 -18 7 -35 16 -38 19 -7 10 -168
87 -220 105 -25 9 -63 20 -85 25 -65 13 -118 30 -147 45 -14 8 -53 17 -86 20
-32 2 -71 9 -85 14 -14 6 -45 11 -69 12 -24 1 -63 8 -88 15 -25 8 -57 14 -70
14 -14 0 -99 4 -190 10 -91 5 -228 8 -305 5 -77 -2 -159 -4 -182 -5 -23 0 -48
-7 -57 -15 -10 -11 -44 -16 -114 -20 -55 -3 -111 -9 -124 -14 -12 -5 -52 -12
-88 -15 -71 -8 -233 -57 -211 -64 25 -8 -10 -21 -45 -15 -19 3 -45 -1 -63 -10
-17 -8 -45 -19 -63 -22 -18 -4 -44 -13 -58 -21 -14 -7 -47 -23 -75 -34 -49
-21 -68 -30 -172 -87 -205 -111 -434 -338 -490 -487 -48 -127 -56 -155 -59
-201 -2 -27 -4 -54 -4 -60 -3 -24 14 -154 25 -200 17 -66 83 -205 102 -212 27
-10 44 -64 48 -146 2 -45 17 -219 34 -387 35 -356 96 -944 111 -1080 5 -52 13
-129 16 -172 l7 -76 -31 -16 c-28 -15 -52 -43 -52 -61 0 -4 15 -5 33 -2 43 7
122 -19 175 -57 91 -65 108 -78 128 -97 11 -10 24 -19 29 -19 16 0 98 -66 160
-129 62 -64 84 -99 150 -243 33 -73 62 -208 49 -229 -8 -14 -24 -11 -24 6 0 8
-11 17 -25 21 -13 3 -29 12 -36 20 -13 16 -49 19 -49 5 0 -5 9 -12 20 -16 19
-6 34 -17 109 -81 20 -18 45 -33 56 -35 12 -3 24 -17 31 -38 10 -31 18 -37 80
-58 226 -76 472 -115 729 -116 219 0 387 20 594 72 141 35 149 36 136 17 -7
-12 -16 -41 -19 -65 -4 -27 -27 -77 -55 -125 -27 -45 -56 -107 -64 -139 -9
-32 -34 -89 -56 -126 -23 -37 -41 -70 -41 -74 0 -3 -13 -28 -29 -55 -16 -27
-32 -60 -36 -73 -4 -13 -23 -47 -41 -75 -19 -28 -34 -56 -34 -61 0 -6 -10 -22
-21 -37 -12 -15 -30 -50 -41 -78 -10 -28 -29 -65 -42 -82 -13 -17 -38 -58 -56
-91 -33 -64 -64 -112 -102 -160 -14 -16 -32 -46 -41 -65 -10 -19 -38 -62 -62
-95 -45 -60 -111 -159 -208 -311 -29 -44 -69 -101 -89 -126 -21 -25 -38 -49
-38 -54 0 -5 -14 -25 -31 -44 -16 -19 -37 -47 -47 -62 -9 -16 -19 -28 -23 -28
-3 0 -19 -19 -34 -42 -16 -24 -49 -65 -75 -93 -25 -27 -70 -84 -100 -125 -72
-101 -117 -152 -382 -428 -266 -278 -491 -502 -505 -502 -5 0 -47 -37 -94 -82
-46 -46 -124 -114 -173 -153 -49 -38 -124 -103 -168 -143 -43 -39 -96 -79
-116 -88 -20 -8 -53 -32 -72 -54 -19 -22 -51 -46 -72 -54 -20 -9 -58 -38 -84
-66 -29 -31 -62 -55 -85 -61 -21 -7 -59 -30 -86 -53 -52 -46 -205 -156 -244
-176 -13 -7 -36 -23 -51 -36 -15 -12 -41 -25 -57 -29 -16 -3 -37 -15 -47 -26
-9 -10 -23 -19 -30 -19 -7 0 -51 -29 -99 -65 -47 -36 -96 -65 -109 -65 -12 0
-60 -25 -107 -56 -46 -30 -104 -64 -128 -75 -24 -10 -67 -36 -95 -56 -28 -20
-69 -40 -91 -45 -22 -5 -51 -20 -65 -32 -14 -13 -38 -27 -54 -30 -17 -4 -46
-21 -67 -37 -20 -16 -45 -29 -56 -29 -11 0 -34 -11 -53 -25 -19 -14 -42 -25
-52 -25 -10 0 -38 -19 -63 -43 -44 -43 -45 -45 -45 -106 0 -60 2 -64 46 -111
43 -46 51 -79 17 -65 -9 3 -24 -2 -35 -11 -20 -19 -21 -19 -144 -88 -49 -27
-168 -95 -264 -151 -96 -56 -200 -115 -230 -132 -30 -16 -71 -39 -90 -50 -19
-12 -100 -58 -180 -103 -80 -45 -178 -102 -217 -126 -40 -24 -76 -44 -79 -44
-4 0 -39 -20 -78 -44 -39 -23 -105 -62 -146 -85 -76 -42 -96 -54 -140 -82 -14
-9 -54 -31 -90 -50 -36 -18 -87 -48 -115 -65 -44 -27 -169 -99 -344 -197 -50
-28 -91 -53 -137 -85 -17 -11 -17 -12 -1 -8 9 3 17 1 17 -5 0 -7 -10 -9 -26
-5 -31 8 -63 -12 -42 -27 9 -6 8 -7 -5 -3 -21 7 -57 -9 -57 -25 0 -5 -5 -16
-12 -23 -10 -11 -15 -11 -26 0 -7 8 -10 18 -7 24 3 5 1 10 -5 10 -7 0 -25 11
-42 25 -16 14 -38 25 -49 25 -10 0 -19 4 -19 8 0 5 -12 15 -27 23 -16 8 -30
16 -33 19 -10 12 -219 130 -228 130 -6 0 -13 -6 -15 -12 -4 -8 -8 -4 -12 9 -6
19 -80 70 -175 121 -72 39 -137 77 -152 89 -10 9 -26 12 -40 8 -15 -4 -19 -3
-10 3 10 7 0 17 -40 39 -29 17 -136 79 -236 137 -101 58 -186 106 -188 106 -2
0 -28 16 -59 35 -30 20 -62 38 -71 42 -8 3 -52 28 -97 54 -45 27 -86 49 -90
49 -5 0 -28 14 -52 30 -24 17 -47 30 -50 30 -4 0 -20 9 -36 21 -16 11 -37 19
-47 17 -11 -2 7 -17 53 -43 38 -22 77 -44 86 -50 9 -5 45 -25 80 -44 35 -18
81 -45 104 -59 51 -33 92 -57 194 -111 19 -10 30 -20 25 -24 -10 -5 -71 22
-159 71 -111 62 -278 91 -595 104 -206 8 -260 13 -280 26 -14 9 -56 20 -95 24
-38 4 -95 11 -125 17 -30 5 -102 10 -161 10 -64 1 -109 5 -116 12 -7 7 -38 13
-71 15 -32 2 -72 10 -88 19 -18 9 -58 15 -109 16 -110 0 -171 12 -198 37 -19
18 -35 22 -95 22 -58 0 -82 5 -121 26 -40 21 -65 26 -141 28 -84 3 -93 5 -113
28 -19 22 -32 27 -97 31 -51 4 -93 14 -132 32 -36 17 -83 28 -129 32 -54 5
-78 12 -99 30 -15 13 -41 23 -57 23 -17 0 -50 13 -74 30 -34 23 -55 30 -95 30
-37 0 -66 8 -106 29 -30 16 -72 33 -94 36 -21 4 -52 15 -69 25 -16 10 -45 21
-64 25 -19 4 -53 20 -77 35 -24 15 -63 30 -88 33 -24 4 -60 17 -80 31 -20 13
-54 27 -75 31 -22 3 -54 17 -72 31 -18 13 -43 24 -56 24 -12 0 -44 13 -70 30
-26 16 -52 30 -58 30 -16 0 -131 57 -175 87 -19 13 -44 23 -56 23 -12 0 -33 9
-47 20 -14 11 -45 28 -70 39 -25 11 -48 24 -51 30 -4 6 -26 16 -49 22 -23 6
-63 26 -88 45 -26 19 -50 34 -54 34 -4 0 -21 10 -37 22 -17 11 -51 25 -76 30
-26 4 -50 15 -55 24 -5 9 -21 21 -36 27 -14 7 -60 36 -101 65 -90 64 -188 122
-204 122 -7 0 -23 11 -36 25 -13 14 -28 25 -34 25 -6 0 -61 39 -121 86 -61 47
-119 89 -130 94 -12 4 -27 15 -35 25 -7 9 -27 22 -44 29 -17 7 -62 39 -99 70
-38 31 -72 56 -77 56 -4 0 -40 26 -78 58 -39 31 -96 75 -128 97 -32 22 -71 54
-88 71 -47 48 -144 124 -158 124 -7 0 -56 43 -108 95 -82 82 -208 201 -380
362 -25 23 -94 94 -155 159 -120 128 -315 333 -411 431 -58 61 -63 63 -110 63
-37 0 -59 -6 -82 -24 -18 -13 -52 -29 -77 -36 -41 -11 -47 -10 -103 18 -33 16
-70 37 -83 46 -13 9 -31 16 -41 16 -10 0 -25 11 -33 24 -14 21 -16 64 -14 305
1 184 -1 285 -8 293 -11 13 -31 48 -82 139 -35 63 -98 156 -111 164 -6 4 -17
21 -24 38 -16 35 -110 138 -166 180 -19 14 -31 29 -27 33 8 9 70 -24 139 -74
27 -19 56 -32 68 -30 16 2 -8 21 -87 68 -59 36 -124 73 -143 84 -84 45 -316
180 -332 193 -14 13 -18 12 -27 -4 -8 -15 -13 -16 -28 -5 -10 6 -28 16 -41 22
-46 20 -82 53 -77 71 5 14 -6 24 -43 43 -28 14 -70 39 -94 55 -24 16 -79 48
-122 72 -59 32 -80 39 -86 29 -9 -14 -40 -7 -40 10 0 5 8 10 17 10 10 0 -17
20 -59 45 -43 25 -82 45 -88 45 -15 0 -12 -20 3 -20 6 0 23 -9 37 -20 14 -11
33 -20 42 -20 19 0 34 -18 23 -28 -7 -7 -115 48 -115 59 0 3 -12 12 -27 19
l-28 13 25 6 c25 7 9 18 -135 96 -11 5 -32 18 -46 28 -18 12 -36 16 -54 11
-22 -5 -26 -3 -23 11 2 12 -14 26 -53 48 -124 70 -295 171 -310 184 -8 7 -23
13 -32 13 -9 0 -26 9 -37 20 -21 21 -46 28 -35 10 3 -5 -1 -10 -9 -10 -20 0
-30 17 -14 23 22 9 -14 28 -42 22 -17 -4 -21 -3 -12 3 10 7 -2 19 -46 46 -33
20 -64 36 -70 36 -5 0 -15 7 -22 15 -9 11 -22 14 -43 9 -21 -4 -27 -3 -23 5 4
6 13 9 19 5 7 -3 1 4 -13 15 -14 11 -31 21 -37 21 -7 0 -13 4 -13 9 0 5 -12
14 -27 20 -16 6 -49 23 -74 38 -163 98 -249 142 -263 137 -10 -4 -16 -1 -16
10 0 8 -9 20 -19 26 -25 13 -34 13 -26 0 3 -6 -1 -7 -9 -4 -9 3 -13 10 -11 15
7 10 -63 56 -91 61 -10 2 -25 11 -32 20 -7 10 -19 18 -26 18 -7 0 -25 9 -40
21 -17 14 -33 18 -48 14 -15 -4 -18 -3 -10 2 18 14 -39 53 -67 46 -32 -8 -26
3 27 53 56 54 114 89 162 99 49 10 85 30 155 85 33 25 74 52 92 59 18 7 38 20
45 28 7 8 37 27 68 42 76 38 121 64 204 120 39 26 87 51 106 55 20 3 61 27 95
55 33 26 70 51 82 55 12 4 38 20 58 36 21 17 50 30 65 30 15 0 42 14 66 33 41
35 64 49 154 92 75 36 139 71 159 88 9 7 31 20 49 27 48 19 134 117 154 176
28 82 24 485 -6 539 -6 11 -11 49 -11 85 0 37 -10 95 -22 135 -19 60 -23 111
-32 350 -6 154 -11 334 -11 400 0 66 -1 143 -2 170 -1 28 -1 257 -1 510 0 439
7 635 33 935 16 178 16 720 1 978 -1 6 -6 11 -13 10 -8 -2 -12 32 -15 112 -2
63 -9 127 -15 142 -23 59 -3 78 207 198 98 56 167 98 220 134 33 22 85 53 115
69 30 16 62 34 70 41 17 12 38 25 120 69 30 17 73 42 95 56 22 13 65 38 95 54
30 16 73 41 95 56 22 14 45 28 50 31 42 22 86 55 78 57 -10 4 -71 -26 -148
-72 -22 -13 -60 -36 -85 -50 -25 -14 -61 -36 -81 -48 -20 -12 -78 -46 -128
-75 -50 -29 -93 -57 -96 -63 -4 -5 -13 -9 -22 -9 -9 0 -26 -8 -37 -18 -12 -10
-37 -25 -56 -32 -19 -7 -46 -23 -60 -35 -31 -27 -148 -95 -162 -95 -12 0 14
26 87 85 26 22 56 58 66 80 10 22 23 47 27 55 11 17 40 102 51 145 4 17 16 48
26 69 11 22 18 53 17 70 -2 22 9 46 33 80 19 27 35 58 35 67 0 10 11 42 24 71
13 29 29 71 36 93 7 22 19 49 25 60 7 11 23 49 36 85 12 36 29 74 36 85 7 11
13 25 13 33 0 12 36 92 60 132 15 26 120 251 120 258 0 3 8 15 18 26 10 12 29
46 42 76 12 30 34 75 48 100 14 25 35 63 46 85 10 22 44 80 74 130 30 49 58
101 62 115 3 14 17 30 30 37 28 14 40 31 40 62 0 13 11 32 24 42 14 11 28 34
31 52 4 17 17 43 30 57 13 14 37 52 54 86 17 33 40 69 52 80 12 10 33 42 46
69 21 40 76 118 103 145 12 12 60 79 60 84 0 3 16 28 35 55 19 26 35 53 35 58
0 11 68 96 138 173 128 140 151 167 167 200 10 19 47 68 84 108 36 40 73 86
81 101 8 16 35 45 59 65 24 20 62 61 85 91 22 30 49 57 59 61 10 3 27 19 37
36 18 31 248 268 259 268 4 0 81 72 171 161 91 89 184 176 206 195 23 19 52
50 65 69 17 24 32 35 49 35 19 0 52 25 119 90 51 50 96 90 100 90 9 0 180 124
213 155 15 14 33 25 40 25 8 0 38 25 68 55 30 30 60 55 67 55 7 0 30 16 52 35
21 19 47 35 58 35 10 0 43 25 73 55 30 30 63 55 73 55 16 0 57 26 139 90 15
11 42 27 60 34 18 8 42 24 52 35 11 12 31 21 47 21 17 0 37 11 56 30 15 17 33
30 39 30 6 0 17 7 25 16 7 8 34 26 59 39 25 13 52 31 59 39 8 9 26 16 40 16
18 0 39 12 61 35 25 26 42 35 66 35 21 0 38 7 46 19 7 10 31 26 52 35 21 9 51
27 68 41 16 14 37 25 45 25 9 0 31 11 48 24 18 14 45 28 61 31 41 10 189 82
204 100 7 8 27 15 44 15 17 0 47 9 66 19 19 11 49 27 65 35 17 8 41 26 55 41
21 23 31 26 63 21 32 -5 44 -2 75 23 20 16 60 36 87 44 28 8 70 24 95 35 25
10 66 22 92 26 34 5 51 14 63 32 11 17 22 23 34 19 10 -3 42 7 73 23 31 17 81
33 113 37 32 4 68 13 79 20 12 7 48 21 81 31 33 10 71 28 86 41 21 19 34 23
80 20 31 -1 67 3 80 9 13 7 55 22 94 34 57 17 82 20 142 15 l72 -7 6 28 c13
57 13 57 60 51 29 -4 59 -1 87 9 27 10 60 14 90 10 37 -4 52 -1 72 15 22 17
34 19 84 13 53 -6 61 -4 74 15 10 14 33 25 64 31 27 5 72 14 99 20 28 6 60 8
72 5 12 -3 41 1 65 10 28 9 61 12 96 8 46 -5 56 -2 77 17 27 25 30 25 346 33
82 1 109 6 122 18 9 9 13 19 10 23 -4 3 57 6 135 6 102 0 142 -3 146 -12z
m644 5 c-10 -2 -28 -2 -40 0 -13 2 -5 4 17 4 22 1 32 -1 23 -4z m-9098 -6603
c-24 -15 -37 -11 -16 5 11 8 22 12 25 9 3 -3 -1 -9 -9 -14z m-120 -70 c0 -5
-9 -10 -21 -10 -11 0 -17 5 -14 10 3 6 13 10 21 10 8 0 14 -4 14 -10z m17968
-2001 c-12 -7 -24 -7 -35 0 -15 9 -12 10 17 10 29 0 32 -1 18 -10z m102 -39
c0 -5 -6 -10 -14 -10 -8 0 -18 5 -21 10 -3 6 3 10 14 10 12 0 21 -4 21 -10z
m245 -121 c10 -15 -1 -23 -20 -15 -9 3 -13 10 -10 16 8 13 22 13 30 -1z
m-2689 -58 c-10 -16 -46 -13 -46 3 0 16 30 27 44 15 4 -4 5 -12 2 -18z m2804
-38 c0 7 9 0 69 -56 28 -26 40 -47 25 -47 -11 0 -124 113 -124 124 0 6 7 2 15
-8 8 -11 15 -17 15 -13z m197 -186 c-7 -23 -25 -16 -35 12 l-11 31 25 -17 c14
-8 23 -21 21 -26z m-3287 -13 c0 -12 -24 -50 -42 -65 -10 -9 -18 -23 -18 -31
0 -15 -19 -38 -32 -38 -23 0 22 95 61 128 16 13 31 16 31 6z m3323 -19 c1 -5
-6 -11 -15 -13 -11 -2 -18 3 -18 13 0 17 30 18 33 0z m177 -146 c0 -10 -4 -20
-10 -24 -11 -6 -40 45 -40 71 0 15 4 14 25 -6 14 -13 25 -31 25 -41z m-3630
-58 c0 -27 -21 -81 -31 -81 -13 0 -11 84 3 98 14 14 28 6 28 -17z m3554 -4
c15 -24 -3 -35 -20 -13 -8 11 -14 24 -14 29 0 13 22 3 34 -16z m20 -156 c1
-50 -2 -91 -6 -91 -5 0 -8 31 -8 69 0 38 -3 84 -6 102 -5 27 -4 32 6 22 9 -8
13 -43 14 -102z m-3615 -37 c-16 -19 -39 -17 -39 3 0 9 8 25 17 35 17 19 17
19 25 -3 5 -13 4 -27 -3 -35z m22 -150 c5 -15 7 -35 4 -45 -6 -17 -9 -16 -32
11 -26 31 -25 60 2 60 8 0 20 -12 26 -26z m3573 -28 c-8 -34 -22 -34 -19 2 3
44 4 47 16 35 5 -5 7 -22 3 -37z m76 -16 c0 -11 -4 -20 -9 -20 -5 0 -7 9 -4
20 3 11 7 20 9 20 2 0 4 -9 4 -20z m-3640 -114 c0 -8 -4 -17 -9 -21 -6 -3 -9
4 -8 15 1 23 17 28 17 6z m145 -155 c3 -10 17 -31 30 -45 21 -23 22 -26 6 -26
-30 0 -34 -29 -6 -40 14 -5 25 -15 26 -22 0 -7 5 -3 11 10 14 28 19 27 41 -3
17 -24 17 -25 -2 -25 -10 0 -21 -6 -24 -12 -2 -9 -16 -4 -45 15 -48 34 -60 57
-36 74 14 10 15 15 5 27 -10 12 -17 13 -31 3 -11 -6 -23 -7 -27 -3 -4 5 -2 11
5 13 6 3 12 16 12 29 0 29 26 33 35 5z m3322 -53 c-3 -22 -4 -21 -11 4 -5 16
-5 36 0 45 7 16 8 15 11 -4 3 -13 3 -33 0 -45z m-80 30 c19 -31 12 -88 -12
-88 -7 0 -16 -8 -20 -18 -6 -21 -43 -41 -62 -35 -34 12 1 62 43 63 24 0 37 32
27 68 -6 24 11 30 24 10z m156 -107 c51 -29 62 -42 87 -95 42 -91 58 -135 71
-201 7 -33 18 -63 23 -67 7 -5 7 -8 -1 -8 -8 0 -13 -15 -13 -40 0 -22 5 -40
10 -40 12 0 14 -27 3 -32 -9 -3 -49 -90 -59 -128 -16 -60 -116 -170 -187 -206
-26 -14 -57 -36 -69 -49 -12 -14 -31 -25 -43 -25 -12 0 -36 -7 -52 -15 -103
-51 -402 -77 -658 -56 -337 27 -737 122 -1131 270 -287 107 -279 103 -282 137
-2 20 4 36 18 49 20 18 22 18 93 -18 122 -61 500 -189 712 -242 470 -116 890
-142 1160 -70 127 33 144 41 156 72 27 69 34 77 68 79 41 2 98 55 132 122 47
92 26 344 -36 439 -8 12 -27 23 -42 25 -21 2 -29 10 -36 35 -10 32 -1 107 11
101 4 -2 33 -18 65 -37z m-3236 -48 c3 -7 -3 -9 -16 -6 -12 3 -21 1 -21 -6 0
-6 -9 -11 -21 -11 -12 0 -19 5 -16 13 2 6 11 11 21 9 9 -2 16 2 16 8 0 15 32
9 37 -7z m2963 -6 c0 -33 -66 -65 -93 -45 -23 18 -8 38 34 48 50 12 59 11 59
-3z m-2839 -73 c7 -8 31 -25 53 -36 23 -11 49 -29 59 -39 10 -11 26 -19 37
-19 11 0 24 -9 30 -20 7 -13 21 -20 40 -20 34 0 120 -35 120 -50 0 -5 -18 -10
-40 -10 -40 0 -90 17 -90 31 0 4 -14 11 -32 14 -35 8 -59 20 -97 48 -13 9 -31
17 -41 17 -15 0 -31 10 -80 52 -8 7 -20 12 -26 10 -19 -4 -28 19 -13 29 22 14
65 10 80 -7z m2729 6 c12 -7 10 -11 -10 -18 -27 -11 -47 -1 -36 17 9 13 26 14
46 1z m-105 -61 c0 -21 -5 -24 -34 -24 -43 0 -49 15 -13 37 35 21 47 17 47
-13z m-74 -40 c22 -12 16 -29 -10 -29 -10 0 -48 -13 -84 -30 -65 -29 -137 -40
-137 -20 0 5 17 14 39 20 21 5 54 21 73 34 57 38 84 44 119 25z m-294 -110
l28 -11 -27 -14 c-15 -8 -62 -19 -105 -26 -44 -6 -83 -18 -90 -26 -7 -9 -37
-16 -80 -19 -60 -4 -66 -3 -50 10 10 8 61 25 113 37 53 12 115 30 138 41 49
22 39 21 73 8z m-1726 -35 c61 -21 126 -37 159 -38 35 -2 67 -10 88 -23 35
-21 29 -40 -8 -28 -11 4 -35 8 -52 11 -17 2 -36 8 -42 14 -5 5 -28 10 -51 10
-23 0 -50 7 -61 15 -10 8 -37 15 -59 15 -22 0 -60 10 -85 21 -39 19 -43 22
-25 29 29 12 22 13 136 -26z m1369 -73 c0 -4 -28 -12 -62 -15 -35 -4 -89 -14
-121 -22 -42 -11 -139 -16 -355 -19 -251 -4 -309 -3 -374 11 -114 24 -100 38
30 30 250 -15 596 -9 727 13 68 12 155 13 155 2z m-1769 -409 c38 -26 63 -54
83 -92 29 -54 29 -54 16 -129 -7 -42 -14 -105 -16 -141 -2 -36 -13 -123 -24
-195 -10 -71 -27 -209 -35 -305 -9 -96 -20 -179 -24 -183 -4 -4 -23 6 -40 22
-18 17 -50 41 -72 53 -21 12 -40 24 -40 27 -9 38 0 252 22 521 5 74 13 202 17
284 7 129 10 150 27 162 25 19 24 19 86 -24z m2770 -589 c-9 -16 -10 -14 -11
12 0 21 3 26 11 18 8 -8 8 -16 0 -30z m-54 -540 c-3 -10 -5 -4 -5 12 0 17 2
24 5 18 2 -7 2 -21 0 -30z m-19597 -593 c12 -8 11 -10 -7 -10 -13 0 -23 5 -23
10 0 13 11 13 30 0z m875 -500 c3 -5 -1 -10 -9 -10 -9 0 -16 5 -16 10 0 6 4
10 9 10 6 0 13 -4 16 -10z m189 -115 c8 -8 21 -15 29 -15 8 0 20 -7 27 -15 10
-12 9 -15 -6 -15 -20 1 -96 60 -77 60 6 0 18 -7 27 -15z m373 -211 c-3 -3 -12
-4 -19 -1 -8 3 -5 6 6 6 11 1 17 -2 13 -5z m58 -34 c8 -13 -15 -13 -35 0 -12
8 -11 10 7 10 12 0 25 -4 28 -10z m65 -35 c14 -16 10 -18 -14 -9 -9 3 -16 10
-16 15 0 14 16 11 30 -6z m70 -40 c7 -8 18 -15 25 -15 7 0 18 -7 25 -15 10
-12 9 -15 -8 -15 -11 0 -25 7 -32 15 -7 8 -18 15 -25 15 -7 0 -18 7 -25 15
-10 12 -9 15 8 15 11 0 25 -7 32 -15z m295 -175 c3 -5 2 -10 -4 -10 -5 0 -13
5 -16 10 -3 6 -2 10 4 10 5 0 13 -4 16 -10z m52 -36 c-3 -3 -12 -4 -19 -1 -8
3 -5 6 6 6 11 1 17 -2 13 -5z m71 -42 c3 -9 -2 -13 -14 -10 -9 1 -19 9 -22 16
-3 9 2 13 14 10 9 -1 19 -9 22 -16z m60 -40 c2 -7 -2 -10 -12 -6 -9 3 -16 11
-16 16 0 13 23 5 28 -10z m62 -27 c17 -20 -9 -21 -36 0 -19 14 -19 14 2 15 12
0 27 -7 34 -15z m60 -35 c12 -8 11 -10 -7 -10 -12 0 -25 5 -28 10 -8 13 15 13
35 0z m11836 -4085 c-27 -24 -88 -63 -135 -86 -47 -23 -103 -57 -125 -75 -22
-19 -45 -34 -51 -34 -6 0 -30 -14 -53 -31 -23 -17 -77 -49 -120 -71 -42 -22
-84 -45 -92 -52 -8 -7 -35 -24 -60 -37 -25 -12 -67 -37 -95 -55 -27 -17 -75
-44 -105 -59 -30 -16 -62 -35 -71 -42 -15 -13 -60 -37 -279 -155 -41 -23 -86
-48 -100 -58 -26 -18 -155 -80 -166 -80 -4 0 -31 -16 -60 -35 -29 -19 -55 -35
-59 -35 -4 0 -19 -8 -33 -19 -45 -31 -160 -91 -177 -91 -25 0 -17 19 12 26 15
4 36 16 47 26 11 10 24 18 30 18 5 0 17 6 25 14 14 12 94 56 203 114 18 9 35
19 38 22 6 7 92 57 145 85 22 11 60 34 85 50 25 16 70 42 100 58 30 16 88 49
127 73 40 24 75 44 79 44 3 0 18 8 32 18 15 11 54 34 87 52 103 58 179 100
195 110 61 37 175 102 225 129 33 18 78 43 100 57 22 13 47 27 55 31 8 3 22
12 30 18 8 7 39 26 68 41 30 16 70 39 90 50 58 34 61 27 8 -21z m-3525 -660
c33 -19 64 -35 68 -35 5 0 14 -7 21 -15 32 -39 -85 9 -145 59 -44 37 -13 32
56 -9z m154 -85 c4 -6 22 -17 41 -25 37 -15 46 -35 16 -35 -18 0 -102 54 -102
65 0 9 39 5 45 -5z m130 -70 c3 -5 -3 -10 -14 -10 -12 0 -21 5 -21 10 0 6 6
10 14 10 8 0 18 -4 21 -10z m125 -80 c0 -13 -11 -13 -30 0 -12 8 -11 10 8 10
12 0 22 -4 22 -10z m60 -30 c0 -5 -6 -10 -14 -10 -8 0 -18 5 -21 10 -3 6 3 10
14 10 12 0 21 -4 21 -10z m65 -40 c3 -5 -1 -10 -9 -10 -9 0 -16 5 -16 10 0 6
4 10 9 10 6 0 13 -4 16 -10z m1185 -65 c0 -2 -33 -22 -72 -45 -71 -39 -105
-50 -93 -30 3 6 13 10 21 10 8 0 23 9 34 20 11 11 29 20 39 20 10 0 21 7 25
15 5 13 46 22 46 10z m-200 -109 c0 -2 -7 -6 -15 -10 -8 -3 -15 -1 -15 4 0 6
7 10 15 10 8 0 15 -2 15 -4z m-50 -35 c0 -11 -39 -25 -47 -18 -3 3 -2 10 2 16
8 13 45 15 45 2z m-73 -37 c-3 -3 -12 -4 -19 -1 -8 3 -5 6 6 6 11 1 17 -2 13
-5z"/>
<path d="M18148 22403 c12 -2 32 -2 45 0 12 2 2 4 -23 4 -25 0 -35 -2 -22 -4z"/>
<path d="M15993 22373 c9 -2 25 -2 35 0 9 3 1 5 -18 5 -19 0 -27 -2 -17 -5z"/>
<path d="M18388 22373 c17 -2 47 -2 65 0 17 2 3 4 -33 4 -36 0 -50 -2 -32 -4z"/>
<path d="M19078 22258 c16 -8 28 -8 45 0 19 9 17 11 -23 11 -40 0 -42 -2 -22
-11z"/>
<path d="M19388 22193 c12 -2 30 -2 40 0 9 3 -1 5 -23 4 -22 0 -30 -2 -17 -4z"/>
<path d="M19540 22160 c0 -5 12 -10 28 -10 21 0 24 2 12 10 -20 13 -40 13 -40
0z"/>
<path d="M19892 22061 c-10 -6 -8 -10 10 -14 12 -4 32 -7 43 -7 18 1 17 2 -5
15 -30 17 -31 17 -48 6z"/>
<path d="M20045 22010 c28 -12 37 -12 30 0 -3 6 -16 10 -28 9 -21 0 -21 -1 -2
-9z"/>
<path d="M20225 21950 c-4 -6 7 -10 27 -9 27 0 30 2 13 9 -27 12 -33 12 -40 0z"/>
<path d="M20324 21911 c7 -11 66 -20 66 -10 0 4 -7 10 -16 13 -24 9 -56 7 -50
-3z"/>
<path d="M20727 21774 c-10 -11 3 -24 24 -24 23 0 25 15 3 24 -19 7 -19 7 -27
0z"/>
<path d="M17217 21709 c-192 -45 -286 -229 -274 -533 7 -182 42 -272 127 -331
59 -41 107 -54 197 -55 146 0 238 52 295 168 29 59 33 76 33 147 -1 95 -23
153 -79 207 -56 55 -116 79 -196 80 -86 1 -155 -22 -210 -70 l-43 -36 6 63
c17 158 119 262 243 248 58 -6 94 -31 119 -85 l19 -41 61 6 c33 3 62 7 64 10
3 2 -3 28 -13 59 -42 134 -186 201 -349 163z m165 -455 c91 -47 115 -191 46
-279 -52 -67 -173 -89 -255 -47 -78 40 -121 160 -83 233 52 100 191 145 292
93z"/>
<path d="M17929 21714 c-84 -15 -182 -113 -195 -196 l-6 -36 58 -10 c33 -5 62
-8 66 -6 3 2 9 17 13 34 14 62 102 110 178 96 113 -21 164 -144 87 -210 -32
-26 -125 -51 -153 -40 -13 5 -17 0 -17 -17 0 -13 -3 -40 -6 -60 l-6 -36 68 1
c59 1 76 -3 117 -27 157 -92 89 -303 -98 -301 -93 1 -137 30 -175 116 -20 45
-21 47 -58 42 -69 -10 -82 -14 -82 -31 0 -82 95 -197 189 -228 65 -21 189 -24
246 -5 132 43 204 150 192 283 -8 91 -52 151 -152 206 -11 5 -15 11 -8 11 19
0 72 50 89 82 21 41 20 128 -4 180 -22 51 -78 103 -139 130 -43 19 -153 31
-204 22z"/>
<path d="M20888 21693 c6 -2 18 -2 25 0 6 3 1 5 -13 5 -14 0 -19 -2 -12 -5z"/>
<path d="M20960 21660 c0 -5 9 -10 21 -10 11 0 17 5 14 10 -3 6 -13 10 -21 10
-8 0 -14 -4 -14 -10z"/>
<path d="M21050 21620 c0 -5 12 -10 26 -10 14 0 23 4 19 10 -3 6 -15 10 -26
10 -10 0 -19 -4 -19 -10z"/>
<path d="M16103 21592 c-80 -28 -130 -67 -172 -132 -62 -96 -76 -165 -76 -375
0 -202 11 -259 65 -334 46 -64 102 -85 205 -79 169 11 266 94 322 273 25 85
26 384 1 466 -24 78 -74 148 -123 173 -55 28 -154 32 -222 8z m136 -117 c78
-40 103 -114 102 -313 0 -219 -37 -312 -143 -357 -78 -32 -155 -6 -190 65 -42
85 -48 321 -13 449 36 127 154 203 244 156z"/>
<path d="M19045 21600 c-111 -18 -170 -93 -163 -205 4 -71 39 -135 88 -163
l28 -16 -51 -26 c-74 -37 -102 -89 -101 -190 0 -92 29 -164 93 -227 86 -85
238 -130 354 -104 194 43 238 295 77 445 l-49 46 39 21 c95 54 95 205 0 313
-70 79 -204 125 -315 106z m158 -134 c71 -30 115 -105 96 -163 -27 -83 -170
-85 -251 -3 -33 32 -38 44 -38 83 0 38 5 49 31 71 35 30 107 36 162 12z m14
-365 c21 -10 52 -34 70 -53 111 -116 42 -283 -109 -265 -66 8 -145 53 -176
100 -37 56 -41 131 -10 177 48 71 136 87 225 41z"/>
<path d="M21128 21583 c6 -2 18 -2 25 0 6 3 1 5 -13 5 -14 0 -19 -2 -12 -5z"/>
<path d="M21278 21513 c7 -3 16 -2 19 1 4 3 -2 6 -13 5 -11 0 -14 -3 -6 -6z"/>
<path d="M21350 21479 c0 -5 9 -9 20 -9 11 0 20 2 20 4 0 2 -9 6 -20 9 -11 3
-20 1 -20 -4z"/>
<path d="M15389 21447 c-129 -37 -239 -154 -265 -285 l-6 -31 53 6 c66 7 73
12 88 62 7 25 28 54 56 79 82 72 186 77 221 10 40 -78 -24 -172 -145 -214 -38
-13 -48 -32 -50 -96 l-1 -36 50 19 c28 10 66 19 86 19 100 0 152 -94 109 -198
-45 -106 -203 -183 -283 -138 -28 15 -62 64 -62 89 0 21 5 22 -66 -7 -54 -22
-59 -27 -58 -54 2 -48 35 -102 77 -130 37 -25 49 -27 136 -27 87 0 102 3 163
32 159 75 255 232 233 379 -8 59 -61 119 -117 134 l-39 11 36 41 c48 52 66 98
66 163 0 73 -29 129 -83 156 -51 26 -138 33 -199 16z"/>
<path d="M19710 21428 c-54 -29 -103 -97 -128 -177 -13 -43 -17 -93 -17 -216
0 -137 3 -170 22 -230 54 -170 195 -286 369 -302 113 -10 208 50 235 149 18
68 7 184 -24 252 -79 173 -292 268 -435 194 l-48 -25 8 64 c18 156 121 230
243 174 49 -22 99 -76 115 -125 8 -26 19 -38 38 -42 15 -3 42 -10 61 -15 19
-5 36 -7 37 -6 2 1 -1 22 -7 46 -15 68 -53 133 -108 184 -70 66 -127 89 -231
94 -75 4 -90 2 -130 -19z m201 -433 c93 -33 156 -112 165 -207 9 -96 -48 -164
-135 -162 -101 4 -207 89 -237 191 -41 141 62 229 207 178z"/>
<path d="M21440 21440 c0 -5 5 -10 11 -10 5 0 7 5 4 10 -3 6 -8 10 -11 10 -2
0 -4 -4 -4 -10z"/>
<path d="M21480 21410 c0 -5 7 -10 16 -10 8 0 12 5 9 10 -3 6 -10 10 -16 10
-5 0 -9 -4 -9 -10z"/>
<path d="M21690 21300 c0 -5 7 -10 16 -10 8 0 12 5 9 10 -3 6 -10 10 -16 10
-5 0 -9 -4 -9 -10z"/>
<path d="M21760 21260 c19 -13 30 -13 30 0 0 6 -10 10 -22 10 -19 0 -20 -2 -8
-10z"/>
<path d="M14386 21129 c-111 -26 -237 -132 -296 -248 -57 -114 -73 -195 -74
-381 0 -149 2 -171 22 -222 40 -100 116 -140 225 -120 138 26 260 119 324 249
34 69 38 85 41 172 3 86 1 101 -20 141 -78 145 -301 112 -441 -65 l-39 -49 7
59 c20 170 109 298 231 335 52 16 92 -1 114 -47 16 -35 19 -35 96 -2 40 18 44
22 38 47 -28 114 -106 159 -228 131z m73 -464 c86 -44 60 -222 -45 -315 -131
-114 -274 -80 -274 67 0 148 205 307 319 248z"/>
<path d="M20775 21102 c-68 -43 -94 -100 -95 -203 -1 -179 124 -356 285 -404
64 -20 101 -19 153 5 l44 20 -7 -53 c-10 -72 -42 -154 -68 -172 -51 -36 -161
-4 -216 62 -16 19 -34 55 -41 79 -12 41 -15 44 -65 59 -29 8 -56 15 -60 15
-15 0 5 -91 30 -140 50 -99 139 -173 244 -204 145 -42 237 11 278 161 23 82
22 334 0 423 -39 149 -137 279 -253 336 -77 38 -183 45 -229 16z m224 -137
c81 -40 136 -124 148 -223 11 -92 -47 -162 -120 -146 -83 17 -162 79 -204 157
-24 44 -24 153 -1 187 40 55 101 64 177 25z"/>
<path d="M22050 21090 c0 -5 7 -10 16 -10 8 0 12 5 9 10 -3 6 -10 10 -16 10
-5 0 -9 -4 -9 -10z"/>
<path d="M22167 21024 c-11 -11 3 -24 25 -24 17 0 18 2 8 15 -13 16 -23 19
-33 9z"/>
<path d="M22348 20903 c7 -3 16 -2 19 1 4 3 -2 6 -13 5 -11 0 -14 -3 -6 -6z"/>
<path d="M13663 20815 c-138 -43 -264 -184 -302 -339 -7 -27 -10 -50 -8 -53 3
-2 30 6 61 17 37 14 56 27 56 38 0 34 48 118 87 153 22 20 61 44 88 54 42 17
50 17 73 4 46 -26 47 -93 3 -166 -18 -29 -90 -91 -136 -119 -13 -7 -20 -27
-25 -67 -3 -31 -3 -57 2 -57 4 0 24 11 44 25 90 61 173 53 192 -18 34 -123
-116 -315 -248 -319 -30 -1 -80 34 -80 56 0 6 -4 17 -9 25 -7 11 -20 6 -65
-25 -52 -36 -56 -41 -50 -69 26 -127 134 -157 290 -80 104 51 189 136 240 241
34 68 39 89 42 160 3 61 0 89 -12 112 -19 37 -62 62 -106 62 l-32 0 28 33
c100 118 99 291 -1 333 -42 17 -76 17 -132 -1z"/>
<path d="M21481 20813 c-43 -23 -70 -58 -77 -103 -5 -34 -3 -36 51 -68 31 -19
57 -32 59 -30 1 1 6 16 12 33 22 69 107 65 190 -8 54 -48 84 -103 84 -155 0
-69 -54 -90 -140 -56 -23 9 -42 15 -44 13 -2 -2 -6 -27 -9 -54 l-6 -51 51 -18
c103 -36 198 -160 198 -257 0 -130 -130 -141 -251 -20 -43 44 -59 69 -75 117
-19 61 -20 62 -70 78 -65 20 -64 20 -64 -7 0 -82 94 -239 183 -307 121 -91
259 -122 323 -74 58 43 69 69 69 157 0 71 -5 91 -31 147 -17 36 -50 86 -72
111 l-41 45 36 13 c60 22 78 97 47 202 -56 192 -297 359 -423 292z"/>
<path d="M17515 20474 c-334 -51 -588 -186 -971 -515 -355 -307 -513 -597
-421 -775 23 -44 91 -102 155 -131 51 -24 62 -25 176 -21 102 4 136 10 216 37
165 56 387 174 519 277 24 19 48 34 53 34 5 0 21 -21 36 -46 102 -175 279
-324 384 -324 81 0 118 -18 188 -89 36 -36 87 -86 114 -111 27 -25 61 -70 75
-100 29 -61 58 -75 93 -44 21 20 21 30 -7 124 -12 41 -15 85 -13 170 3 101 7
123 32 178 32 70 84 122 121 122 29 0 90 -51 112 -93 39 -76 56 -169 57 -310
l1 -139 45 -25 c25 -14 59 -38 76 -55 44 -41 63 -34 85 30 49 144 51 449 5
662 -55 255 -146 480 -272 671 -67 100 -187 219 -257 254 -32 15 -87 52 -124
82 -73 60 -140 95 -228 118 -62 16 -198 27 -250 19z"/>
<path d="M22150 20448 c-54 -36 -70 -78 -70 -183 0 -106 26 -190 84 -277 95
-144 254 -232 338 -187 20 11 21 10 16 -53 -7 -78 -38 -145 -73 -154 -81 -20
-197 77 -227 191 -12 44 -17 49 -67 71 -29 13 -55 24 -58 24 -7 0 9 -73 28
-128 52 -152 220 -294 349 -294 82 0 118 36 147 143 22 85 22 324 -1 428 -25
119 -86 231 -169 315 -115 115 -224 153 -297 104z m207 -150 c87 -52 154 -174
156 -280 1 -106 -46 -138 -137 -94 -130 64 -220 246 -172 348 29 60 82 69 153
26z"/>
<path d="M12928 20250 l-48 -30 0 -119 0 -119 -115 -73 -115 -72 0 -59 c0 -32
3 -58 6 -58 4 0 53 29 109 65 56 36 105 65 108 65 4 0 7 -52 7 -115 0 -63 2
-115 5 -115 3 0 27 14 55 31 l50 31 0 121 0 122 118 66 117 67 3 62 3 62 -63
-34 c-35 -19 -89 -50 -120 -67 l-58 -33 0 116 c0 64 -3 116 -7 116 -5 0 -29
-14 -55 -30z"/>
<path d="M23280 20190 c0 -5 5 -10 11 -10 5 0 7 5 4 10 -3 6 -8 10 -11 10 -2
0 -4 -4 -4 -10z"/>
<path d="M19575 18174 c-103 -23 -179 -67 -263 -152 -113 -115 -211 -298 -271
-512 -12 -41 -26 -88 -31 -105 -51 -166 -114 -629 -136 -997 -4 -76 -10 -111
-21 -119 -28 -24 -349 17 -623 78 -157 35 -416 120 -445 147 -19 17 -27 43
-43 151 -30 187 -43 325 -51 503 l-6 157 -30 -3 c-154 -14 -180 -13 -264 12
-83 26 -161 68 -196 106 -20 23 -44 26 -46 8 -7 -78 14 -299 47 -483 50 -281
100 -492 221 -930 13 -49 38 -139 54 -200 16 -60 38 -144 49 -185 72 -267 231
-779 302 -970 47 -127 49 -130 87 -139 52 -13 343 3 411 23 30 9 99 22 154 28
97 11 99 12 140 53 51 52 63 56 336 100 391 63 464 75 590 91 180 22 173 20
167 52 -3 15 -26 104 -51 198 -70 264 -119 557 -156 934 -25 256 -25 336 0
536 71 577 227 991 452 1199 105 97 210 148 350 170 21 3 40 10 43 16 7 10
-175 99 -333 163 -90 36 -239 75 -309 81 -34 3 -87 -2 -128 -11z"/>
<path d="M10100 16980 c0 -5 4 -10 9 -10 6 0 13 5 16 10 3 6 -1 10 -9 10 -9 0
-16 -4 -16 -10z"/>
<path d="M10037 16953 c-15 -14 -6 -24 16 -18 35 11 44 25 16 25 -14 0 -29 -3
-32 -7z"/>
<path d="M9995 16923 c-11 -3 -27 -10 -35 -17 -8 -7 -26 -18 -40 -24 -56 -28
-120 -72 -120 -83 0 -12 28 0 86 38 28 18 55 33 60 33 5 0 25 14 44 30 19 16
33 29 30 29 -3 -1 -14 -4 -25 -6z"/>
<path d="M10249 16836 c-19 -14 -43 -32 -54 -39 -20 -14 -231 -139 -290 -171
-16 -9 -47 -27 -67 -39 -112 -66 -250 -147 -305 -178 -21 -12 -49 -29 -63 -39
-14 -9 -83 -51 -155 -92 -71 -41 -182 -106 -245 -143 -63 -37 -171 -100 -240
-140 -123 -71 -229 -133 -385 -226 -44 -26 -123 -72 -175 -103 -128 -74 -133
-78 -128 -107 3 -23 4 -23 21 9 10 17 24 32 31 32 8 0 76 37 152 83 214 128
371 220 464 273 47 27 120 70 163 96 43 26 80 48 83 48 2 0 28 16 59 35 30 20
63 39 73 42 9 4 47 26 85 50 37 24 69 43 72 43 3 0 35 19 72 43 38 24 127 76
198 117 72 41 159 92 195 115 36 22 76 46 90 53 14 7 41 22 61 35 20 12 81 48
135 80 148 87 201 121 203 132 5 19 -16 15 -50 -9z"/>
<path d="M9742 16779 c-27 -11 -21 -29 8 -22 25 7 49 33 29 32 -8 0 -24 -4
-37 -10z"/>
<path d="M9685 16743 c-11 -3 -33 -16 -50 -28 -16 -13 -58 -37 -92 -54 -35
-17 -63 -35 -63 -40 0 -5 -11 -12 -24 -15 -14 -3 -55 -26 -92 -51 -80 -54 -56
-62 30 -10 32 19 60 35 62 35 2 0 25 15 51 32 49 33 84 54 138 81 35 18 84 57
70 56 -5 -1 -19 -4 -30 -6z"/>
<path d="M10474 16726 c-19 -10 -51 -31 -134 -86 -25 -16 -102 -62 -184 -109
-58 -33 -215 -124 -253 -147 -17 -10 -80 -48 -140 -83 -59 -35 -139 -82 -178
-106 -157 -95 -364 -215 -370 -215 -3 0 -18 -9 -33 -19 -24 -17 -190 -115
-482 -286 -58 -34 -153 -89 -212 -124 -117 -69 -163 -105 -152 -122 5 -8 12
-5 23 9 9 12 27 27 41 34 14 7 104 60 200 117 96 57 229 136 295 174 66 39
190 112 275 162 85 50 211 124 280 165 69 40 190 111 270 159 79 47 149 88
155 90 5 2 21 12 35 21 14 10 57 34 95 55 39 21 88 50 110 65 22 15 74 45 115
68 41 23 91 52 111 65 20 12 63 37 95 56 57 34 74 48 74 64 0 9 -10 8 -36 -7z"/>
<path d="M10668 16598 c-8 -7 -23 -19 -33 -25 -42 -26 -141 -87 -160 -97 -11
-6 -57 -34 -103 -61 -46 -28 -138 -82 -205 -121 -182 -105 -525 -307 -582
-341 -27 -17 -99 -59 -160 -95 -60 -36 -148 -88 -195 -115 -47 -28 -101 -59
-120 -70 -19 -11 -100 -58 -180 -105 -80 -47 -197 -115 -260 -152 -141 -82
-147 -88 -132 -118 7 -15 11 -18 11 -7 1 22 34 49 116 96 39 22 122 70 185
108 162 95 162 95 295 172 66 39 233 137 370 218 138 81 268 157 290 170 22
12 57 32 77 43 21 12 54 32 75 45 21 14 103 63 183 109 80 47 227 134 328 194
100 60 194 116 209 124 26 15 33 32 15 38 -5 1 -16 -3 -24 -10z"/>
<path d="M9239 16483 c-13 -10 -41 -27 -62 -37 -20 -11 -43 -26 -50 -34 -10
-13 -8 -14 17 -8 16 4 41 16 55 28 14 11 41 26 59 33 32 14 44 35 18 35 -7 0
-24 -8 -37 -17z"/>
<path d="M8362 15265 c0 -16 2 -22 5 -12 2 9 2 23 0 30 -3 6 -5 -1 -5 -18z"/>
<path d="M8031 15070 c0 -25 4 -52 9 -60 8 -12 10 -12 9 5 0 11 -4 38 -8 60
l-9 40 -1 -45z"/>
<path d="M8221 15004 c0 -11 3 -14 6 -6 3 7 2 16 -1 19 -3 4 -6 -2 -5 -13z"/>
<path d="M8582 15000 c0 -14 2 -19 5 -12 2 6 2 18 0 25 -3 6 -5 1 -5 -13z"/>
<path d="M14598 14704 c-216 -163 -258 -198 -258 -219 0 -14 3 -25 8 -25 4 0
18 -16 31 -35 13 -19 30 -35 38 -35 7 0 95 61 194 136 99 75 182 134 184 132
2 -2 -2 -192 -9 -423 l-14 -419 32 -47 c17 -26 35 -48 40 -48 5 -1 133 92 283
205 151 113 281 208 289 211 8 3 14 14 14 25 0 26 -59 108 -78 108 -9 0 -112
-72 -230 -161 l-215 -161 7 128 c3 71 11 265 17 431 l11 302 -33 46 c-18 25
-37 45 -43 44 -6 0 -127 -88 -268 -195z"/>
<path d="M8432 14800 c0 -19 2 -27 5 -17 2 9 2 25 0 35 -3 9 -5 1 -5 -18z"/>
<path d="M8092 14610 c0 -51 13 -127 18 -105 4 22 -2 105 -10 132 -7 23 -8 18
-8 -27z"/>
<path d="M8293 14535 c0 -22 2 -30 4 -17 2 12 2 30 0 40 -3 9 -5 -1 -4 -23z"/>
<path d="M8472 14525 c0 -16 2 -22 5 -12 2 9 2 23 0 30 -3 6 -5 -1 -5 -18z"/>
<path d="M8503 14330 c0 -25 2 -35 4 -22 2 12 2 32 0 45 -2 12 -4 2 -4 -23z"/>
<path d="M8143 14295 c0 -22 2 -30 4 -17 2 12 2 30 0 40 -3 9 -5 -1 -4 -23z"/>
<path d="M8332 14270 c0 -14 2 -19 5 -12 2 6 2 18 0 25 -3 6 -5 1 -5 -13z"/>
<path d="M12465 14265 c17 -14 35 -25 41 -25 6 0 21 -9 34 -20 21 -18 60 -28
60 -15 0 3 -15 12 -32 20 -45 21 -78 41 -91 54 -6 6 -18 11 -26 11 -11 -1 -6
-9 14 -25z"/>
<path d="M12617 14180 c12 -13 45 -33 81 -50 13 -5 30 -17 38 -25 17 -17 49
-21 39 -5 -3 6 -10 10 -15 10 -9 0 -72 39 -96 59 -6 5 -21 12 -35 16 -19 6
-21 5 -12 -5z"/>
<path d="M8173 14115 c0 -22 2 -30 4 -17 2 12 2 30 0 40 -3 9 -5 -1 -4 -23z"/>
<path d="M8362 14060 c0 -14 2 -19 5 -12 2 6 2 18 0 25 -3 6 -5 1 -5 -13z"/>
<path d="M8542 14060 c0 -14 2 -19 5 -12 2 6 2 18 0 25 -3 6 -5 1 -5 -13z"/>
<path d="M12805 14066 c11 -7 58 -33 105 -58 47 -24 122 -66 168 -94 45 -27
99 -58 120 -69 20 -11 64 -36 97 -55 33 -19 72 -41 88 -50 15 -8 63 -36 107
-62 44 -27 81 -48 84 -48 2 0 124 -70 271 -155 146 -85 268 -155 270 -155 3 0
125 -71 155 -90 8 -6 26 -16 40 -22 14 -7 48 -27 77 -45 29 -18 54 -33 56 -33
3 0 92 -50 198 -110 180 -104 227 -122 236 -94 2 7 -5 10 -19 7 -25 -5 -55 6
-103 36 -54 34 -326 191 -331 191 -2 0 -33 18 -68 40 -35 22 -66 40 -71 40 -4
0 -19 9 -34 19 -15 11 -54 34 -86 52 -33 18 -188 107 -345 198 -157 91 -301
173 -320 183 -19 10 -53 29 -75 42 -209 122 -442 253 -502 283 -40 20 -78 42
-84 50 -6 7 -21 13 -32 13 -21 0 -21 0 -2 -14z"/>
<path d="M16620 13939 c-19 -11 -48 -28 -65 -39 -16 -11 -43 -26 -60 -35 -16
-8 -43 -24 -60 -35 -16 -11 -43 -27 -60 -36 -141 -73 -221 -122 -212 -130 5
-6 71 29 142 74 28 17 55 32 62 32 6 0 18 6 25 13 7 7 38 26 68 41 30 16 57
31 60 35 3 3 31 20 63 36 32 17 66 38 74 48 20 22 8 20 -37 -4z"/>
<path d="M18228 13920 c-27 -16 -22 -38 21 -89 21 -25 42 -60 45 -78 7 -30
-19 -277 -31 -296 -11 -18 -90 -45 -166 -58 -85 -13 -313 -9 -632 12 -324 21
-716 4 -1046 -45 -228 -34 -563 -114 -659 -158 -25 -11 -108 -42 -185 -68 -77
-27 -189 -69 -250 -95 -60 -26 -128 -54 -150 -63 -132 -53 -174 -116 -211
-314 -13 -71 -15 -122 -11 -223 5 -102 3 -135 -8 -155 -12 -22 -11 -27 1 -41
9 -10 19 -47 25 -83 13 -94 45 -238 73 -327 15 -52 80 -178 198 -390 96 -173
194 -350 218 -394 23 -44 57 -107 75 -140 106 -196 192 -360 268 -510 89 -178
257 -524 257 -530 0 -3 24 -53 54 -113 81 -166 316 -698 316 -717 0 -4 6 -21
14 -38 24 -53 47 -110 61 -152 7 -22 23 -65 35 -95 11 -30 30 -83 41 -117 15
-46 28 -69 57 -91 l37 -30 -28 -13 c-15 -7 -27 -16 -27 -20 0 -5 17 -21 37
-36 79 -60 153 -158 138 -183 -14 -23 -46 -8 -71 32 -33 52 -49 68 -99 101
-45 30 -77 34 -95 12 -10 -12 -10 -18 0 -30 7 -8 18 -15 26 -15 20 0 81 -57
115 -107 30 -43 35 -83 12 -90 -13 -5 -17 0 -81 83 -25 32 -57 59 -86 72 -43
21 -86 29 -86 16 0 -3 33 -38 73 -77 86 -84 118 -140 94 -165 -21 -20 -42 -10
-62 31 -44 92 -138 157 -228 157 -59 0 -262 -54 -368 -99 -134 -56 -199 -137
-199 -246 0 -77 26 -124 94 -169 260 -173 631 -180 948 -20 75 38 145 92 212
165 32 35 78 85 102 111 68 73 110 97 191 107 46 6 93 20 133 40 58 29 202
124 262 172 16 13 33 19 43 15 16 -6 17 -18 11 -119 -11 -174 -7 -266 12 -296
53 -84 176 -162 352 -221 221 -74 390 -45 667 114 109 62 173 115 347 285 214
208 502 548 746 877 30 41 94 125 142 187 47 61 119 155 160 208 188 247 410
508 569 669 137 139 184 182 309 282 53 41 102 83 109 92 18 22 51 21 51 -1 1
-46 17 -46 61 2 44 48 142 105 179 105 25 0 37 -25 20 -45 -7 -8 -30 -20 -52
-27 -56 -16 -148 -105 -148 -141 0 -36 23 -35 50 2 24 35 150 101 192 101 26
0 29 -3 26 -27 -2 -23 -11 -31 -48 -43 -64 -21 -100 -43 -136 -82 -67 -71 -78
-133 -59 -325 16 -162 27 -217 56 -278 37 -78 125 -134 211 -135 86 0 123 25
207 140 130 176 181 333 181 554 0 129 -10 203 -40 301 -38 124 -68 178 -177
313 -24 29 -55 76 -70 105 -25 47 -28 61 -26 145 2 76 -2 108 -23 175 -36 113
-117 290 -160 348 -31 43 -43 51 -102 68 -37 11 -87 23 -112 27 -25 4 -62 15
-83 26 -32 16 -43 17 -78 7 -58 -18 -63 -5 -28 74 52 117 102 340 125 562 22
209 14 626 -15 768 -29 142 -68 281 -101 356 -31 72 -66 192 -76 259 -8 54
-25 61 -74 33 -59 -33 -216 -87 -312 -107 -96 -20 -82 -24 -179 54 -51 42 -55
44 -104 38 -162 -21 -315 -28 -705 -33 -426 -5 -599 1 -785 28 -78 11 -81 13
-130 64 l-50 54 -160 4 c-88 3 -176 8 -195 11 -19 4 -43 2 -52 -4z m-965
-2255 c205 -38 508 -114 1022 -255 44 -13 117 -32 163 -44 45 -12 90 -30 99
-39 14 -14 15 -18 1 -39 -8 -13 -43 -93 -77 -178 -35 -85 -69 -164 -76 -176
-20 -32 -200 -487 -270 -684 -183 -515 -247 -742 -313 -1113 -9 -54 -21 -99
-27 -100 -6 -1 -13 32 -17 73 -3 41 -12 136 -18 210 -46 532 -212 1111 -431
1510 -165 301 -333 537 -519 730 -90 94 -92 104 -24 126 65 22 322 11 487 -21z
m4145 -1027 c4 -19 -51 -58 -80 -58 -25 0 -22 29 4 57 26 28 71 28 76 1z
m-4568 -2190 c50 -51 64 -108 26 -108 -15 0 -106 112 -106 130 0 22 49 8 80
-22z"/>
<path d="M8211 13828 c0 -33 3 -58 9 -58 11 0 11 40 0 85 -6 25 -8 20 -9 -27z"/>
<path d="M8762 13790 c0 -14 2 -19 5 -12 2 6 2 18 0 25 -3 6 -5 1 -5 -13z"/>
<path d="M16106 13641 c-3 -5 -20 -16 -38 -25 -18 -10 -51 -28 -73 -41 -22
-13 -50 -29 -62 -34 -13 -6 -23 -13 -23 -16 0 -10 29 -5 42 8 15 13 41 28 126
73 28 15 52 31 52 36 0 11 -17 10 -24 -1z"/>
<path d="M8249 13578 c4 -28 6 -29 9 -9 2 13 0 27 -5 32 -6 6 -7 -3 -4 -23z"/>
<path d="M8613 13575 c0 -22 2 -30 4 -17 2 12 2 30 0 40 -3 9 -5 -1 -4 -23z"/>
<path d="M8432 13570 c0 -14 2 -19 5 -12 2 6 2 18 0 25 -3 6 -5 1 -5 -13z"/>
<path d="M8792 13570 c0 -14 2 -19 5 -12 2 6 2 18 0 25 -3 6 -5 1 -5 -13z"/>
<path d="M13040 13520 c-137 -51 -269 -177 -332 -317 -32 -71 -31 -200 2 -268
62 -128 184 -190 324 -164 64 11 164 57 281 129 103 63 205 110 240 110 40 0
90 -32 110 -69 37 -74 2 -172 -95 -265 -119 -113 -232 -135 -340 -66 l-53 34
-45 -49 c-76 -87 -79 -92 -51 -121 13 -14 57 -42 98 -62 71 -35 80 -37 171
-37 93 0 99 1 181 42 208 104 351 311 337 488 -10 116 -73 217 -170 271 -48
26 -62 29 -143 29 -110 -1 -154 -17 -310 -111 -127 -77 -241 -134 -268 -134
-31 0 -76 29 -92 60 -34 66 -12 133 72 222 61 64 137 108 188 108 30 0 92 -26
131 -55 20 -15 24 -12 84 55 l63 71 -29 30 c-77 80 -239 112 -354 69z"/>
<path d="M15870 13506 c-14 -7 -41 -23 -60 -34 -19 -12 -47 -27 -62 -33 -28
-11 -38 -29 -17 -29 7 0 35 15 63 34 28 18 61 36 73 40 11 4 24 13 27 21 7 18
7 18 -24 1z"/>
<path d="M15500 13300 c-96 -54 -186 -107 -200 -118 l-25 -20 25 5 c14 2 43
17 65 33 22 16 68 43 102 60 34 17 67 37 73 45 6 7 24 15 41 19 27 5 119 60
119 71 0 14 -42 -6 -200 -95z"/>
<path d="M8280 13352 c0 -23 5 -42 10 -42 7 0 8 14 4 38 -9 51 -14 53 -14 4z"/>
<path d="M8652 13325 c0 -16 2 -22 5 -12 2 9 2 23 0 30 -3 6 -5 -1 -5 -18z"/>
<path d="M8826 13323 c10 -40 14 -41 14 -5 0 18 -5 32 -10 32 -6 0 -8 -11 -4
-27z"/>
<path d="M8311 13174 c0 -11 3 -14 6 -6 3 7 2 16 -1 19 -3 4 -6 -2 -5 -13z"/>
<path d="M15207 13130 c-26 -16 -51 -30 -56 -30 -4 0 -36 -18 -70 -40 -34 -22
-64 -40 -66 -40 -15 0 -127 -74 -117 -78 7 -2 34 10 60 26 26 16 74 44 107 62
91 49 195 111 201 121 10 17 -12 9 -59 -21z"/>
<path d="M8501 13113 c-1 -17 4 -35 9 -38 11 -7 11 9 0 45 -8 24 -8 24 -9 -7z"/>
<path d="M8682 13105 c0 -16 2 -22 5 -12 2 9 2 23 0 30 -3 6 -5 -1 -5 -18z"/>
<path d="M8326 13094 c-9 -25 -7 -64 4 -64 6 0 10 18 10 40 0 43 -4 50 -14 24z"/>
<path d="M8352 12890 c0 -14 2 -19 5 -12 2 6 2 18 0 25 -3 6 -5 1 -5 -13z"/>
<path d="M8531 12863 c1 -21 5 -49 9 -63 6 -19 8 -9 9 38 1 35 -3 62 -9 62 -5
0 -10 -17 -9 -37z"/>
<path d="M8722 12850 c0 -19 2 -27 5 -17 2 9 2 25 0 35 -3 9 -5 1 -5 -18z"/>
<path d="M8740 12646 c0 -14 5 -28 10 -31 6 -4 10 7 10 24 0 17 -4 31 -10 31
-5 0 -10 -11 -10 -24z"/>
<path d="M8933 12605 c0 -22 2 -30 4 -17 2 12 2 30 0 40 -3 9 -5 -1 -4 -23z"/>
<path d="M11135 12204 c-33 -25 -61 -48 -62 -52 -1 -4 90 -131 202 -282 113
-151 218 -300 235 -331 33 -63 39 -119 16 -172 -33 -79 -178 -177 -262 -177
-33 0 -52 8 -92 38 -63 47 -81 69 -302 366 -143 193 -186 246 -204 246 -29 0
-148 -88 -139 -103 4 -7 104 -143 223 -302 282 -377 326 -416 488 -423 97 -5
156 11 246 66 80 48 177 145 212 212 26 50 29 65 29 151 0 94 -1 100 -41 177
-58 113 -443 631 -469 631 -11 0 -47 -20 -80 -45z"/>
<path d="M14815 12207 c-45 -28 -63 -43 -52 -45 17 -3 119 58 132 78 11 18 -9
10 -80 -33z"/>
<path d="M14655 12114 c-33 -19 -68 -37 -77 -40 -9 -3 -19 -12 -22 -19 -3 -10
0 -12 12 -8 24 9 172 94 172 99 0 11 -31 -1 -85 -32z"/>
<path d="M14495 12019 c-22 -11 -47 -27 -55 -36 -13 -12 -13 -13 5 -7 39 14
111 64 92 64 -1 0 -20 -9 -42 -21z"/>
<path d="M14348 11938 c-44 -23 -52 -44 -10 -25 15 6 29 14 32 18 3 3 14 11
25 17 37 21 -8 12 -47 -10z"/>
<path d="M14263 11887 c-12 -6 -47 -25 -78 -41 -30 -16 -55 -33 -55 -38 0 -15
42 2 81 33 20 16 41 29 46 29 5 0 18 7 29 15 23 18 7 19 -23 2z"/>
<path d="M14085 11788 c-11 -6 -22 -14 -25 -17 -3 -4 -16 -12 -30 -19 -66 -34
-84 -46 -74 -49 5 -2 30 8 55 21 24 14 59 32 77 40 17 8 32 20 32 25 0 14 -10
13 -35 -1z"/>
<path d="M13920 11693 c-31 -12 -111 -68 -101 -71 12 -4 94 43 111 63 13 16
13 16 -10 8z"/>
<path d="M13760 11595 c-16 -19 0 -19 26 0 16 12 16 14 3 15 -9 0 -22 -7 -29
-15z"/>
<path d="M13667 11574 c-11 -12 3 -24 28 -24 13 0 27 5 30 10 3 6 0 10 -9 10
-8 0 -21 2 -28 5 -8 3 -17 3 -21 -1z"/>
<path d="M13561 11495 c-30 -19 -59 -36 -65 -38 -6 -2 -8 -8 -4 -11 9 -11 128
56 128 72 0 16 4 17 -59 -23z"/>
<path d="M13391 11395 c-29 -19 -59 -35 -66 -35 -7 0 -19 -7 -26 -16 -12 -15
-11 -16 11 -9 14 4 32 13 40 20 8 7 25 16 38 19 12 4 22 12 22 17 0 5 6 9 14
9 7 0 19 7 26 15 21 25 -2 17 -59 -20z"/>
<path d="M13185 11279 c-38 -22 -77 -44 -85 -49 -37 -22 -252 -146 -270 -156
-29 -16 -35 -24 -18 -24 8 0 25 9 38 20 13 11 31 20 40 20 10 0 23 7 30 15 7
8 18 15 26 15 7 0 19 6 26 14 8 8 39 26 69 41 29 15 71 39 92 52 22 14 60 36
85 50 57 31 71 43 52 43 -8 0 -46 -19 -85 -41z"/>
<path d="M8512 11057 l-83 -83 -8 -468 c-5 -257 -11 -469 -13 -471 -2 -2 -108
103 -236 235 l-232 238 -62 -64 -62 -65 90 -92 c50 -51 241 -247 424 -437 183
-190 355 -367 381 -394 l48 -50 66 63 66 63 -166 168 -167 168 8 154 c3 84 7
154 8 154 0 1 186 -33 411 -76 l410 -78 82 81 c45 44 81 82 80 84 -2 1 -221
39 -487 83 -266 44 -486 83 -488 85 -3 2 1 178 8 390 7 212 10 388 8 390 -2 3
-41 -33 -86 -78z"/>
<path d="M12762 11039 c-13 -5 -47 -24 -75 -43 -29 -18 -72 -45 -97 -60 -25
-14 -40 -26 -33 -26 14 0 95 40 103 51 3 3 15 10 28 13 30 10 102 57 102 68 0
9 2 9 -28 -3z"/>
<path d="M12503 10890 c-13 -5 -23 -14 -23 -19 0 -13 37 -2 51 15 13 16 4 17
-28 4z"/>
<path d="M12440 10853 c-8 -3 -33 -18 -55 -33 -22 -15 -62 -37 -90 -50 -27
-13 -70 -38 -95 -54 -25 -17 -55 -36 -65 -42 -124 -67 -376 -211 -397 -225
-15 -11 -31 -19 -36 -19 -5 0 -15 -7 -22 -15 -19 -23 12 -20 43 5 14 11 28 20
31 20 3 0 69 37 147 83 166 97 198 115 263 150 27 15 54 31 60 36 11 8 94 54
178 99 64 33 90 64 38 45z"/>
<path d="M23301 10495 c-24 -33 -28 -45 -17 -45 8 0 20 9 26 20 6 11 24 27 41
35 16 9 27 20 24 25 -14 22 -43 7 -74 -35z"/>
<path d="M11610 10375 c-7 -8 -17 -15 -22 -15 -6 0 -52 -25 -103 -55 -50 -30
-96 -55 -102 -55 -5 0 -18 -9 -28 -20 -10 -11 -25 -20 -34 -20 -9 -1 -29 -12
-46 -25 -26 -22 -28 -25 -10 -25 12 0 36 13 55 30 19 16 42 29 51 30 8 0 30
11 49 25 19 14 38 25 42 25 5 0 40 20 78 45 38 25 81 50 95 55 30 11 32 20 6
20 -10 0 -24 -7 -31 -15z"/>
<path d="M23252 10378 c-16 -20 7 -44 48 -51 30 -5 32 -4 13 5 -13 6 -23 17
-23 23 0 22 -26 37 -38 23z"/>
<path d="M23330 10301 c0 -12 117 -91 135 -91 8 0 15 -4 15 -10 0 -9 29 -32
100 -80 12 -8 36 -25 53 -37 17 -13 36 -23 43 -23 6 0 14 -7 18 -15 3 -8 11
-15 17 -15 6 0 21 -9 33 -20 34 -31 115 -90 125 -90 4 0 16 -9 26 -20 10 -11
22 -20 27 -20 5 0 16 -7 24 -15 9 -8 24 -15 35 -15 18 0 17 3 -9 30 -17 17
-34 30 -39 30 -4 1 -24 14 -43 30 -19 17 -39 30 -45 30 -7 0 -22 11 -35 25
-13 14 -30 25 -37 25 -8 0 -16 7 -19 15 -3 8 -26 25 -51 37 -24 12 -49 30 -54
40 -5 10 -14 18 -20 18 -6 0 -31 15 -57 33 -26 17 -55 37 -64 42 -34 20 -103
70 -121 87 -18 18 -57 25 -57 9z"/>
<path d="M12580 9455 c14 -16 40 -20 40 -6 0 9 -24 21 -42 21 -6 0 -6 -6 2
-15z"/>
<path d="M12660 9410 c14 -27 4 -57 -21 -65 -10 -4 -19 -11 -19 -16 0 -5 -7
-9 -15 -9 -22 0 -55 -37 -55 -60 0 -32 24 -23 59 20 40 50 53 51 49 3 -2 -30
-8 -39 -24 -41 -12 -2 -30 -12 -40 -23 -18 -20 -64 -26 -64 -8 0 22 -81 -14
-137 -61 -7 -5 -21 -10 -31 -10 -10 0 -27 -9 -37 -20 -10 -11 -24 -20 -32 -20
-8 0 -34 -13 -58 -30 -24 -16 -48 -30 -53 -30 -5 0 -17 -9 -27 -20 -10 -11
-26 -20 -37 -20 -10 0 -26 -9 -35 -20 -23 -27 -49 -25 -85 5 -41 34 -63 33
-52 -2 4 -16 8 -60 8 -100 1 -102 9 -105 101 -48 22 14 57 34 78 46 21 11 98
54 170 96 189 109 315 182 365 210 23 14 46 32 51 41 5 10 7 51 6 92 -3 62 -7
77 -25 92 -32 26 -54 24 -40 -2z m-144 -235 c-10 -8 -23 -12 -28 -9 -14 9 2
24 25 24 21 -1 21 -1 3 -15z m-71 -35 c-3 -5 -12 -10 -18 -10 -7 0 -6 4 3 10
19 12 23 12 15 0z m-35 -25 c0 -9 -12 -18 -30 -21 -16 -4 -30 -13 -30 -20 0
-9 -11 -14 -32 -14 l-33 1 30 16 c17 9 41 24 54 34 29 23 41 24 41 4z m-125
-76 c-4 -5 -17 -15 -28 -20 -12 -6 -40 -21 -62 -34 -22 -13 -49 -24 -60 -24
l-20 0 20 11 c11 6 24 17 28 25 4 7 16 13 25 13 10 0 25 9 35 20 17 21 74 29
62 9z m-195 -106 c-1 -5 -16 -18 -35 -30 -36 -23 -51 -17 -40 17 5 15 15 20
41 20 19 0 34 -3 34 -7z"/>
<path d="M11760 9111 c0 -10 30 -24 37 -17 3 3 2 9 -2 15 -8 13 -35 15 -35 2z"/>
<path d="M11830 9065 c7 -8 19 -15 27 -15 8 0 21 -7 29 -15 9 -8 23 -15 31
-15 20 0 18 2 -30 34 -43 30 -78 36 -57 11z"/>
<path d="M8980 8879 c0 -5 5 -7 10 -4 6 3 10 8 10 11 0 2 -4 4 -10 4 -5 0 -10
-5 -10 -11z"/>
<path d="M8860 8810 c-9 -6 -10 -10 -3 -10 6 0 15 5 18 10 8 12 4 12 -15 0z"/>
<path d="M8702 8743 c12 -15 54 -17 62 -4 3 5 -12 11 -33 13 -31 3 -37 1 -29
-9z"/>
<path d="M9450 8305 c7 -8 17 -15 22 -15 5 0 33 -15 61 -33 29 -18 61 -38 72
-45 11 -7 45 -25 75 -40 30 -15 77 -42 103 -60 27 -18 53 -30 58 -26 13 8 -7
21 -91 65 -36 18 -67 36 -70 39 -6 8 -150 90 -157 90 -3 0 -16 9 -30 20 -31
25 -62 28 -43 5z"/>
<path d="M20020 7940 c0 -5 7 -10 15 -10 8 0 15 5 15 10 0 6 -7 10 -15 10 -8
0 -15 -4 -15 -10z"/>
<path d="M20066 7906 c3 -7 27 -23 55 -36 27 -13 49 -27 49 -31 0 -4 16 -10
35 -13 19 -4 35 -12 35 -19 0 -7 18 -22 40 -34 41 -24 80 -30 80 -13 0 6 -6
10 -14 10 -8 0 -21 6 -28 13 -21 20 -105 67 -121 67 -8 0 -17 7 -21 15 -3 8
-14 15 -23 15 -10 0 -26 9 -36 20 -19 23 -59 28 -51 6z"/>
<path d="M13570 7870 c0 -5 -16 -27 -35 -49 -19 -21 -35 -47 -34 -57 0 -11 61
-71 151 -149 333 -288 383 -347 359 -425 -14 -48 -81 -134 -124 -161 -59 -36
-105 -43 -155 -24 -52 21 -99 58 -327 259 -93 82 -178 157 -188 165 -17 14
-21 11 -57 -29 -22 -25 -39 -55 -40 -67 0 -34 432 -412 524 -459 89 -44 172
-47 255 -9 71 33 169 134 209 215 29 56 32 73 32 149 0 96 -17 143 -71 213
-34 42 -477 438 -491 438 -4 0 -8 -4 -8 -10z"/>
<path d="M20360 7730 c0 -5 11 -12 25 -16 13 -3 29 -12 36 -20 6 -8 18 -14 26
-14 8 0 33 -15 56 -34 23 -19 54 -37 69 -41 15 -4 29 -13 32 -21 3 -8 15 -14
27 -14 11 0 32 -9 46 -20 14 -11 31 -20 38 -20 7 0 15 -7 19 -15 3 -8 13 -15
22 -15 9 0 27 -9 41 -20 14 -11 31 -20 39 -20 7 0 14 -3 16 -7 5 -12 61 -49
86 -57 12 -4 22 -14 22 -22 0 -8 3 -14 8 -15 47 -4 67 -11 74 -24 5 -8 15 -15
22 -15 8 0 16 -6 19 -14 3 -8 19 -17 36 -21 17 -4 31 -13 31 -21 0 -8 10 -14
24 -14 14 0 31 -7 40 -15 8 -8 25 -20 38 -25 28 -13 68 -35 88 -50 24 -17 63
-39 93 -51 15 -6 27 -15 27 -20 0 -6 13 -15 29 -20 16 -6 32 -17 35 -25 3 -8
14 -14 24 -14 11 0 25 -6 31 -14 7 -8 25 -18 41 -21 16 -3 34 -13 41 -21 6 -8
20 -14 30 -14 11 0 19 -4 19 -8 0 -10 71 -58 100 -67 11 -3 20 -10 20 -15 0
-5 16 -12 35 -16 19 -3 35 -10 35 -15 0 -5 15 -16 33 -24 60 -30 77 -40 77
-47 0 -3 16 -12 35 -18 19 -6 35 -18 35 -26 0 -9 11 -14 35 -14 19 0 35 3 35
8 -1 11 -150 92 -171 92 -11 0 -18 4 -17 9 3 10 -67 61 -83 61 -6 0 -22 9 -36
20 -14 11 -32 20 -39 20 -8 0 -14 4 -14 9 0 5 -16 15 -35 21 -19 6 -35 15 -35
20 0 8 -61 40 -102 53 -10 4 -18 10 -18 15 0 5 -13 15 -30 22 -16 7 -30 16
-30 20 0 5 -13 11 -30 15 -16 4 -33 11 -36 16 -3 6 -16 15 -27 20 -12 6 -40
21 -62 34 -22 14 -51 30 -65 37 -14 7 -27 15 -30 18 -13 15 -220 130 -234 130
-9 0 -16 4 -16 9 0 5 -24 21 -52 36 -29 15 -64 36 -77 46 -13 11 -30 19 -37
19 -8 0 -14 4 -14 9 0 5 -15 15 -34 21 -19 6 -36 14 -38 18 -6 13 -67 52 -82
52 -8 0 -18 5 -22 11 -3 6 -21 17 -38 25 -17 8 -44 23 -61 34 -16 11 -41 25
-55 32 -14 7 -31 18 -38 25 -7 7 -24 16 -37 19 -13 3 -26 12 -29 20 -6 16 -66
20 -66 4z"/>
<path d="M19885 7676 c-4 -19 -4 -45 0 -58 19 -60 115 -152 212 -203 21 -11
54 -29 73 -41 123 -75 479 -279 509 -291 40 -17 188 -103 230 -134 23 -17 32
-18 52 -9 21 10 32 7 78 -22 29 -18 64 -42 79 -54 l25 -21 -49 -23 c-27 -13
-69 -38 -94 -55 -25 -17 -52 -35 -60 -39 -8 -4 -33 -18 -55 -31 -22 -14 -51
-30 -65 -37 -14 -7 -31 -18 -38 -25 -7 -7 -17 -13 -22 -13 -5 0 -15 -7 -23
-15 -8 -8 -35 -25 -59 -38 -23 -13 -63 -36 -88 -52 -25 -16 -57 -36 -72 -45
-15 -8 -58 -32 -94 -53 -63 -36 -70 -38 -123 -31 -74 9 -97 18 -126 51 -23 27
-25 27 -41 11 -17 -17 -17 -19 2 -45 47 -64 194 -105 255 -73 26 14 507 308
649 397 126 79 128 80 156 63 34 -22 215 -127 504 -295 140 -82 316 -184 390
-227 180 -104 257 -129 424 -136 145 -5 233 6 339 46 85 31 104 59 66 97 -13
14 -39 28 -58 31 -31 6 -33 5 -26 -15 3 -11 3 -21 -2 -21 -4 0 -53 -9 -108
-21 -82 -17 -119 -19 -209 -14 -60 4 -130 13 -155 21 -25 8 -56 14 -67 14 -12
0 -52 17 -90 38 -63 35 -227 130 -264 152 -8 5 -49 28 -90 52 -41 23 -91 52
-110 65 -19 13 -42 28 -50 33 -8 6 -49 27 -90 48 -64 33 -169 94 -348 201 -24
14 -64 43 -90 63 -26 21 -62 43 -82 49 -19 6 -42 17 -50 24 -8 7 -40 24 -71
38 -31 14 -90 47 -130 73 -41 27 -82 52 -92 56 -10 4 -52 28 -93 53 -41 25
-87 50 -101 56 -14 5 -48 24 -77 42 -28 19 -121 73 -206 122 -219 124 -290
172 -306 209 -32 72 -60 85 -69 32z"/>
<path d="M10740 7569 c0 -5 15 -17 33 -25 33 -16 56 -29 174 -100 37 -23 88
-52 113 -64 25 -12 53 -29 62 -37 9 -8 25 -13 35 -11 14 4 12 7 -12 18 -16 8
-64 35 -105 60 -41 25 -82 49 -90 53 -8 5 -33 19 -55 32 -84 50 -155 84 -155
74z"/>
<path d="M11203 7308 c2 -7 14 -13 27 -13 13 0 25 6 28 13 2 8 -7 12 -28 12
-21 0 -30 -4 -27 -12z"/>
<path d="M11301 7253 c8 -9 29 -22 48 -30 18 -8 52 -26 75 -41 22 -15 52 -32
66 -39 14 -7 48 -26 75 -43 55 -33 74 -38 55 -15 -7 8 -17 15 -22 15 -5 0 -29
14 -54 31 -25 17 -68 42 -97 55 -29 14 -70 38 -92 54 -46 34 -77 41 -54 13z"/>
<path d="M11640 7061 c0 -8 41 -23 47 -17 2 1 -8 8 -22 14 -14 6 -25 8 -25 3z"/>
<path d="M11710 7022 c0 -8 19 -21 79 -54 113 -62 365 -207 416 -238 33 -20
85 -50 115 -65 30 -15 57 -30 60 -34 3 -3 21 -14 40 -24 63 -32 148 -81 212
-121 35 -21 88 -52 118 -69 70 -39 111 -62 196 -112 38 -22 80 -46 94 -53 14
-7 41 -23 62 -35 114 -69 181 -107 189 -107 6 0 22 -9 37 -19 39 -28 142 -91
147 -91 2 0 42 -22 87 -48 98 -57 143 -76 157 -67 21 12 11 21 -24 21 -20 0
-44 8 -57 20 -13 11 -34 26 -48 32 -33 16 -121 65 -190 106 -30 18 -62 36 -70
40 -8 3 -27 14 -42 24 -25 16 -196 115 -228 131 -16 8 -274 155 -300 171 -43
26 -130 76 -170 98 -25 13 -61 34 -80 46 -59 36 -73 44 -135 77 -33 17 -73 41
-90 53 -16 12 -75 46 -130 76 -55 29 -111 61 -125 70 -14 10 -46 29 -72 44
-118 64 -136 75 -184 104 -53 33 -64 37 -64 24z"/>
<path d="M20848 6882 c-10 -2 -18 -8 -18 -13 0 -12 47 -12 54 0 7 11 -13 19
-36 13z"/>
<path d="M20773 6843 c-7 -2 -13 -11 -13 -18 0 -17 52 -5 58 13 4 12 -22 15
-45 5z"/>
<path d="M20720 6800 c-12 -8 -10 -10 8 -10 13 0 20 4 17 10 -7 12 -6 12 -25
0z"/>
<path d="M20650 6760 c-13 -8 -12 -10 3 -10 9 0 17 5 17 10 0 12 -1 12 -20 0z"/>
<path d="M20570 6720 c0 -13 20 -13 40 0 12 8 9 10 -12 10 -16 0 -28 -4 -28
-10z"/>
<path d="M22150 6685 c0 -8 6 -15 14 -15 7 0 27 -7 42 -15 16 -8 37 -15 47
-15 9 0 17 -7 17 -15 0 -9 12 -18 29 -21 17 -4 32 -12 35 -20 3 -8 15 -14 26
-14 11 0 20 -5 20 -10 0 -6 12 -16 28 -23 15 -6 33 -20 40 -29 7 -10 19 -18
25 -18 18 0 71 -28 152 -81 39 -25 83 -49 99 -53 17 -4 35 -13 40 -21 13 -16
55 -24 55 -10 0 6 -22 21 -47 35 -26 14 -49 27 -52 31 -8 9 -168 99 -176 99
-4 0 -15 6 -23 14 -9 7 -36 24 -61 37 -25 13 -66 39 -92 57 -26 17 -53 32 -59
32 -6 0 -22 9 -36 20 -14 11 -31 20 -38 20 -7 0 -18 7 -25 15 -7 8 -23 15 -36
15 -15 0 -24 -6 -24 -15z"/>
<path d="M20440 6656 c0 -9 30 -14 35 -6 4 6 -3 10 -14 10 -12 0 -21 -2 -21
-4z"/>
<path d="M20371 6609 c-13 -11 -21 -23 -17 -27 4 -4 12 1 17 11 6 9 17 17 24
17 8 0 15 5 15 10 0 15 -12 12 -39 -11z"/>
<path d="M15925 6551 c-99 -26 -198 -114 -260 -232 -88 -168 -46 -344 99 -410
25 -11 64 -19 102 -19 84 0 152 36 289 155 156 135 203 154 259 106 67 -58 48
-165 -47 -268 -74 -81 -135 -101 -219 -72 -32 11 -63 17 -68 14 -17 -11 -71
-118 -66 -132 3 -7 31 -26 62 -40 67 -31 173 -35 243 -9 130 48 260 209 291
359 26 129 -33 260 -145 320 -31 16 -58 22 -115 22 -66 0 -82 -4 -135 -33 -33
-18 -100 -69 -150 -113 -159 -142 -208 -164 -259 -113 -52 52 -24 156 65 246
60 60 101 69 171 40 l49 -21 23 37 c40 64 57 102 50 113 -22 36 -173 68 -239
50z"/>
<path d="M20234 6528 c-23 -21 -34 -39 -34 -58 l0 -28 38 20 c45 24 100 19
138 -11 38 -30 53 -12 26 31 -24 38 -53 58 -100 69 -29 6 -38 3 -68 -23z"/>
<path d="M13780 5843 c0 -8 38 -31 186 -113 35 -19 110 -63 166 -96 165 -99
308 -177 313 -172 6 5 -69 58 -81 58 -4 0 -15 6 -23 14 -9 7 -42 27 -73 45
-149 81 -175 95 -197 113 -13 10 -27 18 -32 18 -10 0 -177 97 -199 115 -20 17
-60 29 -60 18z"/>
<path d="M14460 5450 c0 -9 39 -25 46 -18 2 3 -7 10 -21 16 -14 6 -25 7 -25 2z"/>
<path d="M14548 5398 c7 -7 45 -30 86 -53 41 -22 133 -75 205 -117 73 -43 136
-78 140 -78 5 0 19 -8 32 -19 26 -20 120 -75 157 -91 13 -6 54 -30 91 -53 72
-47 172 -100 177 -94 6 6 -116 82 -211 132 -49 26 -92 51 -95 55 -3 3 -36 24
-75 46 -38 21 -79 44 -90 51 -11 7 -29 16 -40 22 -11 5 -49 27 -85 50 -36 22
-78 47 -95 54 -16 8 -65 35 -108 61 -77 45 -115 60 -89 34z"/>
<path d="M18368 5222 c-1 -5 -104 -104 -228 -221 -126 -118 -226 -221 -228
-233 -4 -21 61 -98 83 -98 5 0 87 72 180 160 l170 159 3 -42 c1 -23 16 -215
33 -427 l31 -385 37 -38 c19 -21 43 -36 52 -35 28 5 519 477 519 499 0 24 -59
99 -78 99 -8 0 -102 -84 -210 -187 l-196 -186 -33 427 -33 427 -36 45 c-34 41
-58 55 -66 36z"/>
<path d="M15490 4860 c22 -18 293 -177 330 -193 8 -4 29 -16 45 -27 17 -11 41
-25 55 -32 14 -6 32 -17 40 -24 31 -25 152 -85 163 -81 7 2 -4 12 -23 21 -19
9 -60 32 -90 51 -30 19 -68 41 -85 50 -16 8 -48 26 -70 39 -22 14 -53 32 -70
40 -16 9 -48 27 -70 41 -22 14 -47 28 -55 32 -8 4 -46 26 -85 48 -85 50 -123
65 -85 35z"/>
<path d="M16162 4481 c-11 -6 -10 -9 5 -13 22 -6 43 0 43 13 0 11 -31 12 -48
0z"/>
<path d="M16260 4432 c0 -13 32 -39 59 -47 27 -8 118 -60 141 -80 8 -7 42 -27
75 -45 33 -17 75 -40 93 -50 75 -46 100 -60 150 -86 28 -15 55 -25 58 -22 3 3
-48 36 -113 73 -128 73 -279 161 -303 176 -8 5 -26 15 -40 21 -14 7 -43 25
-64 40 -40 29 -56 34 -56 20z"/>
<path d="M23775 11437 c-30 -22 -26 -95 7 -139 28 -37 74 -54 96 -36 6 6 12
28 12 50 0 53 -58 138 -94 138 -1 0 -10 -6 -21 -13z"/>
</g>
</svg>
