<?xml version="1.0" standalone="no"?>
<!DOCTYPE svg PUBLIC "-//W3C//DTD SVG 20010904//EN"
 "http://www.w3.org/TR/2001/REC-SVG-20010904/DTD/svg10.dtd">
<svg version="1.0" xmlns="http://www.w3.org/2000/svg"
 width="2480.000000pt" height="3508.000000pt" viewBox="0 0 2480.000000 3508.000000"
 preserveAspectRatio="xMidYMid meet">

<g transform="translate(0.000000,3508.000000) scale(0.100000,-0.100000)"
fill="#000000" stroke="none">
<path d="M4150 25025 c-216 -28 -250 -41 -360 -140 -41 -37 -91 -75 -110 -85
-19 -10 -63 -47 -97 -82 -64 -65 -88 -114 -144 -293 -60 -190 -74 -290 -54
-390 9 -44 22 -109 29 -145 7 -36 22 -79 32 -97 18 -31 18 -32 -6 -83 -29 -63
-31 -145 -5 -205 32 -74 48 -176 49 -310 0 -173 -8 -291 -21 -307 -16 -19 -54
-164 -60 -227 -2 -30 -9 -66 -14 -80 -6 -14 -12 -87 -14 -162 -3 -94 -9 -147
-21 -174 -20 -48 -20 -145 0 -187 19 -41 11 -159 -25 -341 -5 -27 -9 -58 -9
-69 0 -12 -13 -42 -30 -68 -20 -31 -33 -68 -40 -115 -5 -39 -19 -103 -30 -142
-25 -92 -25 -107 5 -283 47 -277 64 -353 90 -415 7 -16 16 -52 20 -80 4 -27
13 -61 20 -75 7 -14 16 -61 20 -105 4 -44 21 -125 37 -180 16 -55 34 -120 38
-145 9 -45 133 -296 193 -389 17 -27 52 -83 77 -123 25 -40 67 -101 93 -137
26 -35 57 -83 69 -108 11 -24 40 -60 64 -80 33 -26 55 -59 88 -127 24 -50 59
-114 77 -142 19 -28 45 -69 59 -93 26 -43 181 -214 325 -356 44 -44 93 -102
109 -128 39 -68 126 -152 188 -182 90 -43 121 -63 183 -115 32 -27 62 -50 66
-50 4 0 24 -17 45 -37 35 -34 69 -57 168 -115 16 -9 41 -28 55 -41 49 -44 178
-133 276 -189 46 -28 193 -96 251 -118 30 -12 123 -81 124 -92 0 -5 -8 -8 -17
-8 -45 0 -205 -107 -348 -234 -208 -185 -280 -269 -348 -406 -9 -19 -35 -66
-57 -105 -92 -163 -114 -226 -130 -375 -7 -58 -18 -139 -26 -181 -8 -42 -14
-89 -14 -106 0 -16 -9 -47 -19 -69 -50 -103 -67 -255 -52 -459 6 -88 16 -186
22 -218 5 -31 12 -94 15 -140 3 -45 9 -97 14 -115 11 -41 -2 -156 -29 -267
-11 -44 -26 -132 -32 -195 -7 -67 -17 -122 -25 -131 -8 -8 -21 -47 -30 -85 -9
-38 -25 -97 -35 -131 -10 -34 -19 -81 -19 -103 0 -28 -8 -52 -24 -73 -24 -33
-44 -84 -70 -178 -9 -30 -26 -71 -40 -91 -13 -19 -26 -50 -29 -69 -3 -19 -13
-65 -22 -104 -24 -100 -16 -193 19 -240 50 -65 242 -195 288 -195 15 0 18 -10
18 -62 0 -97 24 -203 54 -242 33 -43 78 -76 104 -76 12 0 24 -5 27 -10 10 -16
129 -69 172 -76 22 -3 86 3 153 15 63 11 151 25 195 31 44 7 118 22 165 35
209 58 277 78 300 90 14 7 55 21 90 30 87 21 161 51 201 81 19 13 50 29 70 34
42 12 259 141 381 228 48 34 91 62 96 62 14 0 166 114 183 137 23 30 75 62
143 86 64 24 90 41 169 108 23 19 80 62 126 94 47 33 117 88 155 123 39 35
101 84 139 109 37 24 86 66 108 93 24 28 66 61 102 81 91 48 213 130 287 193
36 31 81 63 100 72 83 38 117 58 150 88 20 18 58 47 85 65 28 18 66 51 85 73
24 27 62 51 123 78 97 43 184 104 226 159 14 19 53 63 86 97 141 146 200 213
246 282 l49 74 0 -63 c0 -61 11 -140 32 -227 14 -55 74 -112 121 -113 87 -3
101 2 147 46 46 46 90 141 90 196 0 14 10 46 23 70 27 52 57 130 82 214 19 64
38 121 78 225 14 36 30 90 35 120 6 30 22 91 37 135 15 44 28 96 30 117 1 22
13 49 29 68 17 21 26 43 26 66 0 38 12 67 40 99 10 11 25 43 33 71 8 28 20 60
25 70 6 11 19 39 30 64 63 142 82 190 82 207 0 10 20 -13 46 -52 26 -39 50
-74 55 -79 4 -4 34 12 68 38 207 159 478 283 781 355 262 63 606 93 817 72 70
-7 139 -15 155 -18 l28 -5 0 -218 0 -217 -31 -7 c-17 -3 -131 -6 -253 -6 -323
0 -503 -32 -773 -135 -132 -51 -443 -203 -443 -216 0 -5 18 -46 41 -90 31 -62
44 -80 57 -76 9 3 60 24 112 47 225 100 553 189 815 221 126 16 450 18 465 3
7 -7 9 -569 8 -1839 l-3 -1830 -615 -518 c-338 -284 -624 -526 -635 -537 -19
-20 -9 -20 2120 -20 l2140 1 -47 42 c-26 23 -279 251 -562 507 l-515 465 -1
2213 0 2212 793 0 c955 0 1393 13 1902 56 750 62 1269 163 1696 329 449 175
798 401 1100 713 408 420 653 925 740 1522 26 179 36 527 20 725 -48 594 -244
1101 -597 1545 -94 118 -347 369 -479 473 -232 185 -520 361 -755 462 -540
233 -1229 380 -2100 450 -475 37 -526 38 -2940 42 l-2385 4 563 -563 562 -563
0 -336 0 -336 -61 -27 c-72 -31 -146 -99 -214 -196 -27 -40 -71 -97 -97 -128
-26 -32 -48 -62 -48 -68 0 -6 -9 -19 -20 -29 -11 -10 -20 -22 -20 -26 0 -13
-69 -125 -171 -279 -52 -80 -131 -203 -174 -275 -43 -71 -93 -153 -111 -182
-19 -28 -57 -95 -85 -149 -28 -53 -73 -133 -101 -177 -62 -100 -84 -137 -119
-207 -15 -30 -44 -80 -64 -110 -19 -30 -38 -66 -41 -80 -8 -35 -71 -199 -89
-233 -8 -16 -15 -38 -15 -48 0 -11 -5 -29 -11 -41 -6 -11 -22 -61 -35 -111
l-25 -92 5 155 c3 85 12 205 20 265 9 61 16 139 16 175 0 36 7 119 15 185 8
66 22 183 30 260 8 77 22 172 30 210 9 39 18 106 22 150 3 44 12 96 20 115 8
19 21 62 28 95 14 59 26 104 45 168 5 17 17 61 26 97 14 57 29 113 65 240 5
19 16 64 24 100 8 36 31 97 50 137 19 40 40 82 45 95 13 29 37 66 78 120 281
369 319 439 309 565 -6 77 -37 136 -97 181 -41 32 -49 34 -100 29 -33 -3 -79
-16 -110 -32 -76 -38 -169 -135 -207 -215 -17 -36 -58 -121 -92 -190 -52 -104
-64 -138 -71 -200 -9 -78 -21 -136 -46 -208 -7 -23 -14 -58 -14 -77 0 -19 -7
-60 -16 -92 -39 -146 -52 -202 -58 -248 -9 -65 -51 -286 -76 -400 -11 -49 -31
-157 -45 -239 -14 -82 -27 -152 -30 -155 -2 -4 -9 -63 -15 -131 -14 -165 -48
-461 -60 -530 -12 -70 -35 -464 -35 -590 1 -52 6 -104 13 -116 10 -20 8 -22
-46 -34 -99 -22 -149 -56 -296 -203 l-90 -89 -16 48 c-9 27 -31 90 -49 139
-18 50 -39 110 -47 135 -8 25 -24 72 -35 105 -11 33 -27 81 -34 107 -8 26 -23
69 -35 95 -12 26 -32 80 -45 119 -12 39 -27 80 -34 92 -6 11 -13 43 -16 70 -3
33 -28 98 -76 198 -84 175 -118 261 -129 327 -10 53 -30 116 -43 134 -14 19
-29 76 -33 126 -2 26 -10 69 -18 95 -7 26 -19 72 -26 102 -6 30 -34 101 -61
157 -27 57 -49 112 -49 123 0 28 -37 124 -59 152 -10 13 -22 39 -26 58 -4 19
-11 40 -15 45 -5 6 -8 27 -8 47 0 21 -9 52 -20 70 -12 19 -25 60 -31 93 -5 33
-19 84 -30 113 -12 29 -21 63 -21 75 0 12 -13 63 -30 112 -16 50 -37 117 -47
150 -9 33 -33 96 -54 140 -20 44 -43 108 -52 142 -8 34 -27 77 -40 95 -14 18
-30 51 -36 72 -6 22 -33 77 -61 123 -29 46 -56 99 -61 118 -6 20 -23 50 -38
68 -15 17 -44 62 -64 98 -20 36 -57 89 -82 117 -34 38 -51 68 -64 115 -28 96
-53 143 -135 247 -41 52 -74 104 -73 115 2 62 -5 86 -43 134 -22 28 -68 92
-101 143 -57 86 -218 258 -242 258 -6 0 -25 11 -43 25 -30 23 -61 64 -120 161
-41 67 -97 134 -148 178 -30 25 -57 46 -61 46 -16 0 -98 65 -146 117 -102 109
-180 183 -192 183 -7 0 -40 23 -72 50 -33 28 -77 59 -98 70 -21 12 -82 57
-135 102 -111 93 -152 120 -207 138 -22 7 -67 32 -101 55 -42 30 -75 45 -110
50 -27 4 -78 21 -113 37 -36 17 -94 34 -130 39 -36 5 -81 14 -100 20 -19 7
-100 12 -180 13 -162 1 -181 -4 -288 -77 -29 -19 -67 -38 -85 -42 -58 -12
-135 -64 -197 -131 l-60 -66 -38 12 c-21 7 -65 27 -99 45 -34 18 -93 45 -132
59 -86 31 -146 60 -189 92 -42 31 -70 42 -178 65 -49 11 -108 29 -130 41 -25
13 -71 24 -125 29 -47 4 -119 12 -160 18 -94 13 -178 12 -300 -4z m68 -102
c-4 -23 -34 -29 -55 -11 -14 12 -13 14 13 19 45 10 46 10 42 -8z m-230 -35
c-6 -16 -36 -34 -44 -25 -9 9 15 37 33 37 8 0 13 -5 11 -12z m592 -3 c-7 -8
-16 -12 -21 -9 -13 8 -1 24 18 24 13 0 13 -3 3 -15z m1443 -2 c11 -10 -13 -33
-34 -33 -22 0 -24 11 -7 28 13 13 31 16 41 5z m235 -21 c-4 -21 -58 -30 -58
-9 0 19 5 22 35 25 20 1 26 -2 23 -16z m332 -103 c0 -5 -7 -9 -15 -9 -15 0
-20 12 -9 23 8 8 24 -1 24 -14z m-1290 -715 c0 -11 -6 -14 -22 -9 -34 11 -45
24 -28 35 18 11 50 -5 50 -26z m-465 -35 c8 -1 20 -3 25 -4 6 -1 16 -3 23 -4
8 0 19 -13 25 -27 7 -14 8 -23 3 -20 -13 9 -31 -18 -22 -33 12 -18 47 -9 43
11 -2 15 1 16 30 6 18 -6 49 -22 69 -34 20 -13 38 -22 40 -21 2 1 3 0 2 -2 -3
-5 66 -91 91 -113 10 -10 23 -18 28 -18 4 0 8 -9 8 -20 0 -11 7 -23 15 -26 8
-4 15 -16 15 -28 0 -13 11 -27 29 -38 26 -14 30 -23 36 -80 7 -69 0 -111 -42
-223 -24 -64 -45 -94 -66 -95 -7 0 -29 44 -52 105 -8 22 -10 18 -20 -37 l-6
-37 -58 0 -58 1 -18 50 c-9 27 -24 52 -31 55 -9 3 -12 14 -8 29 7 25 -5 31
-23 13 -9 -9 -20 -9 -44 0 -45 15 -49 14 -49 -14 l0 -24 -37 24 c-21 13 -46
31 -55 39 -25 22 -23 39 2 24 30 -19 36 -2 17 49 -14 39 -15 43 -2 33 9 -7 17
-11 19 -9 7 7 -16 109 -24 109 -4 0 -27 -7 -50 -15 -23 -8 -44 -15 -45 -15 -1
0 -5 18 -9 39 -3 22 -17 53 -31 69 -28 33 -25 62 7 62 17 0 20 5 16 35 -5 41
4 45 20 10 13 -29 24 -31 42 -10 10 12 10 21 1 41 -13 30 -15 64 -2 64 5 0 13
-9 16 -20 3 -11 11 -20 16 -20 12 0 12 6 -7 42 -15 29 -15 32 5 59 12 15 21
35 21 43 0 24 34 24 58 -1 13 -13 29 -24 37 -24z m1761 -43 c-7 -30 24 -61 54
-53 17 4 22 0 27 -24 6 -31 49 -73 64 -63 5 3 9 15 9 27 0 22 1 22 20 -3 25
-32 25 -52 0 -75 -28 -25 -25 -36 6 -25 14 6 36 10 49 10 20 0 25 -7 34 -50 6
-28 11 -59 11 -70 0 -10 14 -28 30 -40 27 -19 77 -97 68 -105 -23 -22 -90 25
-195 135 -35 36 -53 64 -53 80 0 41 -43 93 -120 146 -19 13 -42 33 -50 45 -8
12 -22 30 -32 40 -22 23 -12 31 29 23 25 -5 34 -2 39 10 9 25 17 19 10 -8z
m909 -17 c0 -17 -6 -24 -20 -24 -23 0 -33 34 -13 46 20 13 33 5 33 -22z
m-3255 1 c0 -5 -4 -10 -10 -10 -5 0 -10 5 -10 10 0 6 5 10 10 10 6 0 10 -4 10
-10z m2830 -90 c0 -5 5 -10 11 -10 14 0 49 -43 42 -52 -15 -25 -90 29 -79 57
6 17 26 21 26 5z m548 -21 c17 -16 32 -27 32 -23 0 4 7 -1 15 -12 41 -54 -17
-62 -70 -9 -34 35 -42 54 -28 68 11 11 16 8 51 -24z m-3720 -115 c37 -15 39
-35 4 -41 -24 -3 -102 32 -102 46 0 25 30 24 98 -5z m3639 -24 c-3 -11 3 -30
14 -44 10 -13 19 -29 19 -35 0 -6 8 -11 18 -11 10 0 31 -13 47 -30 31 -32 55
-39 55 -15 0 8 5 15 10 15 6 0 10 -4 10 -8 0 -5 21 -23 46 -41 36 -26 52 -32
81 -29 28 3 42 -1 62 -20 14 -13 50 -38 79 -55 30 -16 59 -38 65 -47 8 -14 16
-16 35 -9 20 8 23 7 15 -3 -6 -7 -13 -30 -17 -51 -4 -21 -10 -45 -13 -53 -3
-8 -1 -14 5 -12 16 5 112 -75 112 -92 0 -9 -5 -21 -12 -28 -9 -9 -9 -12 0 -12
6 0 18 -13 27 -30 11 -21 23 -30 40 -30 22 0 41 -19 44 -45 1 -5 21 -9 45 -7
40 3 44 1 56 -28 7 -17 21 -35 31 -41 27 -14 76 -104 90 -163 13 -58 28 -79
82 -113 39 -24 73 -85 152 -273 38 -90 51 -102 101 -98 32 2 40 0 36 -11 -3
-9 -1 -12 6 -7 8 5 10 2 6 -9 -4 -10 -2 -15 6 -13 7 2 14 -3 15 -10 2 -7 1 -8
-1 -3 -8 15 -35 1 -44 -23 -5 -14 -1 -33 11 -58 11 -21 19 -47 19 -58 0 -25
53 -163 110 -285 37 -80 41 -93 31 -121 -18 -51 0 -113 46 -159 37 -37 41 -48
63 -150 12 -60 31 -134 42 -165 24 -68 35 -299 15 -305 -7 -2 -23 -6 -37 -9
-29 -6 -37 -14 -116 -108 -49 -59 -55 -72 -49 -95 4 -16 7 -41 7 -58 -1 -63
-34 -209 -51 -228 -12 -12 -40 3 -46 24 -4 11 -24 40 -46 65 -64 74 -116 157
-181 287 -33 67 -67 126 -74 130 -8 4 -21 22 -30 40 -9 18 -23 36 -30 40 -8 4
-14 18 -14 31 0 42 -116 272 -149 297 -18 13 -31 32 -31 44 0 12 -16 36 -35
55 -19 18 -37 47 -41 64 -7 35 -33 73 -81 120 -18 18 -33 40 -33 50 0 9 -16
40 -35 69 -19 28 -35 59 -35 68 0 10 -14 29 -30 43 -24 20 -30 33 -31 68 -1
25 -9 51 -19 63 -18 21 -130 234 -130 247 0 4 -9 17 -20 28 -12 12 -18 25 -15
30 4 6 2 10 -2 10 -17 0 -1 68 17 73 19 5 33 70 18 85 -5 5 -13 35 -19 68 -8
48 -14 60 -30 61 -12 1 -21 -6 -25 -22 -3 -13 -15 -27 -25 -30 -25 -8 -24 -22
1 -35 11 -6 20 -17 20 -24 0 -16 -27 -29 -42 -20 -15 10 13 -39 31 -54 14 -11
14 -11 -3 -5 -10 3 -31 34 -47 67 -15 34 -38 73 -51 88 -52 60 -61 72 -75 107
-8 20 -26 47 -39 61 l-23 25 30 60 c19 38 29 72 27 92 -3 35 36 88 55 76 6 -3
0 -11 -14 -16 l-24 -9 23 -11 c18 -8 26 -7 40 6 11 12 12 17 4 17 -7 0 -11 4
-8 9 3 4 17 6 31 4 20 -4 23 -9 15 -23 -11 -21 -3 -57 16 -64 9 -4 18 4 25 22
l11 27 24 -30 c23 -29 25 -29 51 -15 15 8 35 30 46 47 15 27 16 36 6 55 -7 13
-18 28 -25 33 -8 7 -10 25 -5 63 4 28 4 52 0 52 -4 0 -9 10 -11 22 -2 13 -15
29 -32 37 -16 7 -31 21 -33 31 -3 10 -14 21 -25 23 -16 5 -20 12 -16 35 3 24
1 29 -13 27 -9 -2 -30 6 -47 18 -27 19 -31 29 -34 72 -3 47 -5 50 -36 56 -41
8 -41 7 -44 51 -1 20 -7 36 -12 35 -6 -1 -12 12 -14 28 -4 38 -18 53 -34 37
-19 -19 -30 -14 -18 8 18 33 2 43 -31 20 -41 -30 -37 -6 9 45 41 47 57 56 49
25z m634 -177 c13 -16 12 -17 -3 -4 -10 7 -18 15 -18 17 0 8 8 3 21 -13z
m-4056 -13 c3 -5 1 -10 -4 -10 -6 0 -11 5 -11 10 0 6 2 10 4 10 3 0 8 -4 11
-10z m3329 -33 c-3 -9 -13 -17 -20 -17 -21 0 -29 27 -13 46 10 13 14 13 26 1
8 -7 11 -21 7 -30z m-375 -6 c31 3 34 -1 16 -21 -18 -20 -18 -21 -1 -38 16
-16 18 -16 27 0 9 16 11 16 29 1 13 -12 16 -21 10 -27 -16 -16 -12 -34 10 -41
16 -5 20 -15 20 -46 l0 -40 -36 7 c-26 5 -39 3 -45 -7 -7 -11 -18 -5 -50 29
-31 33 -40 49 -37 72 1 16 -4 36 -14 47 -8 10 -19 32 -22 50 l-7 31 42 -9 c23
-6 49 -9 58 -8z m577 -203 c17 -18 38 -44 47 -58 9 -14 24 -35 33 -48 13 -17
14 -26 6 -34 -9 -9 -20 -5 -43 18 -38 35 -109 129 -109 144 0 21 37 9 66 -22z
m-398 14 c7 -5 10 -16 7 -24 -8 -20 20 -30 89 -34 27 -1 52 -8 57 -15 4 -7 10
-44 14 -83 4 -41 18 -96 33 -129 21 -49 23 -60 11 -68 -20 -13 -48 -11 -62 4
-13 13 -112 128 -143 165 -10 12 -24 22 -31 22 -15 0 -16 5 -13 90 3 82 7 91
38 72z m-58 -62 c0 -5 -4 -10 -10 -10 -5 0 -10 5 -10 10 0 6 5 10 10 10 6 0
10 -4 10 -10z m-3074 -145 c9 -14 22 -25 28 -25 21 0 75 -65 82 -98 10 -49
-15 -49 -68 0 -42 39 -88 111 -88 138 0 19 30 10 46 -15z m912 16 c8 -5 12
-23 10 -47 -3 -37 -5 -39 -42 -42 -34 -3 -38 -1 -31 15 3 10 9 33 12 51 6 32
24 41 51 23z m-1561 -313 c-3 -7 -5 -2 -5 12 0 14 2 19 5 13 2 -7 2 -19 0 -25z
m4067 3 c-2 -3 -12 3 -22 13 -16 17 -16 18 5 5 12 -7 20 -15 17 -18z m-4077
-53 c-3 -7 -5 -2 -5 12 0 14 2 19 5 13 2 -7 2 -19 0 -25z m-18 -260 c0 -7 -4
-22 -9 -33 -7 -17 -9 -15 -9 13 -1 17 4 32 9 32 6 0 10 -6 9 -12z m5366 -48
c-7 -11 12 -51 29 -62 8 -5 7 -8 -1 -8 -15 0 -46 57 -38 70 3 6 8 10 11 10 3
0 2 -4 -1 -10z m-5388 -67 c-3 -10 -5 -2 -5 17 0 19 2 27 5 18 2 -10 2 -26 0
-35z m4412 -38 c0 -5 -6 1 -14 15 -8 14 -14 30 -14 35 0 6 6 -1 14 -15 8 -14
14 -29 14 -35z m7906 45 c1386 -67 2183 -440 2550 -1194 163 -333 245 -737
245 -1205 0 -192 -13 -336 -46 -501 -183 -921 -892 -1439 -2222 -1624 -325
-45 -756 -76 -1074 -76 l-158 0 0 1926 0 1926 688 -5 c701 -5 843 -12 1119
-52 558 -82 912 -248 1228 -576 50 -52 110 -120 134 -152 24 -32 46 -55 49
-53 7 8 -73 151 -143 256 -182 272 -380 458 -610 573 -159 79 -382 139 -660
176 -354 48 -660 61 -1452 61 l-623 0 0 -2039 0 -2039 -31 -7 c-17 -4 -120 -4
-230 0 l-199 8 0 2282 0 2283 43 6 c35 4 275 15 642 29 191 8 563 6 750 -3z
m-11565 -55 c0 -8 5 -15 10 -15 6 0 10 -7 10 -17 0 -14 -2 -14 -20 2 -21 19
-27 45 -10 45 6 0 10 -7 10 -15z m-545 -169 c8 -23 6 -30 -10 -42 -18 -13 -21
-12 -36 18 -13 24 -14 37 -7 46 17 20 42 10 53 -22z m75 -122 c0 -11 -31 -2
-51 14 -16 14 -20 24 -15 38 6 17 10 15 37 -15 16 -19 29 -35 29 -37z m-70
-45 c0 -6 -4 -7 -10 -4 -5 3 -10 11 -10 16 0 6 5 7 10 4 6 -3 10 -11 10 -16z
m1090 5 c0 -4 -9 -22 -21 -40 -18 -30 -19 -34 -4 -34 12 0 15 -5 10 -17 -3
-10 -7 -22 -8 -28 -1 -5 -10 -16 -20 -25 -10 -8 -20 -33 -23 -55 -3 -22 -15
-62 -27 -90 -11 -27 -24 -80 -27 -117 -7 -71 -33 -115 -51 -87 -5 8 -9 24 -9
35 0 12 -9 41 -20 65 -11 24 -20 62 -20 84 0 44 -25 89 -42 79 -8 -5 -9 7 -5
41 4 26 7 58 7 70 0 14 7 25 20 28 11 3 18 0 17 -6 -1 -6 7 -13 17 -15 15 -3
17 0 12 14 -3 11 3 8 15 -8 26 -35 39 -35 39 0 0 24 4 27 32 27 26 0 37 8 62
42 29 38 46 52 46 37z m-260 -320 c0 -8 -6 -11 -15 -8 -8 4 -15 15 -15 26 0
17 3 18 15 8 8 -7 15 -19 15 -26z m4850 -606 c0 -5 -4 -8 -10 -8 -14 0 -40 55
-40 82 1 18 6 14 25 -22 13 -25 24 -48 25 -52z m61 -138 c0 -8 2 -23 4 -32 3
-15 0 -16 -16 -8 -13 7 -19 7 -19 0 0 -22 -30 -8 -45 20 -17 33 -12 55 11 46
17 -7 17 -6 -1 31 -8 17 -12 38 -9 48 5 13 14 5 40 -36 19 -30 34 -61 35 -69z
m3049 -1547 l0 -1668 -183 -1 c-369 -2 -655 -66 -942 -209 -264 -133 -489
-329 -675 -590 -24 -33 -39 -51 -35 -40 33 87 85 242 93 277 6 24 20 79 32
123 18 64 22 112 24 240 1 124 5 167 18 190 8 17 19 45 23 62 3 18 11 35 16
39 5 3 23 33 40 66 35 69 104 163 166 222 103 101 212 228 243 282 32 57 33
62 33 179 1 114 0 123 -28 172 -15 29 -55 78 -87 109 l-60 57 47 126 c26 69
69 182 96 250 27 69 49 131 49 140 0 32 71 159 122 218 49 57 78 107 122 208
20 47 76 143 158 273 32 50 58 94 58 97 0 8 178 268 230 335 28 36 76 103 107
150 31 47 89 119 128 160 40 41 76 82 81 91 7 13 111 105 122 108 1 1 2 -749
2 -1666z m-3135 1619 c-8 -8 -25 10 -19 20 4 6 9 5 15 -3 4 -7 6 -15 4 -17z
m-4790 -102 c11 -17 -5 -32 -21 -19 -8 6 -14 15 -14 20 0 12 27 11 35 -1z
m4914 -95 c0 -5 -6 1 -14 15 -8 14 -14 30 -14 35 0 6 6 -1 14 -15 8 -14 14
-29 14 -35z m18 -57 c-3 -8 -6 -5 -6 6 -1 11 2 17 5 13 3 -3 4 -12 1 -19z
m-5471 -70 c13 -26 13 -28 -11 -44 -36 -24 -55 -12 -55 35 0 22 3 47 6 56 6
14 8 14 26 -2 11 -10 26 -30 34 -45z m5505 15 c13 -16 12 -17 -3 -4 -10 7 -18
15 -18 17 0 8 8 3 21 -13z m-5801 -68 c0 -9 -7 -18 -16 -22 -18 -7 -39 11 -30
26 11 17 46 13 46 -4z m240 -60 c0 -8 -7 -15 -15 -15 -8 0 -15 7 -15 15 0 8 7
15 15 15 8 0 15 -7 15 -15z m5325 -512 c12 -18 24 -23 60 -23 38 0 47 -5 74
-37 29 -35 31 -36 49 -20 26 24 34 22 76 -17 23 -22 36 -44 36 -60 0 -18 9
-30 30 -41 17 -9 30 -17 31 -18 0 -1 3 -31 5 -66 4 -44 2 -66 -7 -71 -8 -6 -4
-13 14 -25 40 -26 65 -135 32 -135 -21 0 -19 -7 20 -75 29 -51 32 -61 20 -75
-69 -76 -85 -86 -85 -52 0 9 -10 32 -23 51 -12 19 -35 55 -52 82 -16 26 -54
82 -83 124 -29 41 -50 80 -47 84 3 5 -5 22 -17 38 -29 35 -48 69 -48 84 0 6
-13 23 -29 39 -15 16 -41 58 -57 94 -16 36 -32 66 -36 66 -5 0 -8 7 -8 15 0 8
-5 15 -11 15 -5 0 -7 5 -4 10 3 6 0 10 -7 11 -9 0 -9 2 -2 5 7 3 10 14 7 25
-5 18 -3 19 21 8 14 -7 33 -23 41 -36z m-4982 -317 c-3 -38 -12 -45 -28 -23
-17 23 -8 59 14 55 11 -3 15 -13 14 -32z m212 -146 c0 -13 -5 -25 -11 -27 -13
-4 -26 35 -18 49 10 16 29 2 29 -22z m5369 -16 c3 -8 2 -12 -4 -9 -6 3 -10 10
-10 16 0 14 7 11 14 -7z m43 -126 c-3 -8 -6 -5 -6 6 -1 11 2 17 5 13 3 -3 4
-12 1 -19z m47 -114 c3 -8 2 -12 -4 -9 -6 3 -10 10 -10 16 0 14 7 11 14 -7z
m-5645 -69 c8 -22 19 -43 24 -46 12 -9 -5 -19 -36 -21 -15 -1 -24 -8 -23 -18
3 -41 70 -120 101 -120 27 0 45 -18 45 -47 0 -45 -69 -24 -71 22 0 11 -3 14
-6 7 -3 -8 -18 1 -43 27 -52 53 -61 73 -65 139 -6 99 44 138 74 57z m5513 -92
c14 -16 28 -37 31 -48 3 -11 17 -53 32 -94 17 -47 26 -95 26 -130 0 -76 16
-133 45 -164 27 -30 30 -43 10 -50 -10 -4 -21 11 -36 48 -12 29 -30 61 -41 71
-10 9 -19 28 -19 40 0 15 -10 28 -27 38 -21 11 -33 30 -47 73 -10 32 -33 91
-52 131 -36 79 -36 102 0 95 13 -3 27 0 30 6 11 17 20 14 48 -16z m1128 -213
c0 -5 -5 -10 -11 -10 -5 0 -7 5 -4 10 3 6 8 10 11 10 2 0 4 -4 4 -10z m-5905
-120 c3 -5 1 -10 -4 -10 -6 0 -11 5 -11 10 0 6 2 10 4 10 3 0 8 -4 11 -10z
m3015 -136 c11 -12 11 -18 -1 -29 -13 -13 -18 -13 -38 2 -23 15 -23 17 -6 30
24 17 30 16 45 -3z m-2983 -40 c12 -3 24 -16 27 -28 4 -15 24 -31 63 -49 78
-36 97 -49 129 -80 15 -15 32 -27 39 -27 7 0 28 -11 48 -24 29 -20 51 -25 114
-28 67 -3 81 -6 96 -25 10 -13 24 -23 30 -23 7 0 36 -11 65 -25 37 -17 52 -30
52 -44 0 -34 11 -51 35 -51 15 0 34 -16 59 -47 37 -48 43 -63 26 -63 -24 0 12
-38 49 -53 22 -9 42 -25 46 -36 3 -12 17 -21 33 -23 42 -5 39 -37 -9 -92 l-42
-47 -26 25 c-22 21 -30 23 -39 14 -16 -16 -28 2 -37 54 -7 37 -18 48 -30 28
-8 -13 -25 -13 -25 1 0 6 -7 17 -15 26 -8 8 -13 19 -10 24 4 5 -1 6 -9 3 -9
-3 -16 -1 -16 5 0 7 -22 10 -62 8 -36 -2 -77 3 -96 11 -26 10 -37 10 -48 1
-11 -9 -18 -9 -29 1 -9 7 -18 10 -22 7 -3 -4 -13 -1 -21 5 -19 16 -51 35 -84
50 -17 8 -32 25 -39 45 -6 18 -26 45 -45 59 -19 15 -34 33 -34 40 0 15 -26 28
-72 38 -18 4 -28 13 -28 24 0 13 -2 14 -8 4 -12 -18 -51 -2 -82 33 -14 15 -37
38 -52 52 -15 14 -30 34 -33 44 -5 14 -16 19 -42 19 -32 0 -35 2 -28 23 5 12
8 39 8 60 -1 20 0 37 0 37 1 0 20 7 42 15 43 15 86 18 122 9z m5135 -184 c-41
-89 -48 -119 -34 -159 8 -23 6 -44 -8 -93 -11 -35 -28 -117 -40 -183 -11 -66
-29 -157 -41 -202 -11 -45 -24 -113 -29 -150 -5 -38 -15 -97 -23 -133 -8 -36
-20 -110 -27 -165 -12 -98 -38 -224 -106 -517 -19 -80 -34 -157 -34 -171 0
-13 -9 -59 -21 -103 -11 -43 -29 -139 -40 -211 -11 -73 -28 -161 -39 -195 -11
-35 -20 -74 -20 -86 0 -13 -9 -54 -20 -90 -18 -62 -25 -95 -50 -252 -5 -30
-14 -77 -20 -105 -19 -86 -39 -218 -34 -226 3 -5 -19 3 -48 16 -29 14 -64 25
-77 25 -20 0 -21 2 -11 15 7 8 19 15 28 15 18 0 95 78 87 89 -2 5 0 23 5 41 5
18 12 85 16 149 3 64 12 143 19 177 8 33 19 106 24 161 14 133 33 211 66 267
18 32 28 61 27 89 0 78 20 214 73 482 28 147 42 207 57 250 26 76 36 127 41
205 7 123 28 249 99 575 10 50 21 113 23 140 5 56 34 174 47 191 9 12 24 77
39 169 5 33 12 70 14 82 l5 22 43 -22 44 -22 -35 -75z m-5327 -11 c10 -29 1
-33 -34 -14 -35 18 -33 35 4 35 15 0 26 -7 30 -21z m2235 1 c0 -5 -7 -7 -15
-4 -8 4 -12 10 -9 15 6 11 24 2 24 -11z m-1742 -368 c2 -12 -1 -22 -6 -22 -15
0 -34 28 -27 40 10 17 30 6 33 -18z m846 -262 c8 0 41 -20 73 -44 33 -24 69
-47 81 -50 12 -4 24 -16 27 -27 10 -30 107 -123 144 -138 45 -19 42 -48 -6
-57 -21 -4 -50 -13 -64 -20 -39 -20 -100 -15 -126 9 l-23 20 0 -21 c0 -30 -18
-37 -24 -10 -7 33 -2 98 7 98 11 0 8 40 -3 41 -5 1 -15 2 -22 3 -6 0 -16 16
-20 35 -6 19 -30 53 -59 82 -33 32 -49 56 -49 73 0 27 30 41 43 19 4 -7 14
-13 21 -13z m-344 -25 c17 -20 5 -46 -17 -38 -19 6 -43 31 -43 45 0 14 47 9
60 -7z m-280 -855 c0 -5 -10 -14 -21 -21 -17 -8 -23 -8 -30 2 -4 7 -5 17 -3
21 7 11 54 10 54 -2z m810 -714 c0 -3 -4 -8 -10 -11 -5 -3 -10 -1 -10 4 0 6 5
11 10 11 6 0 10 -2 10 -4z m2285 -797 c-10 -15 -52 -10 -59 7 -3 8 -1 25 5 37
12 21 12 21 36 -7 13 -15 21 -32 18 -37z m-3658 -1251 c-3 -8 -6 -5 -6 6 -1
11 2 17 5 13 3 -3 4 -12 1 -19z m2271 -167 c3 -8 -1 -12 -9 -9 -7 2 -15 10
-17 17 -3 8 1 12 9 9 7 -2 15 -10 17 -17z m-2198 -91 c12 -7 15 -33 14 -133
-1 -72 -7 -133 -13 -146 -7 -12 -9 -26 -6 -32 8 -12 -34 -76 -54 -84 -7 -3
-29 6 -47 20 -26 20 -34 33 -34 58 0 47 27 146 51 184 21 33 21 55 4 110 -6
17 -2 22 17 26 40 7 53 7 68 -3z m2090 -144 c-1 -6 -33 -31 -72 -56 -40 -24
-99 -67 -132 -95 -51 -43 -163 -125 -171 -125 -1 0 -5 10 -8 22 -6 22 -7 22
-40 -10 -33 -32 -81 -52 -126 -52 -13 0 -32 -7 -41 -15 -9 -8 -39 -18 -66 -21
-27 -3 -66 -17 -87 -31 -21 -13 -49 -28 -63 -34 -14 -5 -28 -18 -31 -29 -4
-15 -14 -20 -38 -20 -19 0 -39 -8 -50 -20 -10 -11 -25 -18 -34 -16 -9 3 -35
10 -57 16 -47 11 -56 26 -47 70 5 25 13 32 52 44 66 21 110 39 156 62 22 12
61 27 88 35 26 7 47 17 47 22 0 4 5 5 11 2 6 -4 19 2 29 13 12 13 27 18 43 15
29 -6 57 8 164 80 76 51 86 55 140 55 65 0 129 21 238 80 67 37 96 39 95 8z
m5 -123 c0 -10 -52 -53 -95 -78 -11 -6 -10 -3 3 12 9 11 17 28 17 39 0 11 6
26 12 32 16 16 63 12 63 -5z m-2341 -94 c10 -49 7 -59 -13 -59 -21 0 -48 61
-36 80 14 22 42 10 49 -21z m842 -253 c3 -9 -24 -44 -71 -91 -61 -62 -80 -76
-98 -71 -16 4 -26 -1 -35 -14 -23 -37 -66 -51 -121 -39 -50 10 -50 11 -66 66
-21 73 -17 105 15 113 14 4 84 10 156 13 134 7 164 12 164 28 0 15 50 10 56
-5z m570 -117 c8 -14 -18 -31 -30 -19 -9 9 0 30 14 30 5 0 12 -5 16 -11z
m-246 -59 c0 -23 -32 -43 -62 -38 -20 3 -20 3 2 31 25 32 60 37 60 7z m-830
-35 c11 -25 31 -57 45 -71 28 -28 24 -56 -4 -30 -9 9 -29 26 -45 39 -22 18
-29 32 -30 65 -3 54 10 53 34 -3z m626 7 c22 -15 24 -42 3 -63 -11 -11 -26
-18 -32 -16 -17 5 -20 42 -7 66 11 22 19 25 36 13z m-282 -88 c20 -8 21 -33 1
-40 -23 -9 -48 15 -34 32 13 16 12 16 33 8z"/>
<path d="M4688 23793 c-10 -2 -18 -10 -18 -18 0 -8 7 -11 20 -8 11 3 20 12 20
19 0 8 -1 13 -2 13 -2 -1 -11 -3 -20 -6z"/>
<path d="M8019 22757 c-1 -1 -2 -15 -4 -30 -3 -38 -21 -49 -68 -42 -44 6 -60
-14 -33 -44 21 -24 20 -37 -5 -54 -18 -13 -19 -18 -8 -39 6 -12 18 -26 25 -31
7 -4 20 -28 30 -55 37 -97 87 -148 163 -168 32 -8 47 -17 50 -30 2 -10 16 -34
32 -52 16 -18 29 -42 29 -52 0 -22 12 -25 39 -10 14 7 23 4 37 -11 18 -21 18
-21 -10 -46 -24 -20 -25 -24 -10 -23 10 2 38 -5 62 -15 35 -15 44 -25 52 -57
10 -33 13 -37 30 -28 10 5 28 10 39 10 23 0 26 7 12 29 -6 9 -11 10 -15 2 -9
-14 -39 -14 -53 0 -9 9 -7 21 9 49 15 25 19 43 13 56 -4 10 -7 25 -6 32 1 8
-11 12 -36 12 -43 1 -67 15 -77 47 -4 12 -27 43 -51 68 -48 48 -65 89 -46 108
19 19 13 47 -9 47 -25 0 -112 45 -104 53 3 3 12 3 20 0 21 -8 16 9 -9 34 -20
19 -23 32 -26 114 -1 51 -4 96 -6 100 -5 7 -64 30 -66 26z"/>
<path d="M9430 19941 c0 -17 18 -21 24 -6 3 9 0 15 -9 15 -8 0 -15 -4 -15 -9z"/>
<path d="M4357 19019 c7 -7 15 -10 18 -7 3 3 -2 9 -12 12 -14 6 -15 5 -6 -5z"/>
<path d="M4960 18501 c0 -6 4 -13 10 -16 6 -3 7 1 4 9 -7 18 -14 21 -14 7z"/>
<path d="M5077 18379 c7 -7 15 -10 18 -7 3 3 -2 9 -12 12 -14 6 -15 5 -6 -5z"/>
<path d="M5850 18010 c0 -5 5 -10 10 -10 6 0 10 5 10 10 0 6 -4 10 -10 10 -5
0 -10 -4 -10 -10z"/>
<path d="M5860 17974 c0 -11 14 -33 30 -49 27 -26 30 -27 30 -9 0 11 -13 33
-30 49 -27 26 -30 27 -30 9z"/>
<path d="M20101 22293 c8 -10 59 -71 114 -138 276 -330 497 -661 631 -940 188
-395 274 -822 274 -1365 0 -1118 -373 -1959 -1114 -2515 -680 -509 -1668 -784
-3041 -846 -403 -18 -1435 -5 -2062 27 l-133 6 0 -2068 0 -2069 581 -670 582
-670 -2154 -5 -2154 -5 125 -128 125 -127 2304 2 2303 3 -721 855 -721 855 0
1881 0 1882 553 -6 c1990 -18 3351 190 4174 637 830 451 1349 1178 1512 2121
46 264 55 391 56 735 0 427 -26 664 -109 987 -181 701 -556 1257 -1031 1527
-94 54 -116 62 -94 34z"/>
</g>
</svg>
